<mxfile host="app.diagrams.net" modified="2020-10-06T17:36:49.718Z" agent="5.0 (X11; Linux x86_64) AppleWebKit/537.36 (KHTML, like Gecko) Chrome/85.0.4183.121 Safari/537.36" etag="mPh5gyjwYNhyvKk-pb5r" version="13.7.7" type="github">
  <diagram id="ADbIuRsIv5Hx8pPA25rk" name="Page-1">
    <mxGraphModel dx="1778" dy="924" grid="1" gridSize="10" guides="1" tooltips="1" connect="1" arrows="1" fold="1" page="1" pageScale="1" pageWidth="850" pageHeight="1100" math="0" shadow="0">
      <root>
        <mxCell id="0" />
        <mxCell id="1" parent="0" />
        <mxCell id="pJR2RmS9D6GU43mJmb3n-33" value="" style="edgeStyle=elbowEdgeStyle;rounded=1;orthogonalLoop=1;jettySize=auto;html=1;endArrow=none;endFill=0;strokeColor=#999999;strokeWidth=3;opacity=30;" parent="1" target="pJR2RmS9D6GU43mJmb3n-32" edge="1">
          <mxGeometry relative="1" as="geometry">
            <mxPoint x="406" y="170" as="sourcePoint" />
            <Array as="points">
              <mxPoint x="406" y="100" />
            </Array>
          </mxGeometry>
        </mxCell>
        <mxCell id="pJR2RmS9D6GU43mJmb3n-24" value="" style="ellipse;whiteSpace=wrap;html=1;aspect=fixed;fontColor=#ffffff;fillColor=#f0a30a;strokeWidth=2;strokeColor=#BD7000;" parent="1" vertex="1">
          <mxGeometry x="401" y="100" width="10" height="10" as="geometry" />
        </mxCell>
        <mxCell id="pJR2RmS9D6GU43mJmb3n-34" style="edgeStyle=elbowEdgeStyle;rounded=1;orthogonalLoop=1;jettySize=auto;html=1;entryX=0;entryY=0.5;entryDx=0;entryDy=0;endArrow=none;endFill=0;strokeColor=#999999;strokeWidth=3;opacity=30;" parent="1" source="pJR2RmS9D6GU43mJmb3n-29" target="pJR2RmS9D6GU43mJmb3n-32" edge="1">
          <mxGeometry relative="1" as="geometry" />
        </mxCell>
        <mxCell id="pJR2RmS9D6GU43mJmb3n-29" value="Get them a Desktop PC" style="rounded=1;whiteSpace=wrap;html=1;strokeColor=#C73500;strokeWidth=2;fillColor=#fa6800;fontColor=#ffffff;fontStyle=1" parent="1" vertex="1">
          <mxGeometry x="165" y="190" width="160" height="30" as="geometry" />
        </mxCell>
        <mxCell id="pJR2RmS9D6GU43mJmb3n-31" value="Roadmap for Providing Kids&amp;nbsp;&lt;br style=&quot;font-size: 28px;&quot;&gt;a Foundation in Technology" style="text;align=left;verticalAlign=middle;resizable=0;points=[];autosize=1;fontFamily=Courier New;fontSize=28;spacing=0;html=1;" parent="1" vertex="1">
          <mxGeometry x="171" width="470" height="70" as="geometry" />
        </mxCell>
        <mxCell id="dCMkaDBT27g6itsRyK8f-4" value="" style="edgeStyle=elbowEdgeStyle;rounded=1;orthogonalLoop=1;jettySize=auto;html=1;endArrow=none;endFill=0;strokeColor=#999999;strokeWidth=3;fontFamily=Helvetica;fontSize=18;opacity=30;" parent="1" source="pJR2RmS9D6GU43mJmb3n-32" target="dCMkaDBT27g6itsRyK8f-3" edge="1">
          <mxGeometry relative="1" as="geometry" />
        </mxCell>
        <mxCell id="pJR2RmS9D6GU43mJmb3n-32" value="" style="ellipse;whiteSpace=wrap;html=1;aspect=fixed;fontColor=#ffffff;fillColor=#f0a30a;strokeWidth=2;strokeColor=#BD7000;" parent="1" vertex="1">
          <mxGeometry x="401" y="250" width="10" height="10" as="geometry" />
        </mxCell>
        <mxCell id="dCMkaDBT27g6itsRyK8f-1" value="&lt;ul&gt;&lt;li&gt;Don&#39;t give them a shared desktop or a laptop.&lt;/li&gt;&lt;li&gt;Let them learn ownership.&lt;br&gt;&lt;/li&gt;&lt;li&gt;Encourage them to use it however they want.&lt;/li&gt;&lt;li&gt;Teach them to clean the dust inside the CPU once in 4 months.&lt;br&gt;&lt;/li&gt;&lt;/ul&gt;" style="rounded=0;whiteSpace=wrap;html=1;strokeWidth=1;align=left;strokeColor=none;fillColor=#E6E6E6;verticalAlign=top;spacing=0;spacingLeft=-23;spacingRight=4;" parent="1" vertex="1">
          <mxGeometry x="145" y="240" width="180" height="140" as="geometry" />
        </mxCell>
        <mxCell id="dCMkaDBT27g6itsRyK8f-2" value="Y1" style="text;html=1;align=center;verticalAlign=middle;resizable=0;points=[];autosize=1;fontSize=18;fontFamily=Helvetica;fillColor=#f0a30a;strokeColor=#BD7000;fontColor=#ffffff;" parent="1" vertex="1">
          <mxGeometry x="120" y="190" width="40" height="30" as="geometry" />
        </mxCell>
        <mxCell id="dCMkaDBT27g6itsRyK8f-6" style="edgeStyle=elbowEdgeStyle;rounded=1;orthogonalLoop=1;jettySize=auto;html=1;endArrow=none;endFill=0;strokeColor=#999999;strokeWidth=3;fontFamily=Helvetica;fontSize=18;opacity=30;" parent="1" source="dCMkaDBT27g6itsRyK8f-3" target="dCMkaDBT27g6itsRyK8f-5" edge="1">
          <mxGeometry relative="1" as="geometry" />
        </mxCell>
        <mxCell id="dCMkaDBT27g6itsRyK8f-10" value="" style="edgeStyle=elbowEdgeStyle;rounded=1;orthogonalLoop=1;jettySize=auto;html=1;endArrow=none;endFill=0;strokeColor=#999999;strokeWidth=3;fontFamily=Helvetica;fontSize=18;opacity=30;" parent="1" source="dCMkaDBT27g6itsRyK8f-3" target="dCMkaDBT27g6itsRyK8f-9" edge="1">
          <mxGeometry relative="1" as="geometry" />
        </mxCell>
        <mxCell id="dCMkaDBT27g6itsRyK8f-3" value="" style="ellipse;whiteSpace=wrap;html=1;aspect=fixed;fontColor=#ffffff;fillColor=#f0a30a;strokeWidth=2;strokeColor=#BD7000;" parent="1" vertex="1">
          <mxGeometry x="401" y="340" width="10" height="10" as="geometry" />
        </mxCell>
        <mxCell id="dCMkaDBT27g6itsRyK8f-5" value="Touch Typing" style="rounded=1;whiteSpace=wrap;html=1;strokeColor=#C73500;strokeWidth=2;fillColor=#fa6800;fontColor=#ffffff;fontStyle=1" parent="1" vertex="1">
          <mxGeometry x="525" y="280" width="160" height="30" as="geometry" />
        </mxCell>
        <mxCell id="dCMkaDBT27g6itsRyK8f-7" value="&lt;ul&gt;&lt;li&gt;Use https://www.typing.com/ to help them learn typing with all 10 fingers.&lt;/li&gt;&lt;li&gt;Kids will be acquainted with touchscreens more than keyboards. Learning how to type with 10 fingers will teach them to be fast on the computer.&lt;br&gt;&lt;/li&gt;&lt;/ul&gt;" style="rounded=0;whiteSpace=wrap;html=1;strokeWidth=1;align=left;strokeColor=none;fillColor=#E6E6E6;verticalAlign=top;spacing=0;spacingLeft=-23;spacingRight=4;" parent="1" vertex="1">
          <mxGeometry x="525" y="330" width="180" height="150" as="geometry" />
        </mxCell>
        <mxCell id="dCMkaDBT27g6itsRyK8f-8" value="Y1" style="text;html=1;align=center;verticalAlign=middle;resizable=0;points=[];autosize=1;fontSize=18;fontFamily=Helvetica;fillColor=#f0a30a;strokeColor=#BD7000;fontColor=#ffffff;" parent="1" vertex="1">
          <mxGeometry x="690" y="280" width="40" height="30" as="geometry" />
        </mxCell>
        <mxCell id="T3fCoR8DOI1882rIEYq2-2" value="" style="edgeStyle=orthogonalEdgeStyle;rounded=0;orthogonalLoop=1;jettySize=auto;html=1;strokeWidth=3;strokeColor=#999999;opacity=30;endArrow=none;endFill=0;" edge="1" parent="1" source="dCMkaDBT27g6itsRyK8f-9" target="T3fCoR8DOI1882rIEYq2-1">
          <mxGeometry relative="1" as="geometry" />
        </mxCell>
        <mxCell id="T3fCoR8DOI1882rIEYq2-4" value="" style="edgeStyle=elbowEdgeStyle;rounded=1;orthogonalLoop=1;jettySize=auto;html=1;strokeWidth=3;opacity=30;strokeColor=#999999;endArrow=none;endFill=0;entryX=1;entryY=0.5;entryDx=0;entryDy=0;" edge="1" parent="1" source="dCMkaDBT27g6itsRyK8f-9" target="T3fCoR8DOI1882rIEYq2-5">
          <mxGeometry relative="1" as="geometry">
            <mxPoint x="265" y="460" as="targetPoint" />
          </mxGeometry>
        </mxCell>
        <mxCell id="dCMkaDBT27g6itsRyK8f-9" value="" style="ellipse;whiteSpace=wrap;html=1;aspect=fixed;fontColor=#ffffff;fillColor=#f0a30a;strokeWidth=2;strokeColor=#BD7000;" parent="1" vertex="1">
          <mxGeometry x="401" y="470" width="10" height="10" as="geometry" />
        </mxCell>
        <mxCell id="T3fCoR8DOI1882rIEYq2-9" value="" style="edgeStyle=elbowEdgeStyle;rounded=1;orthogonalLoop=1;jettySize=auto;html=1;endArrow=none;endFill=0;strokeColor=#999999;strokeWidth=3;opacity=30;" edge="1" parent="1" source="T3fCoR8DOI1882rIEYq2-1" target="T3fCoR8DOI1882rIEYq2-8">
          <mxGeometry relative="1" as="geometry" />
        </mxCell>
        <mxCell id="T3fCoR8DOI1882rIEYq2-13" style="edgeStyle=elbowEdgeStyle;rounded=1;orthogonalLoop=1;jettySize=auto;html=1;entryX=0;entryY=0.5;entryDx=0;entryDy=0;endArrow=none;endFill=0;strokeColor=#999999;strokeWidth=3;opacity=30;" edge="1" parent="1" source="T3fCoR8DOI1882rIEYq2-1" target="T3fCoR8DOI1882rIEYq2-10">
          <mxGeometry relative="1" as="geometry" />
        </mxCell>
        <mxCell id="T3fCoR8DOI1882rIEYq2-1" value="" style="ellipse;whiteSpace=wrap;html=1;aspect=fixed;fillColor=#d80073;strokeWidth=2;strokeColor=#A50040;fontColor=#ffffff;" vertex="1" parent="1">
          <mxGeometry x="401" y="610" width="10" height="10" as="geometry" />
        </mxCell>
        <mxCell id="T3fCoR8DOI1882rIEYq2-5" value="Let them use it for a year" style="rounded=1;whiteSpace=wrap;html=1;strokeColor=#C73500;strokeWidth=2;fillColor=#fa6800;fontColor=#ffffff;fontStyle=1" vertex="1" parent="1">
          <mxGeometry x="162.5" y="400" width="160" height="30" as="geometry" />
        </mxCell>
        <mxCell id="T3fCoR8DOI1882rIEYq2-6" value="Y1" style="text;html=1;align=center;verticalAlign=middle;resizable=0;points=[];autosize=1;fontSize=18;fontFamily=Helvetica;fillColor=#f0a30a;strokeColor=#BD7000;fontColor=#ffffff;" vertex="1" parent="1">
          <mxGeometry x="112.5" y="400" width="40" height="30" as="geometry" />
        </mxCell>
        <mxCell id="T3fCoR8DOI1882rIEYq2-7" value="&lt;ul&gt;&lt;li&gt;Computer literacy takes time. Don&#39;t make it the primary goal.&lt;/li&gt;&lt;li&gt;Let them use MS Word, Paint, and whatever they need to be creative. Let them watch YouTube on this as well.&lt;/li&gt;&lt;li&gt;Guide them through installing software. Stand by them, but they are the ones operating it and clicking &quot;Next&quot;.&lt;/li&gt;&lt;li&gt;Let them realise fully that the desktop is theirs and theirs alone.&lt;/li&gt;&lt;/ul&gt;" style="rounded=0;whiteSpace=wrap;html=1;strokeWidth=1;align=left;strokeColor=none;fillColor=#E6E6E6;verticalAlign=top;spacing=0;spacingLeft=-23;spacingRight=4;" vertex="1" parent="1">
          <mxGeometry x="142.5" y="450" width="180" height="220" as="geometry" />
        </mxCell>
        <mxCell id="T3fCoR8DOI1882rIEYq2-21" style="edgeStyle=elbowEdgeStyle;rounded=1;orthogonalLoop=1;jettySize=auto;html=1;entryX=0;entryY=0.5;entryDx=0;entryDy=0;endArrow=none;endFill=0;strokeColor=#999999;strokeWidth=3;fontColor=#FFFFFF;opacity=30;" edge="1" parent="1" source="T3fCoR8DOI1882rIEYq2-8" target="T3fCoR8DOI1882rIEYq2-18">
          <mxGeometry relative="1" as="geometry" />
        </mxCell>
        <mxCell id="T3fCoR8DOI1882rIEYq2-23" value="" style="edgeStyle=elbowEdgeStyle;rounded=1;orthogonalLoop=1;jettySize=auto;html=1;endArrow=none;endFill=0;strokeColor=#999999;strokeWidth=3;fontColor=#FFFFFF;opacity=30;" edge="1" parent="1" source="T3fCoR8DOI1882rIEYq2-8" target="T3fCoR8DOI1882rIEYq2-22">
          <mxGeometry relative="1" as="geometry" />
        </mxCell>
        <mxCell id="T3fCoR8DOI1882rIEYq2-8" value="" style="ellipse;whiteSpace=wrap;html=1;aspect=fixed;fontColor=#ffffff;fillColor=#d80073;strokeWidth=2;strokeColor=#A50040;" vertex="1" parent="1">
          <mxGeometry x="401" y="820" width="10" height="10" as="geometry" />
        </mxCell>
        <mxCell id="T3fCoR8DOI1882rIEYq2-10" value="A Foundation" style="rounded=1;whiteSpace=wrap;html=1;strokeColor=#432D57;strokeWidth=2;fillColor=#76608a;fontColor=#ffffff;fontStyle=1" vertex="1" parent="1">
          <mxGeometry x="512.5" y="540" width="160" height="30" as="geometry" />
        </mxCell>
        <mxCell id="T3fCoR8DOI1882rIEYq2-11" value="&lt;ul&gt;&lt;li&gt;Get them started on MIT&#39;s Scratch.&lt;/li&gt;&lt;li&gt;MIT Scratch teaches the fundamentals of coding without the need to type complex code.&lt;/li&gt;&lt;li&gt;Help them find amazing things built using Scratch on YouTube and on the MIT Website.&lt;/li&gt;&lt;li&gt;Get them a copy of Scratch Programming Playground by Al Sweigart&lt;/li&gt;&lt;/ul&gt;" style="rounded=0;whiteSpace=wrap;html=1;strokeWidth=1;align=left;strokeColor=none;fillColor=#E6E6E6;verticalAlign=top;spacing=0;spacingLeft=-23;spacingRight=4;" vertex="1" parent="1">
          <mxGeometry x="512.5" y="590" width="180" height="210" as="geometry" />
        </mxCell>
        <mxCell id="T3fCoR8DOI1882rIEYq2-12" value="Y2" style="text;html=1;align=center;verticalAlign=middle;resizable=0;points=[];autosize=1;fontSize=18;fontFamily=Helvetica;fillColor=#d0cee2;strokeColor=#56517e;fontColor=#FFFFFF;" vertex="1" parent="1">
          <mxGeometry x="677.5" y="540" width="40" height="30" as="geometry" />
        </mxCell>
        <mxCell id="T3fCoR8DOI1882rIEYq2-17" style="edgeStyle=elbowEdgeStyle;rounded=1;orthogonalLoop=1;jettySize=auto;html=1;entryX=0;entryY=0.5;entryDx=0;entryDy=0;endArrow=none;endFill=0;strokeColor=#999999;strokeWidth=3;fontColor=#FFFFFF;opacity=30;" edge="1" parent="1" source="T3fCoR8DOI1882rIEYq2-14" target="T3fCoR8DOI1882rIEYq2-8">
          <mxGeometry relative="1" as="geometry" />
        </mxCell>
        <mxCell id="T3fCoR8DOI1882rIEYq2-14" value="Finding Information" style="rounded=1;whiteSpace=wrap;html=1;strokeColor=#432D57;strokeWidth=2;fillColor=#76608a;fontColor=#ffffff;fontStyle=1" vertex="1" parent="1">
          <mxGeometry x="156.25" y="700" width="160" height="30" as="geometry" />
        </mxCell>
        <mxCell id="T3fCoR8DOI1882rIEYq2-15" value="&lt;ul&gt;&lt;li&gt;Teach them how to use the Internet to find things.&lt;/li&gt;&lt;li&gt;They might already have discovered a lot, but show them the true power of Google.&lt;/li&gt;&lt;li&gt;Show them how they can find articles on Wikipedia, and videos on YouTube.&lt;/li&gt;&lt;li&gt;Show them how they can find more Scratch Projects.&lt;/li&gt;&lt;/ul&gt;" style="rounded=0;whiteSpace=wrap;html=1;strokeWidth=1;align=left;strokeColor=none;fillColor=#E6E6E6;verticalAlign=top;spacing=0;spacingLeft=-23;spacingRight=4;" vertex="1" parent="1">
          <mxGeometry x="156.25" y="750" width="180" height="180" as="geometry" />
        </mxCell>
        <mxCell id="T3fCoR8DOI1882rIEYq2-16" value="Y2" style="text;html=1;align=center;verticalAlign=middle;resizable=0;points=[];autosize=1;fontSize=18;fontFamily=Helvetica;fillColor=#d0cee2;strokeColor=#56517e;fontColor=#FFFFFF;" vertex="1" parent="1">
          <mxGeometry x="108.75" y="700" width="40" height="30" as="geometry" />
        </mxCell>
        <mxCell id="T3fCoR8DOI1882rIEYq2-18" value="Security and Privacy" style="rounded=1;whiteSpace=wrap;html=1;strokeColor=#432D57;strokeWidth=2;fillColor=#76608a;fontColor=#ffffff;fontStyle=1" vertex="1" parent="1">
          <mxGeometry x="512.5" y="840" width="160" height="30" as="geometry" />
        </mxCell>
        <mxCell id="T3fCoR8DOI1882rIEYq2-19" value="&lt;ul&gt;&lt;li&gt;Teach Kids how to be aware of strangers on the internet.&lt;/li&gt;&lt;li&gt;Teach them to never share photographs or videos.&lt;/li&gt;&lt;li&gt;Teach them to never put their personal details online.&lt;/li&gt;&lt;li&gt;Teach them to never give any information, even their Pet&#39;s name, online.&lt;/li&gt;&lt;/ul&gt;" style="rounded=0;whiteSpace=wrap;html=1;strokeWidth=1;align=left;strokeColor=none;fillColor=#E6E6E6;verticalAlign=top;spacing=0;spacingLeft=-23;spacingRight=4;" vertex="1" parent="1">
          <mxGeometry x="512.5" y="890" width="180" height="170" as="geometry" />
        </mxCell>
        <mxCell id="T3fCoR8DOI1882rIEYq2-20" value="Y2" style="text;html=1;align=center;verticalAlign=middle;resizable=0;points=[];autosize=1;fontSize=18;fontFamily=Helvetica;fillColor=#d0cee2;strokeColor=#56517e;fontColor=#FFFFFF;" vertex="1" parent="1">
          <mxGeometry x="677.5" y="840" width="40" height="30" as="geometry" />
        </mxCell>
        <mxCell id="T3fCoR8DOI1882rIEYq2-27" style="edgeStyle=elbowEdgeStyle;rounded=1;orthogonalLoop=1;jettySize=auto;html=1;entryX=1;entryY=0.5;entryDx=0;entryDy=0;endArrow=none;endFill=0;strokeColor=#999999;strokeWidth=3;fontColor=#FFFFFF;opacity=30;" edge="1" parent="1" source="T3fCoR8DOI1882rIEYq2-22" target="T3fCoR8DOI1882rIEYq2-24">
          <mxGeometry relative="1" as="geometry" />
        </mxCell>
        <mxCell id="T3fCoR8DOI1882rIEYq2-29" value="" style="edgeStyle=elbowEdgeStyle;rounded=1;orthogonalLoop=1;jettySize=auto;html=1;endArrow=none;endFill=0;strokeColor=#999999;strokeWidth=3;fontColor=#FFFFFF;opacity=30;" edge="1" parent="1" source="T3fCoR8DOI1882rIEYq2-22" target="T3fCoR8DOI1882rIEYq2-28">
          <mxGeometry relative="1" as="geometry" />
        </mxCell>
        <mxCell id="T3fCoR8DOI1882rIEYq2-22" value="" style="ellipse;whiteSpace=wrap;html=1;aspect=fixed;fontColor=#ffffff;fillColor=#d80073;strokeWidth=2;strokeColor=#A50040;" vertex="1" parent="1">
          <mxGeometry x="401" y="1060" width="10" height="10" as="geometry" />
        </mxCell>
        <mxCell id="T3fCoR8DOI1882rIEYq2-24" value="Minecraft" style="rounded=1;whiteSpace=wrap;html=1;strokeColor=#432D57;strokeWidth=2;fillColor=#76608a;fontColor=#ffffff;fontStyle=1" vertex="1" parent="1">
          <mxGeometry x="142.5" y="970" width="160" height="30" as="geometry" />
        </mxCell>
        <mxCell id="T3fCoR8DOI1882rIEYq2-25" value="&lt;ul&gt;&lt;li&gt;If your kid hasn&#39;t already, introduce them to Minecraft.&lt;/li&gt;&lt;li&gt;Let them build imaginary worlds in the computer.&lt;/li&gt;&lt;li&gt;Minecraft is Lego on a computer.&lt;/li&gt;&lt;/ul&gt;" style="rounded=0;whiteSpace=wrap;html=1;strokeWidth=1;align=left;strokeColor=none;fillColor=#E6E6E6;verticalAlign=top;spacing=0;spacingLeft=-23;spacingRight=4;" vertex="1" parent="1">
          <mxGeometry x="142.5" y="1020" width="180" height="120" as="geometry" />
        </mxCell>
        <mxCell id="T3fCoR8DOI1882rIEYq2-26" value="Y2" style="text;html=1;align=center;verticalAlign=middle;resizable=0;points=[];autosize=1;fontSize=18;fontFamily=Helvetica;fillColor=#d0cee2;strokeColor=#56517e;fontColor=#FFFFFF;" vertex="1" parent="1">
          <mxGeometry x="90" y="970" width="40" height="30" as="geometry" />
        </mxCell>
        <mxCell id="T3fCoR8DOI1882rIEYq2-33" style="edgeStyle=elbowEdgeStyle;rounded=1;orthogonalLoop=1;jettySize=auto;html=1;entryX=0;entryY=0.5;entryDx=0;entryDy=0;endArrow=none;endFill=0;strokeColor=#999999;strokeWidth=3;fontColor=#FFFFFF;opacity=30;" edge="1" parent="1" source="T3fCoR8DOI1882rIEYq2-28" target="T3fCoR8DOI1882rIEYq2-30">
          <mxGeometry relative="1" as="geometry" />
        </mxCell>
        <mxCell id="T3fCoR8DOI1882rIEYq2-35" value="" style="edgeStyle=elbowEdgeStyle;rounded=1;orthogonalLoop=1;jettySize=auto;html=1;endArrow=none;endFill=0;strokeColor=#999999;strokeWidth=3;fontColor=#FFFFFF;opacity=30;" edge="1" parent="1" source="T3fCoR8DOI1882rIEYq2-28" target="T3fCoR8DOI1882rIEYq2-34">
          <mxGeometry relative="1" as="geometry" />
        </mxCell>
        <mxCell id="T3fCoR8DOI1882rIEYq2-28" value="" style="ellipse;whiteSpace=wrap;html=1;aspect=fixed;fontColor=#ffffff;fillColor=#d80073;strokeWidth=2;strokeColor=#A50040;" vertex="1" parent="1">
          <mxGeometry x="401" y="1200" width="10" height="10" as="geometry" />
        </mxCell>
        <mxCell id="T3fCoR8DOI1882rIEYq2-30" value="Programming with Minecraft" style="rounded=1;whiteSpace=wrap;html=1;strokeColor=#432D57;strokeWidth=2;fillColor=#76608a;fontColor=#ffffff;fontStyle=1" vertex="1" parent="1">
          <mxGeometry x="502.5" y="1110" width="160" height="30" as="geometry" />
        </mxCell>
        <mxCell id="T3fCoR8DOI1882rIEYq2-31" value="&lt;ul&gt;&lt;li&gt;After spending at least a month with Minecraft, and at least 3-6 on Scratch, introduce them to a book called Coding with Minecraft by Al Sweigart.&lt;/li&gt;&lt;li&gt;This is not a joke.&lt;/li&gt;&lt;/ul&gt;" style="rounded=0;whiteSpace=wrap;html=1;strokeWidth=1;align=left;strokeColor=none;fillColor=#E6E6E6;verticalAlign=top;spacing=0;spacingLeft=-23;spacingRight=4;" vertex="1" parent="1">
          <mxGeometry x="502.5" y="1160" width="180" height="170" as="geometry" />
        </mxCell>
        <mxCell id="T3fCoR8DOI1882rIEYq2-32" value="Y2" style="text;html=1;align=center;verticalAlign=middle;resizable=0;points=[];autosize=1;fontSize=18;fontFamily=Helvetica;fillColor=#d0cee2;strokeColor=#56517e;fontColor=#FFFFFF;" vertex="1" parent="1">
          <mxGeometry x="667.5" y="1110" width="40" height="30" as="geometry" />
        </mxCell>
        <mxCell id="T3fCoR8DOI1882rIEYq2-42" value="" style="edgeStyle=elbowEdgeStyle;rounded=1;orthogonalLoop=1;jettySize=auto;html=1;endArrow=none;endFill=0;strokeColor=#999999;strokeWidth=3;fontColor=#FFFFFF;opacity=30;" edge="1" parent="1" source="T3fCoR8DOI1882rIEYq2-34" target="T3fCoR8DOI1882rIEYq2-41">
          <mxGeometry relative="1" as="geometry" />
        </mxCell>
        <mxCell id="T3fCoR8DOI1882rIEYq2-34" value="" style="ellipse;whiteSpace=wrap;html=1;aspect=fixed;fillColor=#1ba1e2;strokeWidth=2;strokeColor=#006EAF;fontColor=#ffffff;" vertex="1" parent="1">
          <mxGeometry x="401" y="1330" width="10" height="10" as="geometry" />
        </mxCell>
        <mxCell id="T3fCoR8DOI1882rIEYq2-40" style="edgeStyle=elbowEdgeStyle;rounded=1;orthogonalLoop=1;jettySize=auto;html=1;entryX=0;entryY=0.5;entryDx=0;entryDy=0;endArrow=none;endFill=0;strokeColor=#999999;strokeWidth=3;fontColor=#FFFFFF;opacity=30;" edge="1" parent="1" source="T3fCoR8DOI1882rIEYq2-37" target="T3fCoR8DOI1882rIEYq2-34">
          <mxGeometry relative="1" as="geometry" />
        </mxCell>
        <mxCell id="T3fCoR8DOI1882rIEYq2-37" value="Python" style="rounded=1;whiteSpace=wrap;html=1;strokeColor=#001DBC;strokeWidth=2;fillColor=#0050ef;fontColor=#ffffff;fontStyle=1" vertex="1" parent="1">
          <mxGeometry x="148.75" y="1250" width="160" height="30" as="geometry" />
        </mxCell>
        <mxCell id="T3fCoR8DOI1882rIEYq2-38" value="&lt;ul&gt;&lt;li&gt;Once your child has spent 2 years with their computer, and at least 1 with scratch and coding with Minecraft, it is time for Python.&lt;/li&gt;&lt;li&gt;inventwithpython.com is the best resource to introduce kids to Python.&lt;/li&gt;&lt;/ul&gt;" style="rounded=0;whiteSpace=wrap;html=1;strokeWidth=1;align=left;strokeColor=none;fillColor=#E6E6E6;verticalAlign=top;spacing=0;spacingLeft=-23;spacingRight=4;" vertex="1" parent="1">
          <mxGeometry x="136.25" y="1300" width="180" height="140" as="geometry" />
        </mxCell>
        <mxCell id="T3fCoR8DOI1882rIEYq2-39" value="Y3" style="text;html=1;align=center;verticalAlign=middle;resizable=0;points=[];autosize=1;fontSize=18;fontFamily=Helvetica;fillColor=#e3c800;strokeColor=#B09500;fontColor=#ffffff;" vertex="1" parent="1">
          <mxGeometry x="96.25" y="1250" width="40" height="30" as="geometry" />
        </mxCell>
        <mxCell id="T3fCoR8DOI1882rIEYq2-46" style="edgeStyle=elbowEdgeStyle;rounded=1;orthogonalLoop=1;jettySize=auto;html=1;entryX=0;entryY=0.5;entryDx=0;entryDy=0;endArrow=none;endFill=0;strokeColor=#999999;strokeWidth=3;fontColor=#FFFFFF;opacity=30;" edge="1" parent="1" source="T3fCoR8DOI1882rIEYq2-41" target="T3fCoR8DOI1882rIEYq2-43">
          <mxGeometry relative="1" as="geometry" />
        </mxCell>
        <mxCell id="T3fCoR8DOI1882rIEYq2-49" value="" style="edgeStyle=elbowEdgeStyle;rounded=1;orthogonalLoop=1;jettySize=auto;html=1;endArrow=none;endFill=0;strokeColor=#999999;strokeWidth=3;fontColor=#FFFFFF;opacity=30;" edge="1" parent="1" source="T3fCoR8DOI1882rIEYq2-41" target="T3fCoR8DOI1882rIEYq2-48">
          <mxGeometry relative="1" as="geometry" />
        </mxCell>
        <mxCell id="T3fCoR8DOI1882rIEYq2-41" value="" style="ellipse;whiteSpace=wrap;html=1;aspect=fixed;fillColor=#1ba1e2;strokeWidth=2;strokeColor=#006EAF;fontColor=#ffffff;" vertex="1" parent="1">
          <mxGeometry x="401" y="1510" width="10" height="10" as="geometry" />
        </mxCell>
        <mxCell id="T3fCoR8DOI1882rIEYq2-43" value="Relearn Math with Python" style="rounded=1;whiteSpace=wrap;html=1;strokeColor=#001DBC;strokeWidth=2;fillColor=#0050ef;fontColor=#ffffff;fontStyle=1" vertex="1" parent="1">
          <mxGeometry x="495" y="1380" width="160" height="30" as="geometry" />
        </mxCell>
        <mxCell id="T3fCoR8DOI1882rIEYq2-44" value="&lt;ul&gt;&lt;li&gt;Let your child explore what they&#39;ve learned for the rest of the year.&lt;/li&gt;&lt;li&gt;Help your child learn mathematics through Python.&lt;/li&gt;&lt;li&gt;Build a Calculator.&lt;/li&gt;&lt;li&gt;Build a game.&lt;/li&gt;&lt;li&gt;At this point, help them understand logic. Logic is a hard subject that needs understanding.&lt;/li&gt;&lt;/ul&gt;" style="rounded=0;whiteSpace=wrap;html=1;strokeWidth=1;align=left;strokeColor=none;fillColor=#E6E6E6;verticalAlign=top;spacing=0;spacingLeft=-23;spacingRight=4;" vertex="1" parent="1">
          <mxGeometry x="497.5" y="1430" width="180" height="180" as="geometry" />
        </mxCell>
        <mxCell id="T3fCoR8DOI1882rIEYq2-45" value="Y3" style="text;html=1;align=center;verticalAlign=middle;resizable=0;points=[];autosize=1;fontSize=18;fontFamily=Helvetica;fillColor=#e3c800;strokeColor=#B09500;fontColor=#ffffff;" vertex="1" parent="1">
          <mxGeometry x="667.5" y="1380" width="40" height="30" as="geometry" />
        </mxCell>
        <mxCell id="T3fCoR8DOI1882rIEYq2-57" style="edgeStyle=elbowEdgeStyle;rounded=1;orthogonalLoop=1;jettySize=auto;html=1;entryX=0;entryY=0.5;entryDx=0;entryDy=0;endArrow=none;endFill=0;strokeColor=#999999;strokeWidth=3;fontColor=#FFFFFF;opacity=30;exitX=1;exitY=0.5;exitDx=0;exitDy=0;" edge="1" parent="1" source="T3fCoR8DOI1882rIEYq2-58" target="T3fCoR8DOI1882rIEYq2-54">
          <mxGeometry relative="1" as="geometry" />
        </mxCell>
        <mxCell id="T3fCoR8DOI1882rIEYq2-59" value="" style="edgeStyle=elbowEdgeStyle;rounded=1;orthogonalLoop=1;jettySize=auto;html=1;endArrow=none;endFill=0;strokeColor=#999999;strokeWidth=3;fontColor=#FFFFFF;opacity=30;" edge="1" parent="1" source="T3fCoR8DOI1882rIEYq2-48" target="T3fCoR8DOI1882rIEYq2-58">
          <mxGeometry relative="1" as="geometry" />
        </mxCell>
        <mxCell id="T3fCoR8DOI1882rIEYq2-48" value="" style="ellipse;whiteSpace=wrap;html=1;aspect=fixed;strokeWidth=2;fillColor=#60a917;strokeColor=#2D7600;fontColor=#ffffff;" vertex="1" parent="1">
          <mxGeometry x="401" y="1610" width="10" height="10" as="geometry" />
        </mxCell>
        <mxCell id="T3fCoR8DOI1882rIEYq2-53" style="edgeStyle=elbowEdgeStyle;rounded=1;orthogonalLoop=1;jettySize=auto;html=1;entryX=0;entryY=0.5;entryDx=0;entryDy=0;endArrow=none;endFill=0;strokeColor=#999999;strokeWidth=3;fontColor=#FFFFFF;opacity=30;" edge="1" parent="1" source="T3fCoR8DOI1882rIEYq2-50" target="T3fCoR8DOI1882rIEYq2-48">
          <mxGeometry relative="1" as="geometry" />
        </mxCell>
        <mxCell id="T3fCoR8DOI1882rIEYq2-50" value="Electronics" style="rounded=1;whiteSpace=wrap;html=1;strokeColor=#A50040;strokeWidth=2;fillColor=#d80073;fontColor=#ffffff;fontStyle=1" vertex="1" parent="1">
          <mxGeometry x="155" y="1530" width="160" height="30" as="geometry" />
        </mxCell>
        <mxCell id="T3fCoR8DOI1882rIEYq2-51" value="&lt;ul&gt;&lt;li&gt;Remember that tech literacy is what is important, and not perfect coding skills.&lt;/li&gt;&lt;li&gt;Introduce your child to electronics. This is the time to get them their first kit.&lt;/li&gt;&lt;li&gt;Get them a bunch of LEDs, a breadboard, some wire, a tester, battery kit and a multimeter.&lt;/li&gt;&lt;li&gt;And a screwdriver set.&lt;/li&gt;&lt;li&gt;Tip: Earlier on, get your child a Mechanix kit. Preferably earlier to even starting this journey.&lt;/li&gt;&lt;/ul&gt;" style="rounded=0;whiteSpace=wrap;html=1;strokeWidth=1;align=left;strokeColor=none;fillColor=#E6E6E6;verticalAlign=top;spacing=0;spacingLeft=-23;spacingRight=4;" vertex="1" parent="1">
          <mxGeometry x="142.5" y="1580" width="180" height="240" as="geometry" />
        </mxCell>
        <mxCell id="T3fCoR8DOI1882rIEYq2-52" value="Y4" style="text;html=1;align=center;verticalAlign=middle;resizable=0;points=[];autosize=1;fontSize=18;fontFamily=Helvetica;fillColor=#6d8764;strokeColor=#3A5431;fontColor=#ffffff;" vertex="1" parent="1">
          <mxGeometry x="102.5" y="1530" width="40" height="30" as="geometry" />
        </mxCell>
        <mxCell id="T3fCoR8DOI1882rIEYq2-54" value="The Raspberry Pi" style="rounded=1;whiteSpace=wrap;html=1;strokeColor=#A50040;strokeWidth=2;fillColor=#d80073;fontColor=#ffffff;fontStyle=1" vertex="1" parent="1">
          <mxGeometry x="495" y="1660" width="160" height="30" as="geometry" />
        </mxCell>
        <mxCell id="T3fCoR8DOI1882rIEYq2-55" value="&lt;ul&gt;&lt;li&gt;This is the time you get your child their first, and maybe not their first Raspberry Pi.&lt;/li&gt;&lt;li&gt;Get them a Raspberry Pi Zero W.&lt;/li&gt;&lt;li&gt;Also get a Raspberry Pi Enviro pHat.&lt;/li&gt;&lt;li&gt;Finally, get them a soldering iron and some lead free-solder and some jumper cables.&lt;/li&gt;&lt;li&gt;They should be able to figure out how to do something with the Pi by themselves.&lt;/li&gt;&lt;li&gt;At this point, your child knows enough tech, or you know that your child has given it a go and is not interested in a life in technology.&lt;/li&gt;&lt;/ul&gt;" style="rounded=0;whiteSpace=wrap;html=1;strokeWidth=1;align=left;strokeColor=none;fillColor=#E6E6E6;verticalAlign=top;spacing=0;spacingLeft=-23;spacingRight=4;" vertex="1" parent="1">
          <mxGeometry x="495" y="1710" width="180" height="290" as="geometry" />
        </mxCell>
        <mxCell id="T3fCoR8DOI1882rIEYq2-56" value="Y4" style="text;html=1;align=center;verticalAlign=middle;resizable=0;points=[];autosize=1;fontSize=18;fontFamily=Helvetica;fillColor=#6d8764;strokeColor=#3A5431;fontColor=#ffffff;" vertex="1" parent="1">
          <mxGeometry x="672.5" y="1660" width="40" height="30" as="geometry" />
        </mxCell>
        <mxCell id="T3fCoR8DOI1882rIEYq2-58" value="" style="ellipse;whiteSpace=wrap;html=1;aspect=fixed;strokeWidth=2;fillColor=#60a917;strokeColor=#2D7600;fontColor=#ffffff;" vertex="1" parent="1">
          <mxGeometry x="401" y="1770" width="10" height="10" as="geometry" />
        </mxCell>
        <mxCell id="T3fCoR8DOI1882rIEYq2-60" value="&lt;h1&gt;Notes&lt;/h1&gt;&lt;p&gt;Note that these are &lt;i&gt;loose&lt;/i&gt;&amp;nbsp;guidelines. The objective is not to make a coder out of your child, but to give them the tools to help them make a decision themselves in a world full of technology. Define your start and end year yourselves based on the individual nature of your child (and not based on your goals for your child).&lt;/p&gt;&lt;p&gt;If your child uses the computer to draw more than to code, buy them a Wacom Tablet. You&#39;re probably sitting on a great artist or architect. Or introduce them to Google Sketchup and Blender.&lt;/p&gt;&lt;p&gt;If they want to record music, buy them a microphone.&lt;/p&gt;&lt;p&gt;If they want to read free books on their computer, introduce them to Project Gutenberg and maybe encourage them to write book reviews or summaries on a private blog. Maybe your kid could be the next Neil Gaiman.&lt;/p&gt;&lt;p&gt;Let them own the computer. Please. That&#39;s how they will learn. That&#39;s how I learnt. That&#39;s how we all learn.&lt;/p&gt;&lt;p&gt;And steer clear of paid coding bootcamps for children. They don&#39;t need it.&lt;/p&gt;" style="text;html=1;spacing=5;spacingTop=-20;whiteSpace=wrap;overflow=hidden;rounded=0;strokeColor=#000000;" vertex="1" parent="1">
          <mxGeometry x="70" y="1840" width="380" height="360" as="geometry" />
        </mxCell>
        <mxCell id="T3fCoR8DOI1882rIEYq2-61" value="stonecharioteer.com/tech-literacy.html" style="shape=image;verticalLabelPosition=bottom;labelBackgroundColor=#ffffff;verticalAlign=top;aspect=fixed;imageAspect=0;image=data:image/png,iVBORw0KGgoAAAANSUhEUgAAAggAAAC7CAYAAAAAPWaRAAAgAElEQVR4Xux9B5xV5bX9Ov3eO3cqZWDoSBUQEBULKirWJBYSLDHFFEvyUtVoNMkLqXYTExPTNGo0auy9xS5gLygIgoB0ZmDqraf+f2t/d4j5570XIw5Svpvwm3Huved+Z50zs9e399prG9APjcD7RcAAkLzfF+vX7dQI6Hul5y7/zoztznzuPXdH/a9HJtz6oRHQCGgENAIaAY2ARuCfENAEQd8QGgGNgEZAI6AR0Aj8CwKaIOibQiOgEdAIaAQ0AhoBTRA+1HtA18M+VDj1wTQCGgGNgEZg20FAZxB66lpo8tBTyOrjagQ0AhoBjcBWQEAThK0Asv4IjYBGoIcQ2BaI+Lawhh6CVx9250ZAE4Sd+/rrs9cIaAQ0AhoBjcD/iIAmCPrG0AhoBDQCGgGNgEbgXxDQBEHfFBoBjYBGQCOgEdAIaIKg7wGNgEZAI6AR0AhoBP49AjqD8O8x0q/YUgS0iGtLEdTv1whoBDQCWx0BTRB6EnIdGHsSXX1sjYBGQCOgEehBBDRB6EFw9aE1AhoBjYBGQCOwvSKgCcL2euX0ujUCGgGNgEZAI9CDCGiC0IPg6kNrBDQC2ykCujy4nV44vewPEwFNED5MNPWxNAIaAY2ARkAjsIMgoAnCDnIh9WloBD4QAnqn/IFg02/SCOwMCGiCsDNcZX2OGgGNgEZAI6AR+A8R0AThPwRMv1wjsE0goHf+28Rl0Iv4ZwRmzZpl3XrrrREAiS2zZs0yb7311hhAorHa/hDQBGH7u2Z6xRoBjYBGYKshcNoUOE0vI5oNJFOmwH75ZYSVgP9eEpBMnz7dBWAXi0UznU67lmUlmUzGKBQKiWmaXiqVar/33nvLlfeSNOjHNo6AJgjb+AXSy9MIaAQ0Av8OgSRRO3Y+DEPt1pNktmkYs+N/+Tp7tvly/5dTF11xbzjj+Cn20OG9svnO9iiMPXPhK6uCV5bkRqSqU31Xrsn1Xbeh0FEOYZXDyC6VYLrpdLVtwokDxMVyuWA7TioISq4BY6LtpdNRFIWOZTmGZVmWYVhhGPpuKpUNw7BkJElS8v1UqVSaSiLxL0mF9+QY+K2hzqhgGJgTx2gH8AaAPwAI/h0e+vkPBwFNED4cHPVRNAIaAY3AB0XAAvBJAHcAsjv/Hx9PPDHdPuigJ8OBQDpohDl1BMx0Tf+jH3iq2esqRMnuY7JuXY3nbOosT1+/oTCpVEZiWjCiKHG7ikm1ARiJRF45vM0vpmkYEohJMOTnBkwkdiKvNbgueZIEpPutfD2/r/IcCeKGaWKXQY3wXBNxbMK2gShW0T4MAcvka8haEiRxgn0nj0PKdRBFIUzw9fxgI7EdSy2Ci6x8yMJ3VuLdtS08VDTvjWX8ejiAxz8o0Pp9/xkCmiD8Z3h9eK/WNeQPD0t9JI3A9o3ACANY6NimxbgaxUmIJFmXADnDwBAA6crpVUI446eRmIaBlGehNusFlunYnmuYjLCmYWHsiP4JEsMMwxiWBdRWO7BtG74fw7YSxHEM17YlaMdRAj+IYZokDEBN1oNteRjQ2IAk9uU5vi9bZSEKDTiugySJGdOFKfA9YczgbiOdcYUMkBSUyqwiRLBMUwiFbScIAgNl34BpmigWI2Q8G3EYyUH4unTKla9CPAyTBIbnigVLV+HS6+4rJAn2BLBw+77c28/qNUHYfq6VXun/j4AmWfqe2DEQsC3TLH//tGPNYQMbUfZ9vLt2Aza2t2PciIFoqEvBNg24HnfkCRw7kgAbxRaShLv7SAK+ZRsIyiH8IIRpWgiCCLbNIJvA90NEUQzDSCTgMvj6fiLPBUGIYilEFAOe5yCMIgnQruOgWPLheSbCMEIQ8LP5fIh02kG5HCKOAdMCkpjEwRLyQHIwf/EavL1sgwR4/mNmIgwixEIsDMSJAcRAsZzAcwHfZ+7AkGxCynNx3CF7wbIsuK4r5/raouW44saHOpMEYwGs3TEu+7Z/FpogbPvXSK9QI6AR2MERqM+m4tOPP8wYM3wALCtGJqOCNIOjaURIpOxuI4oiWBb34yQGppCA5tYc3l3dgiUrN6GjswjHNnH84ROZ15fX2bYiEkEYQRL9ksE34PsBLEsdI2QyQMVuRHEIxnTTcpFEoZQkyr7KMOS7yvBSDhJYkl3gGqIwhmklsB0H5TBEV1cRqZSNrOfAtEgQLCE2YGIEJBI2UmkHgR/DD0h0TCSJjUI+EAKSckxkUikpXWSq0pL5eOrFBfjz3U+3ApJRye3gt8M2c3ofDUHQO79t5gbQC9EIaAQ+egT2mzjSHzawrzNjn93guAnSqRiOw+Aa4/nXVmBTu4qJ3K3zz2fZDyW4M9oPaKxFQ22G2gEhATfe+wreXNoMx7ZQnfVQX5ORfynPRhjFWPpuC+KYxQVRMmJjR1G0AZX/3AyGyADUi8AqgG1V1I/yTiVZqLxLvUfKDQayaRft+TK++PEJ6FNfBdMyEYcsMZBIWJKpIAFxXVsRlwh4c0krunI+Up6HumwaXiqFmmwao4cPEjLz6Lw3cPND85oBNH6oV0vHov8Tzo+GIHyoV1gfTCOgEdAIbN8ITJ8y+iXXc6Z85hMHwjRMpNMBHCdBzAidJBJUlZKQGQBftvq2ZSKKEuTyJZSoSIwTLF7RjNsemY9zv3gQ/DBCZ66M5tZOrFrXho3tRQnrE0cNQNqzJXCnUhaqUhQM8vAsVURCCkzbAuIEEZlBJUowUDMTkLCuYJC8VLSELHNUCAf1DFzrZX99DicfPg5NfbJS5oijWF4TG0CanxdG8vnMEvC5OFZZiTiy4bkustmMEINsNiulhlsffR4PPvPaYkBKDBU6sn1f8+1h9ZogbA9XSa/xgyOgdwgfHDv9zp5E4J/uTNuybp2x97hPnXTU/rAdmzkCuC5EW0DtAGNy4Jdh2fxakt03dQUMqn65DNNIJKvwwhsr8driNfjCMVMQUHgo9X7u3k34ZaVVYKdBkpBqxNJxwKwCRYckCdQkUKfA5/mVJCCOVKaAC2ZXAt/D/xBlAasYkojgcZXWgJ976Y1z8cmDx6CxPiskhpkPCib5fEtbJ7oKZSk/sPwxcnAfrG8pYv3GPEzLFkLguQ4mjBqKmmwGlm3hnidexpzX3l7W1LfvV+1Uyo3jOGxubu7kZ0dR1Mf3/TEAhgF4G8DDAN7syYu3sxx76xEE/Yd6Z7mn9HlqBDQCKn72AdCrkhZnWKWREHsHreoqq9azTS+Kkqb2YrR3GCWHN/WpM2uq0pJ2X9/SKh0GPEh9bZWUGBjAmRVg0P+H68E/oGbZgGWAvXYdiOm7j1BlAHYQxAHWt+bkuFJaiEk8VNBPEKGpT428L4qVUNAwSBgSeS9LARQU8iNJAFjyUISAJQdV8mBZgcclEYgTExs25fCne15CNuXIc3IWlf5KHpcZhGw6JQQkiGJ0dBVFEFmV9iRrQN0FiUxnrigZFK4prhQzLDmeerBlg/8ngcqkPdRWV2HVuo1JV6FEwcauAN7RN+KWIbD1CMKWrVO/WyOgEdAIbA8IkAgsJxkwDLiWaZIUeN0bbmn45w8cS4KvZRmYMGKwBL3RQ5uQdpn6t8RjgJGcOoMNmzphxBEyKUcFRrYRWswCQDIKccTvKRi0cMeTr2HPsQMxYmCjBFsJ9AaJRSypfNmnSamA2YQEjsMUgGorVMcmgaBCkStie0J3NGY4ZkbBltdSKElxI8lEdXUaUeiL/sH3bSxcthbPzl+Gzx01VcogtsOfK5JAkkGRIo+VyaiMQ7GYwPNcGFZK/puY8H9hpWzBbIlkCsIIjkNrBgOewxZNxTs8x0Tac0RzccO9z+DxFxe+AGBf6bHUjy1CQBOELYJPv1kjoBHQCPwTAlWWaXQdtf8kY/jAvuhVVy07W+6KHQZLS3UPsBuhXPYRhqEE7SAIJJgz+haKZSxcvhYRnzO4m6YuQO2kSQ4YCLt32k19apHNpOV4fPuD8xagOuNh2sRdJHoKSYiZDVA7b3YUSLCNI6xcx6YAFQLYdSiywwqpKJaVpoFZBK6B64ziGGOHNSXia5CQLAhRMaSzwmapI5BOhpcWrsBrS9bgy8fuL3oKtkXy/Hk86g7EjKnyOd0MxHY8GBbJh1oPiQVbIrvlkBs2tqOts0s6NEiOaKqUcj0wozBiSF9kvLSs57q7nsKzry56NoyS/fV9ueUIaIKw5RjqI2gENAJEQJcR5T7wbCs+98vHGMMH/kNwz+DIoMzAWiwWUSgUELG9MAoR+L4ExjBUAdYwVFsiCYIEb9VKUAmeqvuAgZ5peL4voG8B0/BxghfeWoH2zgJm7DlakQGDpkUGLNuWHThr/n4QyOtJCkQ4yNoFU/sWjykiRCYZNpOHbr3B5pu8YmCkFsdDsbzADgUbtuvg2VfexuKV63HGrBnw/bJkHTb3O8SRnCOzFFI+MFTZgwTCptFDwmwCOxxUdqBUqmgeEqC+LkGpTMJjwmVOBspUyaZmQTILFq65/Uk88/KiJ+ffsuvh445f6OtfzC1DQBOELcNPv1sjoBHQCPwTArZpROedeqw5ckijBHf6GpRLAco+g6EyLOrs6BRtQKnE0gADOH0F6CWg6u9KP1BpJZTEQoQwpOkRywTKlIiivwTKx4D1f9sxsGzNRtz7zEJ8/fhpUjqQ3bpJYyWSE0NcE0WAaDIrYMKxAyl6+GVlwkQBommr97HEwZIAywmWTQMkHoNkgn4M9EUw4Ti2HLtUMlCV9WA5Bu57/C0sWb0RXz9pf0V24MB1fPihizgqw7YdETKWyzEWrViHDRvbREjp2PwsRQhch06MgONU9BICSYJiSZlE0UHywL12RZ+GOikxVKVVqeQX1z6GRctW3LOpMznmPZMl9R36ARHQBOEDAqffphHQCOy8CHQPQFI7fBhLHzzStVynLvIDZ9LMh5ececqRqd1G95P6umH4mPPK24gi7nYZ0AOUywE6uvIShJWdMMWATKtXXBKp/K+4HvIzaBY0efSASmcBgze1Cty1u2hrz2P+kg0STFva8pj3xiocc+DYzaJEBlYSAx6PEkmWC5j6J6EIA6b9lVxRkQGuL4brJkJAgsgQZ0Y+nyv4yBXKWN3chZCCRGYfpA1TZTdEVMmuiYp2wCPR2KynVOcorYsZD3XVWRxz0GjUZFPIZExYDssFSk9gOcwgGBCeAmZJ2GmhWiqpZSiXlU6B//zAQcq1JeNAgvDLa5/EynXrHjhwv4NPz0WRUSwCVVVV5c7OTs6PSlavXt2+cOE/ZRaYetBahf/lV1kThJ33b5w+c42ARmALEGBcXPTgsUM8z/ECv1hrWElXkjhN00687+6vnnRw1eSxTSgWuQsviY5A7IZDlUXI50gSVDZBhhQZHL9gy+6ZWfswCKWVkYSB/gRhyNfEUpenYp+tiUholOTj6ddW4a7Hl8K1K/OWGFhjNSSJ9suqa4FNjWo3vjloVwSI/5jfpN4jnQcJ5yskqK920KcuLRmLQY3VqE476Nsri6p0SgSO7GRghoCdmdQXyHyItNJIULPA0+YapF8iilEoxli5rgOPzlmGfn1qsOe4AfJ8Ku3KefWuz6ArVwCsGPlcCfmiIiVLVqiujo2tJXiuLYJNdlc4touxIxphmbas67aHXkWx7D83bOTkK4p+0mkYRnUUReU4jpfn2jft29XRObi1o7NfOfCbcvni2CiKagBkKh0mW3A37Jhv1QRhx7yu+qw0AhqBHkZg9RNHDiyHbn0EM0ySpMlEXEUacPSpj16114RRTcfOmIBCviAdA5QDMECWgxhBmODNxWtR8iOs39glsxCU6M+Un6mZCRXxIJS/AaN6e66Mts4CMuxw4KPy17u9y8ceu/bBrEPHSxaBO3/VwcBuA/XfTOHT4Ei1LzKbYICJAVcmMDILwqFK/JlqY+TcBJY7Km0P8jOui8IFvl9KINQ3iOiQO3wb6ZQiApatBIk8FnUQ6ZT0QkqmgYcPA2DOyytxyyMLMKhvVg1nMg0UywFK5QB1NWkhH0ZiYFBTjby1tjot55JyXPhhWLF+ps0z0NpZknNsac1JlkPaI9VpMMORhFFsuLbyVmArZb/e9cikPDTUZZPXFy1Plq3ZyLZItlDox/+HgCYI+pbQCGgENAL/NwIDYeC7SGQcM+cMmK5r2cMGpGrTnlXTp86bkk7brmEY9poNueGr1uXGtbUndRw8VCiFlV5+JbpjJ4NYIFd5lVZFDitSbXwy/8AEXDoPVjoQGFX71qclGDfUpDB2lz7STkgzIY5LZunhwWeXIYkjnHjEBKVRMFSXgZqRoMYpk6R0j3qOghCGqQyJqHeQ2J3QTpkCRQ5g6jZQJpFgNkBlFUgWVq7t2Ox+2D0eWmY4mMwYWPL5qRS1BhzMRF8GE1VVKfTrUy0+CyQYjuNg1boAl17zIC48a6aQgaoqfgazAsqwKQhMZKsiITVS8vBYJlFeDNRE8Cv1F11dXLcJ16Hoke81EEYWiiVV+uDPbMv+RycIz4UiS0u1Rv7iuruTlevbOmg3oX8J/hUBTRD0XaER2JEQ0J0EPXE1BwF4N+Pahkq/J4nBhwxCMtHUWMd6eWyYhtG3V7UxaWwTMq4hgZ6CPtOI4bOcEDNYKSMg1/EqroYUHaodv/IgiNGWD9HWXkBX0Ue+WERbR1FIAcsKk8f0xy4DeimrZZnUaGDOq6vw2AvL8YPTDtjshkghYCHvw3KYGWBXRCjTGC2T0xh9SckHIY+htAbKgIhjnSGzIIQwhAymzBiorgkGf059FI1Bwver6ZDcrTNoy6CngAJKBmDl8cAygOeayGQockxL9iGXM8E2yp//8RFcfPZMVGWAVNqDT70kgAVLmjHn5bclG8L6COlKxd1ZaTAMCj9JtBwM7t+AcSOHIJOy0NGl9A8kC1y/iEITQzARkiNkh0SG3Rw2spkUrrjuLixb29quCcL//GuzYxCE7e2P4va23p74k6uPqRHYjhCozXqt3z/1k3W11RmjzN67zVbDamQy098MPtIFYIUol8owoMyIqD+IKu2E7DigmI67Yrb7KZ8ANbKZQZqCQqbKGZhdl7V91tlZx2d9nzt+7q7jzR4JpuXg9bfX4q4nF+BnXzsCYRConTrUiGaxThZLZfovcJ1M/YsHoezwSUgk6NJ4KTZgS9eA6ozgz1UpgSUKRQTUOZrSYeA6NEvqdlZUmQvOdpA5DqD+QHVO8OeZjGpDpFCTwboUhPjZ7x/DBWcei1SKx7QlM0EM1BDKf6y9K89WTUVaPM9AOqXwpliRZRLysDBkloTZAypDSCIgzxWKBrJVgF9m5oJYU99hyeeRZNzx6LzkiRffYjukLjH8D7+POwZB2I7+0OilagQ0AtsfAoP71W865ZjpDf161YgjYSjBT+2a/zHZkDV++hL4MI2AMxArMwpClIo+XJceBDEKhTL8UNXuKUJc25JDa2cXpowdgL71NSgWAzkuPQviOJBAK2l015M0vO8zle7LTp3B99VF63DPM2/gh6ceRjWAlBbyxRhtnSQyqttA3AkZZKX7gO9Tu+3NJkzsooCF9lxRTJeYn9/UlkMoBELZGJQDZg+UypHfszSh/pG8KDJx2D4jkfaYbVAzIPi5ZBbMOLiplIyH5lRHP4jwo98/hk9MH4XabAae6CrUeGpmDlrbu7B8TTvWt3Qhn/eRK3I0tbpv5LibZ0D8w3WapRt6OfAjWU7he5ixEdJA3mBSR1EhRmLWRMMolijiLgAUK+rH/4eAJgj6ltAIaAQ0Av8GAdexX/rScdOnTB4zVGr/aoBSpa4vmfC44i0QoaWtHa4bw7K5Q48ktV+mGRJzCrFyTrQtB57jwrJTyhzIBbo6ShL0aWjUrRdQO32OfpY+PtnlK09FZbxEE6LFKzfg1sdfwzmfORgpl5MZKYSMUORIgspMBRIFehKQbLDUQRLAqYlBGG52TOye5aBmIbDrIILrKJ2C1PGlxq/Okw9mS9Q/5QApI6MNZdqkSjEsXXAeA0mGLZFcbJMNRVBm/+4xaXmcOLqffNbSlRsxbmR/IRuvLlyD6VNHYdjALFKeiadfXINpU4YinU4w+9dP47zT95FzffWt9WhpzePIA0cgiWJce9cCzDp8N1nfRX98Emd/8SAhCNfd9SK+/Km9YRo21rUUsLa5E5NGD8VvbnoIHQX/y1EUXa1/Cf4VAU0Q9F2hEdAIaAT+PQJzvzRz+j7TJo+B7/vShtg964BvFQvhRFkYq8yC6hhwnBilEnf1YSUYx1IC4G6YIjvW3fOFIspBhE2tHfIalhUCP6YyQc09MNUumNkCBnpqCmSGAac4miY2tHZi7pvv4qRDJmNov3oJ1vQ6YHdEEHEgUiQdAt2VTXYKdIsgGfxdtieKF4OyNxY9AssPMmmaQV8J+yR7YKg5CNytkwBRYMldend7Jv0IWNpQXRjcytN6wYFpqXIDuzjIIwolHw88uwQpz8G5X56GRe9swvX3vIoLzjxcyiKnnHcHfvjVA7Hb6EbcdP/rWL0hj+98YR/c/9RbWLSsFXtOGIIxu/TCL/78DEp+iO9/9eD4xnvmG0tWtBg//NpRWNvcht/+9dnkyv/+JDsmjDv/Pj/57DF7GLsMGphce+fc+N3VLfHoYQOthctWX7empeOL//7y75yv0ARh57zu+qw1AhqB/wyBuUftt9s+s47YV6XgKzbFDLbL1zZjyYq1EvjaOrqwcu1GObLU+OlGmEBS6iVfBWalrv/Hh4tN0ebOgX+/qO4/2nxft+mhHyaoSbtCNMRzQKQBypZZPSqdCe/53O5nVJXkX0MB1yqTIylfTFRKXh2nkt+vHED+6/+IJN0kQ+U9/rEApvcbG9I499QZuOuRhXhnzXrU1WQQ+AH6963B4mXN6Nc7C9s0scduA3HL/W9gtzH98Y3PTcNFf3wcza15nH7C3vjVDc+hK5cLdxtVu6qutmbpI3NWHTp8YLp11xG11817tfWbrmMnf7hg2kHnX/zSjW8uaWsKwvjVBNiHrtgA8v8L4lop9n9f1n9/o+pXaAQ0Ah8hAvpP2NYE//umafykoToju3Hu9NnCx3hXnU1jt9FDZJc997XFOO6QvWRd8157G1N2HSq7cLoRPjLvTXzigIkI/QAvvPWu7MT3Hj9UUuU3PvQ8Zh64G5p6VeO1JauwvjWPQ6fsIl4Ec99chZqUhREDemPFhk48NX85Pn/4ZHQWQtz+1Hx89tBJ+P19L2FwnxoM6V+HhSta5JhjB/WSoP7sglU4as8Rst4757yF8UP7YuKIJrR1FXHnnEWYOW2s7ORfXbIO61s78bF9xsoEyafmr8BeYwZhSL963DtvESaP6I/BjQ2Yt/BdtOfLOHSP0Vi8qgVvLluLYw4ch7auPJ5+6R1MHN0ffRuqcf+zizDzoAl45Lm3UJ1NYcY+Y/DAUwtQm03j+I/tidsefAkzD5uCp19YisEDarDP5KGYv2i9+CaMH9lPWio50GpYUyPSKRNBHMC1HcSRJ9bU9HDIFbrw7QvvwG9m737wfpOaFiR2Ul0s+RnPtgLHdoqr13VU1dVm4tq045eKQefrC9YGs4YPzxnH36rdE9/Hb0/PZBD0H673Ab1+iUZAI7BNI/DPf8cm9qrNvPadU47GmpY2ScNPGjMM7V15/P6WR3Hul4+VU/nKT/6I3/7gVNlQX3XLw9ht1JBo/PAB5muLVhg3PDgXP/nqTEnP3/TAXBT9EMccOAmtbZ24+ZEXcMieI9C3NotbHn9NygizDh4nvgn3z1sswsPjZ0zCM68vw0uL1uFrM/fApo4Cbn58Ic44ejL+dN9rGDWoHmMG98Fjr6wQ4jJtwhAsfrdZHBRb2vOgWVDv2iohCuvbckJQsmkXG9rzsAwDvWozkoHIF8oIE+CovcfioRcWw+S+3zSlrTGbclAKY9nVswuAJkd0Vewq5pFyLRw3YyLue/INFIrK9Kiz4GP0kP7o17caby5Zj/GjmmQK4+uL3sV+k8di9LBeIhyU0oWrjJ0yaSYq+HmqVVRGPwcGUimWZ1R7I70UosjGho2dOP9XNyd3/W76sJGj6yyUASvp3JTx6l3fKISLlgf+wEF2tVusilanW9qmT38ykv5U/XhfCPQMQXhfH61fpBHQCGgEthsEDh3Qu+ahn33z5PiVt5bZj8x5Ded+eSZ+/7eHsXj52mTcyEEGa+9LVqxLetVXSwiKk/iuzlxhmmnZvQzDNPYcNwzvrFoH13HQqy4r2YW/PTgH1RkXh+09DE+9shz5Qoij9hsh+oRr7nkV1RkHh04dhmdfX4lcMZKUfGtHERNHNmLBOy3ozJdRV5OSQDpmaC8898ZafGzaLpj7xjrEYYJJIwagLuuJZTHrANWZlJQ36KnALgmWEFiO4H8z6HLkcq7oyxCmTDol7Y7lIEA65Ym2IICJmqqUtDwyk0Ky4zh0KYzEjtm1I5QKZXR2AU++uBBhYuKQqePgeHRCpHiRnQQq7BhJBJf6BZeCDNWaSYLgeWpqI/9H+2jlG+GIvoNf+RqSBM9xsGFTO777y5uT3526uzfltClo9NvspeWWYHSu2u3/8SklGLNlaOV2c5dtYwvVBGEbuyDb9HJ0Zmibvjx6cT2OwG8G9q3/XFe+sLRPfc1Dq1va9i6Vw2cB/LU67X5uxKB+/vSJY6947LU3zxzY2Cs85Rujf3K8SmUf37s+e/NPv/5Jo72rE7liHhNGNomIcNOmHMKgABhqtDOFgMqbgMLBymhncUYEOvJFNNRlJJvw+PMrRMw4dmhvvPlOM3Yf00/e1z1z++nX1mDFmg4cd8B41ZFAbwTpMlABV5oSaaAkugALCT9DugtU0yYFkmqQlBoZTTLBbIFIJWhexOcqToz83NpqpX1QLaAUXhq484lXUF+dxaH7TlTHo+DSMhAFsZhH8VOiMJHOBtfjhEgDxub+RUMyCcwcsJzAjAo/j4SEw5mYBWFGpLm1A+dfcVMcxck/Zkr3+G2w83zAtqH5gpIAACAASURBVEEQdODZee44faYagZ0PgX3qsuk5l57zSaOhLqWkenGIQqmEUqkMv1yWgMsWQhIBtk+anFYo9sXsllBDkCSoS5B1kM8VZEIjgy7bFvkaHqu7E+GRee9i/aY8TjxsNzEQKpcYfLlTV4YAymY5gmmz1TGqdEzQAZE/TxCHgfwz2YopW/AkkZkJloso9GHI7AjInAMDieF6puz8ae5ULNDrIZDWy/69qzB51xGorXZlrbbJ8wrRmYvg0PyJn2xyZDSnS5Kw0MAoQTpNsyaaMVnIeCa68hY8Lw0WHDzJWLBlM0ZbVw6zf3trEoTxUAArd75bq2fPeNsgCD17jvroGgGNgEbgo0TgzMaGmssuOus4ZDOOTG7MF3IyeKmjM1+xXI7E2Ig/a+3g8CGm9iMhBd2Dj9jqyEDKLgrGefm62fCHp6fcDvOlAM2tBey7W3/su9twGaRUpmcSiYZN22WaJCm74TAMEEkSnpbGbHWUgQcyYdEvhmKelES+BHFxYLBtJBQNiL+Csi4mmaEXguuQe9hiBtXSWsLtT7yC8SP6YeW6VnTmi4g5NEqmOqrMiGqnrHRDVr5R7ZaGEAN+ra32YBl0WbQ3mzu5ji3ZF19cI+OkubWTJZLfAPj6R3mRd8TP1gRhR7yq+pw0AhqBbQUBozplnVIMkqv71GWMjlxJvAbEStlR1oBVaZIGWgFb8rOqlCPDj5QRgWqX7HY+pOeAogKbI6uagVAJunyOafyNbQWMGFSP8bs0IV+g74CyRGbJwOdch1C5IvJfV6GE5vZ2FIshOnJq7kOJ5OS9LZkVa+luUNV8BA5jYpBXo50Z8MXiWGY10AzKwLlfPBh11RmkMjyRCH7go5BT1tN0VaQxlJdidsFEOmULgVBtmrGMw16zPoc16zvx6NzFmLb7WNTVVGNd8ybMff1tto6eB1CWiBEAfgCgdVu56DvKOjRB2FGu5Ed5HrpEtGXoa/y2DL9t+N2nTK+riwpe/fyVnX36Duhz6sKV7V/+/hkzkEo5WL2uA3+69Vmc8+XpqK1xpSvAp/DP4Y45QSFfln8SMmWmAdUBLCmEIurrnnzIejxHSDOodmcCrrn7dSxf2yG6AZnsSJIh/xN1oBCKlMs6vokhjbXYZVA9qqpc1FV5cOl6xHkGcOEHHNqkiIptJTKumetgO+QD8xbjq5/cC8Vyglv+/jo+tv9YNDZ4iEILNH5MZzykHA5iIp1xYCS++EEEQWUdpivCSNNKkMnwe86fMFAssbTAOQucQ2Fj7YY8fnPDMzjvtE8JCdnY2oELr76bZkv0MnhuG7782/3SNEHY7i+hPgGNgEZgW0TgtCn1tX7KHWsadjE0gqS5GO750tLyn3729eOkFLCupQ2XXPcwLvvOUSI+ZJqeDopMn9OaOQw4g4EjjyviA3E25LAmznhgkGfcrhgYGZaUJUgSaMdMH4P2jjJqsmoG0Q0Pv459JwzC7qMGwfESXPqXZ3HeF6bJECSWLWRgkzg0JvB9li5ixKElxCMODViVFsQwNmVdazZ24d6nF+DMz+wv7Y9/uuslfHzaaAzqXyPiSsdR+ghqHURfYFMnESMM6CzJrIiJKKGfgYv6+gr5MUxwJEO+xFZGWjdbyKRs5Aoxzr/sTvzo6ycLoenMF/CTq25Drlg+BMDj2+K136bWtAUbEE0QtqkrqRejEdAI7CgInDS1b6OXNtNJaPTiOS1a1TF1aZtx5U+/Pstg4FzbsgkXX3MfLj93JhrqHDEFYuAvFksyJZHaA5XKV90EfI4/L5cCqftzMiJHNXN4IjMOoYxeMFAukzkoHyDLUoOlfnvnyzhg8kAcsPtQGBbwvSufxOxT95PjkhywpMFhUBRL8p8BjnMOEUdKX8BsBTMJfB1/tnx9G+5/ajG+9Zl9RXPwu9tewuH7DMOoYQ1qoqXBEoUaJiVDKs0Ere0lWQszA8WCiTB2kco4qKm2kEqRRFCgCEQh3+DAsah7IEEw8LPf/g0/O/OzcqxiqSQEIV/yDwbwxI5yv2yL56EJwrZ4VfSaNAIage0WgdOmwMnbDenEsobbicWZiw2wjdT8FR1164r2NT/+r1kGg/3G9jb87A/34pfnzULKZc09QD5Xhu0YKOSpE2A6n7txi/t5GDFEP1AslKTNj2ObqeTnKGhFBmyUiqXKoCT+dwTLZtkhwi9ueQkHTh6M/SYNlLbC8379BC74+nQ1qImTHkENBLsJOMeBdQS2GHIYFEWIFEZyfHO3yBB4/o01WLpyE04+aiLKfiyeDbuP6Y19Jw+suDZLbkOIAUsGLIm0dxVRLidYub4d2XStTJX00raMvZaMRRwgkyZhATpzARCbiGKKE03c+vBcXPjtzwoWq9ZvxC+uvw9lP9wVwFvb7Y2yHSxcE4Tt4CLpJWoENALbFwInT22oMczUeBtJDUxkEBnBwrUdDavy9p9//q2TpHFw/caN+Okf7sEPv3KY1P6DsIxCgWl4DmdicKZzoErT++VIvoYBswfU+6lWSICdCBQxqtHT3P2zm4DeAZxpoIyJyrj8ppex/6Qm7LvbAAnI/33V07jgGwdJ4JexUdQ3yLAmBvbNdgqV2QuVMFERQ/LpZ19ZjZXrO3DsgePhRxGuve8VHHvQLhjSVFsZo6yul8giKGIUjQTPy0DzphLLA+jfp4+USUhCHNdGQ72LbNYRnwOWUtQALAu5goVzL70eF575ORFxUqR48TX3cOT0GACLt687Y/ta7c5LELagLrN9XWK9Wo2ARmBrI8Dygm1YDYaV9DNgVnPuc0cxGPzkkvxvLz7zZOkiKPl5/PC39+ALx0zC2OF90NVVUrbCYYTn3liF1s4CVq3vRFPfGkDGPCsTJRIDmZbIUgCDOic9KrMCcUSk/uCMWXuIVoG79DD0ccUtr2LapIHYa9cmSeP/5Op5+MGX9haCwOBMMaMaYZ3A81RLoXoYbDCQTAOFjXyen/nky++ircPHwXuMhmlG+PP9JAgjMLCxRggKywiM8gz0NE4qFk2k06qtseTbeOz5t3DEtHEo+wGCgKZQNnr3duC6Lnr3cuD7FjJpE0lsIpe38a2fX4tfnvclIR9rmjfhwj/drQnCVripd16CsBXA1R+hEehRBDTJ7VF4t/TgJ+43qMlM4r52HPU3TDvTli/1eWpp11U/+a9ZKJfZ7ljET//0KD51yGiM36Wvmv4YRbAcZgxCKR089OwSHDGNmXRqDDhGWbkGkwiw6yEK1RjlJGE5QbkcckfOn3P3zimMLA1c8bdXsPe4Juwxpp9kFS6+8QWc//mpajS1dDrE8FxHjaRWnYayg5djif+CEjBS58CfPzBnCXrVZDFp5ACU/Bh/ffRVHDVtBBp7VYsmgtkCChWV54IpLY+M7rRQTqcM3PLQazju4N0RxxyFnSCVspDKuDBNB7170enRUUZKBoczufjK7Ovwm+9/Wc593cY2/PT3d9DqmVOxXtzS66Tf/78joAmCvjs0AhqBnReBniVZxieamtJ9hkf9kjCqW9MeNT23qnDPj86YaRgIEScl/PB3D+Pj04Zj8ph+EtS5i2cA506dQfrup9/Gp2bstrkjgM/TIIlBn2UBEgWaHlm2Gi0tBkZgNkAJHOlGGPjAVXe/gn13bcLEEf2krfDyv72Ic0+eUknlq4yEkAG6MtISSTwQlBmSOqwhx1IZBAuPv/wOetdmMWF4PzFauuHRV/GxfUeiqW8V5i9pVqTAtmBbEaoyFD/yFqPvgXKIfOqld3DAlOGS/VAGTQa6iiF61aVRnTXhOCQtzCjYQGLjwj8+it/98DQpf7R35vG9X9/M+RKHAXh05715e/7MNUHoeYz1J2gENAIqW71Tjs2ZMgXOrlWNAze2BnvNWZa/6QenHi0ZfMsuYfZVj4j6f89d+0kqnwCxS0Ht2jnPYDE+NWMCTMsWgV6pUJKdeDdJoC4higJQwUiDJEkwcPKir+r+YUihH/CbO57HvuMGYsKwRrhegstueQFnn7iH2BqLv4K0Oiq7Zw6AentlOywjwaDGehnPzONxnLXMajANPPbScvSuq5Kx0YVygOsffgWzDpqIjOvIvIZEjmlhTXMzhg3sz5wHXMdEuiqFUpHeRhEyGQeFgi8mSUkcYemqjRg/uhFpT5GVVNpFqWzCczP4ziV34crzvyTizJIf4NzLb0RXoXwKgOv0L1fPIaAJQs9hq4+sEdAIaAQEgVn7DExvbOva9YUVhRd/dMaxUuGngdD3fn0vdh/TiAF9aza3GFJ0KAQgTjB/aTMmjWpSmgDOW6oE8GxK+QuMHNyAtKdaCbu1Cdztc/4CQPLAckWMX98+F9PGDcT44X2kRPDLW5/DeZ9nhl51GLgeMH/JBry8cAMG96tVg5niBOUgxlvvbsLM/XdFQ02NcnRMYjz28hI01ldjwi79USyH+PODL+GEgyehKu0KCaROgaRjxfpNMu7ZZO8jx0JZgOsxQ6EyIXI8kiErwfJVzRg6sBrVVWx3ZBbBQRB7SHkpnH3RXfjFeZ+HbTpisfydy25McoXSVwH8Tt9iPYfAzkUQdtIdTM/dPvrIGgGNwPtF4KQpTb1vf2198+XfOdngbt33Q/z4D3fjY/uPxv67D5NRzzQUou8BDZOoN6DrYCptIV8oSU2eQfeOv8/Hx6eNpSGxmnJoMm0Qid5AhjCFocxfYJqfkx/zxRhX3fUcDp40BLsO7SeCxstveQbnfHp/cTzk5/z14dfRt8HDxw7YRVL+Lc10a4SQi3IY4eHnl+CEGVOQ8lwZLnXbU29g0ogmjBjQG4Wyjz8/+DI+c/ieSDmWtFtKQcG2sXTVeowaOlDKJmQ4DPwcysTvU16MYolCSp5nGa2dnWjspcyR4oSjqC3U1FYBcPCdS+7BBWedjIybkg6P71x6Y5IraoLwfu+9D/q6nYsgfFCU9Ps0AhoBjcAWIjBrFqy77zSDy8462ZBxyQbwvd/cjiP2GY39pwxDuRTCpheBEaiav7QvcpetNAAUKVIb8Mhzi3HQniMl3c4/4HyNLTV7tXOPI6BcpuEQSQhtloFf3foMZuw+HONHDJCA/ItbnsI5Jx+CVJrOhHlcc88LOP2TE2QaY6kYo6uLro4M49QkJLh33mIM7tcL06eMkCzG9Q++iGkTh2Nw31oEUYKr7pqHL3xsb9TVZBEEgXQjsNSwqa0D9fW1ModBOSom4ORHdkVI+2YI6bIwEGDdpk40NqTgVfwYMlUp2G5aMgnfuehOXHruZ+HajphFnX3pDUm+WNYZhC28J//d2zVB+HcI9fTzOqvR0wjr42sEthkEXNuMrzj3c4bvBxIYf/yHezBj6kgcMGWQEAGq+KkD6G4zZLmBIkQ+RLgImhStxNhh/VFd5aqxTeK0yDS9EidKayMdF8v8nl4KMX5927M4fM+RmDBioATuy256HOd8Zoa4Hq7Z2I4NmzZi8th+8hnFUoz21kDEiabBKY0W3li2HhtzPj6x764SsH95y+OYOX0SBvSpRbEU4Ne3PYPzv3AkOHGSJCZfLOHNd9YIiaGdQcrliGbVDcG5ENQzcPYCX88Tj6MQG9pyaOqdkZICfRzixEE6nYYfhLj+rrm48genIAzoKBnjzIv/wgwCpzdyiqN+vB8EPkCs0QTh/QCrX6MR0AhoBD4EBFzbin/7/S8a5VIJphXi/CvuwFH7j8Q+E4dKi6IlO2RlMMSSAUsNcczUfCTdCaz/L1vVgpTnoX+faiEAnKdg2WwXpE2ygVKJ+gGShbL4CJBW/Pr2Z3HoHiOx24iBCKIIv7j5CZx90sFCRJasboZrAr0b0nDTDvJdAUp5X86WpIPH7yqUseDdFhy8+0ikMxlceuPf8YWP741etVXI5Yq48s45+OGpn6i0X1rw/bJMbBTiYoZCfoJyGflyEZs6ihg+kJbMPJ+KBsG2kUqnRazY0cUOjwyqsx5cN4WG2gy+9fNrcMX5p4hxErsgvnXhtWjPFc8GcNmHcFn0If4XBD5agvABGI2+khoBjcAOhMBO9jeABOH3PzxVEgRR3IkzL74dxx00BlMnDEIcW/BSKURRKA6JpXKAUonEgKl+7rTZEpigUPQRBAlqsspxkGI/2+aOn0TBRK4LsG12OvA4qlXxkhvm4MipY7Dr8CYUCgVcefscnH3SdJnL8PaqjahOm7BBfQBbI7lLZ8oiko4FBuTVLe1o6Shh+u4jZI0XXf8IvnT0vuhVm4UfxrjsxkeFIESIkUoBoR+CeQ+WRdgpUSpGsv4F76zGqKG9kU6nhPiw7MAuBpIFEgT6P2SqskiQkqFT6ZQH2wC++fM/4qr/Pm1zG4wmCFvnb8BHSxC2zjl+uJ+yk/1B+3DB00f7UBHQ9+KHCufWOJhtmdGffnS6KQLEsAtnXXIbdhvRF/16ZSSd7nk0CzLR1llA77qs2CjTBIk762JR2SszprKE0N3ZYFsxcvmimBHxOabxxw3vqzoJDJoTJbjkhmdx+F6jMWZwo4j8qEk475TDpbXxhTeWoU99GhnHFuJB1sCyBcmBGCaZBt54Zy1s18H0KWNgWhYuvO4hnD7zADTUVrE3AT+/+l7MPv0TcFOQkkIQ+ZXSCCdCWqJLoHbhobkLcOyhExD6nDypDJU4kAl2Co6dgudRm+AijBwZ+eyw7SGJ8Z2LrxGCQDMpEpZvXngtOnLF7wC4dGtct531MzRB2FmvvD5vjYBGYKsj8F6CQA3CWZf8FZ88dAL23m2wqPtpfkSNwOLlGzB6WH+ZuVD2y0IaxDNAJjpG0uqnRixRZxBixdpW0STUVrmSzqdnAtscmT3g+OZLb5yHw6eOxPhhg6TEcPlNT+C8zx8u731l4Qr0a0jDsz3EUYDY4MAkC2EUqhkNAOYteBd9e9div0mjZKjTT/54H77yqQPRt74GHfkSrrjp7/jhaUciU8VXU0wZgaOhmdEoFCtaiSTCHY++jFmHT5H1B4GLMGG2w6NHQhIllsGShmvbMpQqm2GWQU2jnH3FX/DL876oNA2WiW9ecG3SmS+eowlCz97CmiD0LL766BoBjYBGYDMC7yUISVLGty68GbMOm4S9d9sFYRQgnXHglwMsWLIaY3ZRokGSgLLvy67eDyKUOR5RnIvVbANOX1y5vg01VQ7qqr2KLTKfV22RfgBc9te5OGLqaIwfPkC8DX5165M497OHIQx8vL50NXpVOcimXdE+cJgjTE5YJDmgGCLGE68uxdCmXth/yq6SzfjRH+/HGTOnoU99NXKFMq687SnMPv1waV20Xa44wRtLmvHWso0YNaSvZAsotmztDFCVciTQc+0kAstXt2DcqKFxGJomSyOmEaPksyRBfQLrKybueHgOLjzr86hK2XBsC9++6DpNELbC75UmCFsBZP0RGgGNgEaACDiWEf3xR2eIK0A58HHOZX/FF4/bF+N2aUQ+X4LnUdkfYuHStRgzvFGBlsQy1CgKlHkS/1F3wG4BBkum6VduaEU2bYsmQJX1lasimxQZaC/48xwcMXUMxg9vQskPcdUdT+Osk2cgCHy8tpgEwUJ9dUrKBaWAugUbEVsTDVNKCo+++BZGD26UDAJ39D+95gF8ZeaBaKirkgzCjQ/Mw9dPmI6aGg9emh0VamDTvFeX4qB9RkvLZhw7anKkmSDXVUCxxPFTBp55eTEOnDoBDXWOtH5SuMhzKJUjmf5IbcX3Lr8dP/nmZ5HxbFR5Nr6pCcL7+4XawjKkJgjvD2b9qq2BwBbezFtjifozNAJbgoBlGuHVPz6DhXVEsY+zLr4Jp87aH2OG9kEYlBEjQhSGWLB0HUYN7gvDVBMW2epHPQDr+ElCBgAkUSiDnag5WNvSgXTKRV3WFbdC9YedO3lDAvFF1z2DYw+YgJGD+mJTRw43PfIyvnHCwYjCAK++vRIDenuoyXgwbRPt7bRuZrslx0XzYAYef+ltjNulCZPGDJHMxU///AC+ccIhaKipwosLl2NNczuOPWgiqqootGQrI7MbBua8+jYO3nusZAFIdPyQLZg+orCsRksbCe596g0cf9SeQg74WRYzI0Z3m6aBfNHE7F/djh9/4zOozrhIuza+ffF1aO8qbJtdDDvQ3zFNELbkt12/VyOgEdAI/AcImKZR+OU5n0vVZDMGjBK+dcHNOPFjkzCkfwM6u/LSxshSQhezCQ4nGYbSLkjdATMGSqQnCQjJBFRXeUIg3nynGaOH9kZVxpH307rZtSkOBDrzIS7/67M44ZDJGNxYj9Ub2vHAvAU47Zj9YJgJ5r+9BkMHZmDGlrgsssxQLMSykxdPaMPAYy+/jcljhmDKrsPlZ9/7zR34xokHo7FXHW556Dk09e2FA3YfJYSGQ5oM20DZB15a8DYO2nucrJcCRI6yLpYiOE4JxQI9FoAb7nsFX/n0vjIWmoLKdIrlB2ZJAD9gecXE9y+/UwhCNuMg5WzjBOE/uB+29ZdqgrCtXyG9Po2ARmCHQcA0jE0Xffuk+j4NtQY1CN++6CZ87pg9sPuug2CZVPbHKBSKKJdD2JZdme5IbwMOOGKsZskgkefmL1mHof3rUZVxpaTg2LaQA9b/wyCUNkHOZCgGIS79yzM4/qCJGNKvF1aub8WDzy3EGTMPgGnGWLa6BTXZBJlKBwVJRS6vygxI6NLo4pHnF2LSmKHYfexgOI6L715xC87+/FEy0fHnV9+DQ/eZgL3GDxd3RJKAchChpsZAc1snbKc36moj+YwNzT4sIxBBpuv4sr6/3vcKTvz4nmKmVPRNpDnx0TJkbDRLEyxVnHXBHfjZN09GTVVanqt0MWybGYQd5m7tzkTtQCekT0UjoBHQCGyrCJiG8c7sr35q+OD+vRBGJZx9yc340sz9sPs4ChLVNMVyuSwaA9+nWlC8EkV/QE1AKkUyYEnxYMnKjWhsyKK2Oo1ymRkGwKFpAIWFJu2MTRQLQL7k4/IbH8cJM3bH0P69sLq5DffNeRNfmzVNIsCKNS2iRejXO6vsmk0TuRzXoloO2d749+ffxLABfTB9r3Giezjn8ptwzhc+jt71NfjBb/6G4w/bB+OGNyFfKmP+2yvhOjayVXRENMDRDJwbQVfG+YtWYuSQ3vA8NRmSY53ppsigXw4cZDxTnBldh5kDRQ4G9WvAr65/Gueffjyq02yBDMVquatQ+hqA326r13pHWJfOIGzNq7gD1aa2Jmz6szQCOwoCtmU8/6XjDtpr74mj4AclnHMZCcI+mDCqCY4D5LoCmBYNkqgeYIuj0gHQ9IhTD2HQHCmUWQdU/9fXpFCTzchYZMuA1P858ImtiFFkCslo74px8XUP4NufnoHabAbvrFyH+559E1+dNU26FJav2YTOXEFGO6cyFvJ5lhnUyOUEtES28ehzb2LE4EZM33OcaAXOvvxGnPvFo6WL4fxf3owTjtgb40cMknIESwypNA2ebHQVI6RTIXMakll4/vXlGDeyEb3rFdHxPA53UkOcOrpoG03SoPonWGZAYmLRsjb85e6X8N1TZ4pIkXoMPaxp6/xGaIKwdXDWn6IR0AhoBNhKOO+Th03de/oe41AmQbj0Jpx81N6YMm4AHNeQTAB9EIqFAkwzQqnkw7Fd0QbwuTCgLkBlCZo3dcB1TdRVV0sgZXqfPgRsE2TnAeCKVXNLewmXXv8Qvv3pQ1FT5QlBuH/uQnzzxP3EhnnJio3Sqti/d510LcQwkRhqnDQjNksMf39uvhCEg0gQLBPfvvh6nPelY9GvTx3OvOR6fOHY6TLWWQwYlWwBNdWQbACXl8v50qLZvKkLcRJilyG94Lg0hTLgucxWoNKxwC4GzmqgQ2SMIDLx6oL1mPvyCnz5U4fKRMtCsYwf/PqWJF8qfw7ADfq26jkENEHoOWz1kbdXBHSmZ3u9ctv8uuur088dffAeUw/aczxy+QLOv+JmfObje2LqxIEy6ZAkoOwbKJcCyRrIMCNxHEwkg8C9tc06fwS0d+ZR8n00NtTIbruqykamig0STM2HkkGg2/L6jXn89ran8dkj95SJjKvWb8J1D7yA8bv0ld3+CwvX4NSj90ZVKiOTH7mz50OMFA1DjIsef+EN2eWPGKy8GW555AV8/9Rj0NS3Ad+44Fp86bjpGD9yEKLERzZrIJOhoDISo6dc3pepknywRfLtFS3YV4ZT2ZIdSac53IkGUTRJ4vIpUAzhBxZyeQMPPDkfbZ0+TjhiP1RnPOQKRXz/Vzcn+ZJ/GIC/b/MXfTteoCYI2/HF00vXCGgEti8EhjX1XnjAnmPHbiYIv/obTj5yEoYPrlMpfekcsBH4EfxSJDoAlgzKAfUFFRvkxIZf9lHyS9L10FDjyrhn2ibTAZFzDWhM5FBLkA/RmSviN7c9h5MPn4Ih/XuhpbMT1937AjIpCxs7SqjNpvGZw/eCadGHQGkCpKfSYDbCQK5Ywk0PzUWpHGJg31qMHjYAT720CGd97ij0aajBOb+4CZ//xH4YM3wAstWUNZRhWLSI9pEvsCsjRLEYI5VWmYW5r67FvlN2gWVaSKXUwCZqJ1KegVzBQcplB0WMMKRXhInbH3xFvj/6II6T9tCVYwbhb9RWzADw2PZ1B2xfq9UEYfu6Xnq1GgGNwHaMwOTRQ5rH7jKgz2H7TkRHVwHf//XN+OKxe6Mmy6mLpvgX2I4nUxHLpTKCoCwZAc5kIIFgeYGjkCOq+2nBzPkLBg2FEukMAJTPAIPvwH51KJeADa1d+OPdL+G0T0xFfU0VmjvbcNtjC3H8Ebsi8BOk3ayUMWQuAqsK9FmgrDCKwO+Y6l++tgWtHTm8vnSVrKFYDvDdUz4mxzvvytvw+Y/ti7HDG6WbIkrKMrCJbZvtuQL8sg3LipFOK1MnznpIp1gyoY0y4LgQS2ZmO1heKZcDFEpldHQVRaT49AtLMX7UYJxwxO5IeS6WLm/DpdfdzzbPCQDe3I5vh21+6ZogbPOXSC9QI6AR2FEQ2Gv88LUD+tb3P+bgvbCpvQv/zI5H+gAAIABJREFU/Zu/4b+O3x+D+tVKCt9LcW5BGq5bRqlUQLHgI2AUTWIhBXQhZBAPyjFgBDJzgR4J3LczyNJ1kNkDDmrizzhN8d21Hbj2gddxxtF7obY6g2JQxrUPvISffG06iuUYbW30XVAzF3hwljH4YHmAZIDdFQZHUZscxJSgKpPBz699EGd95nBUpT385Op7ccrH90FT73p5H8sbzHpwWVVpA6mULaULrjVKTKS8BI7joMQujYTlCFXSoP8ChZp88FxtW5VWLr/6cQwf1BfHHzkRiE0sfbcdF1/zCFspxwJYtKPcG9vieWiCsC1eFb0mjYBGYIdEYMTAPov3233MqIP2Go81za342e/vwJknH6pmKFiqPOC69C+gR0BRMghRqPwRopCCQUuyA2K1HNNwyJF5BjRPSgzANpmyT2Q37nkpmfL47tp23PDQm/j2CdOQSlnoLPm45dFXcf5p05DLcUok0NWlPBYSihR5IKEXzCYoJ0e6NlIMYRmx+C1ccetTOO24A4RE/OmeeTj58D3Qt75aBJJREol4kuUOx6ZQMYbjqm4FJ8Xzs0RHQctH26Lzo9hCiijStkLRJbCcwSaGlGfiot//HaOHN2LmjN1gWw4WLyNBeDjxQyEIi3fIG2UbOSlNELaRC6GXoRHQCOz4CNRVp58/5uA99qIG4d21Lbjg6rvxgy8fjWzGk6AP+GJe5DjUH/gIglAIAv9QM5PAzAADJwkDv5FOAykIcIdvicCPOoYk4a48Ek+DRcs24qZHF+B7pxwinQ7NHV24+6n5+MZJU8XtkGZFhZz0HiCIlT2zSArZZZjQ+pmTI0W9CBsBLMPEr+6ci88dvoeQiuseehknHbobGhuq4XjsSmBZQg2SIg9gGYQkgGtjB4Tjsb0xJeQmjpWVMzMjHFutMgm0k+b5KtLyi6v/jl1H9MfMw3ZDGNhYs74TP//jg4lnRWO7ypog9ORvjSYIPYmuPrZGQCOgEXgPArVVqeeOm7Hn1Ol7jsdby1bjF9c/gIu/fYKk3VXgL4sbomUFItTr7Cogly9J2UAFfg49isWIyBG3QaOiE1DkgZUF27GRMECzayAE3t3QjhsemI8fn3EkXM/DouVr8PBzi/HVT01FuRiiUAxggp0RsXQwlMu+tDqKnoAH4MwERRlEB8EixJV3v4DPHDZFyg4kCCfOGI8hTdXiw8DXMItBPQTnKijL5lh1YiQJPM9BKkMTJY6mZieDKR0TnMvAcyZPomiRNsudXcCVNzyKyWMH4JOHscRgY8WaTbjw6oeSMIoHAli7VW+wnazDacsJwk4G2Fa9GfWHaQQ0AjsUAmnPeetrJx42ZtzIIZj/9nJceePD+OW5n0IYx7j/6dfh+wE2tuVR9EOZtVAqByizo0FmMaguAMZqz7XguRx9bMIyOeCIu3XVdcBRytVVDtIeRz8rLcIzr63EN07cH67j4tVFK7GquQ2fnD4OYcgShgW/LNt1yTAoR8dQMhIsL7AVMmbbJKdHWib8MMHv7nsRn56xu7ga/u2J+fj0YeMxuH+1ZAwc1wTHNoeBiTimSRInVCq3RGYE6MxIl8dMNoMY7Gu0xVExikMxiGJyJFsFdOVUZuGX1z2CiaMG4bhDJ8OIbbyzqhmXX/9gEicJFQtMu+hHDyGw5QShhxamD6sR0AhoBHY0BFzbXPPjrx3f1Ke+Bm8sWYnf3vwIrvzeCbjz7y9j8bstaOpbI9MKWaevqXIxcnAv9GmoRjbjSvaACv9iIURHvogNLW1Y19KF9q4yfOkAUEGYO3g/II9QaX4+2C7JEgYNkXicfCkQwyF2DXQ/JINQsXauKBDkKXmNEiTIFwZ5P0rgCPcwEEQJ6qtdZDwLDbVpyQbUVqckE1Bb7UnmQwY4kQ5YzD9QW+CgsW9v1GTTyKRMySZ4jiGZEvofpNwEbV0GqjM2Lrn6QUwZOxyH7zdJJla+vWItLrvufhIEVV/Rjx5DQBOEHoNWH1gjoBHQCPwzAo5l5i856+RM2nPw2qJluPqOp/CL78zCJdc+hGMOGYfJYweK5sBLcXPMskOC1k2doiVg9qCYLyNi3R4Rcp0FWDZ1CHwlRYC2BGIG6DCi2NAUt8KuzhICn8ZJAbWAMtKZokYKDGEmkj3g1EjTskVkSDtn7vyZPUinDZTKFBCqzAT1CmrCI9MZ7EZg8Of4aRPFchnNbQUxb1q7MSclhfUtedFOcEojsyRhhW0o4qKyBSQe1EV2k5naKgeHHTAS+08ZJT4IF/7+YRy6zyQcsMdYeI6NBUtXaYKwlX6xNEHYSkDrj9EIaAR2WgRUHx9gVHl28aKzPmMzZT9/8XJcd99cXPytmfjR7+7FV0/aDyMG94LvW8jlOmCajnQuRHFR2hrZCSDeBFaMgOLCIJKAzfZIaSsMaLVsolQMZIyzaduIQkPEjqWi6hLgOGZ6KtCVkeUAkgCWKJg94Pe0e2b9X0oL3NFHsSIgiSXEgIJD2jfzGCwlsKSh3kftgXqex1bf8z0kELY4KDKLgZjCSQMhGYFpoDNHM6UAlsXhTHzOQmeujLseW4TTZu2FoQMbccmf/o7TTzwEQ/r3g2NZiiBc/0CS6AxCj/9CaYLQ4xDrD9AIaAR2YgS+QSG+zSgMJEEYm7UZV8oBDMpFP8LIQQ3YsKkTveqq4NIEKVKeBwP7ZSW375ejSumA9f8QGzvyjLOVTgO6JzK7oIJ5QUyGSBAYixNJ/3dXCHgNZBUyCkmVDaTDUE2Qlod4KLJ74T0XjK9lwK/OOKJ7KPshugpKvEjWIG2QzGnEiZoTUdFK8JT5vrRnYezwvqjNppL6urRkOSzDNPiVZISvCYJYJjzymMyQXHnTCzj6oNEYu0sTrrp5Lk6bdSgGNzXCtU0sXrYal//lAamo7MT31VY5dU0QtgrM+kM0AhqBnQmB9Q8fVlWwUtlPnD7nooxX8/mTP76PtC8Wi2FiGIHB8cpAgGIxQZ++aREGrm9hO6EvkxWTqIyN7cpKmSl8bpYZe+kvUFtVJeSCQdm22KkQIwyCSoBPUJdNS6Bm4GXwjmMKHFW5Qg16IlGgKJDZARIL6WcUrYFqS1QzEqgZ4Ou5+w+DBL64O0ZigNRQl0a5GMH1bFkDOxCU5oGDlhIJ+DRtcjxHfBEWrdiUvLu2zdjYXkC+GMkI6/fqH7gqEgrOfuCJlYMInthHG5JZqM6mJXugOjMidOaLxGNVkoiT4lHb3b21nYj7P3qCsJ0Atd3dgHrBGgGNwEeCwJIHjvRiz+ptliP/mjuLtz86Z+n+Z3/xYBmhTPfEl954R22+JUyypU+1FFLZT6JAq2Qq+hlgJZjbloxBVhMa1cAjBuJJo9nlxyDO9L0KyK0dRbyzsk0yCN1ZAn6tybpCFvjTbCYlwZdCQW7DUxwNXdn9dwcEujKKcRJdFC1qEkgmuA7lrRDHppQCaBfd3lWQYB9StxCpUc2SoGCZQTojSBxokMRj2qjJeuK/QNOmlMe1eLAdSKmBdtMcAc3jNPWvR6kErN/UJaShM59HHMbS0cGuCLZg3vPkK/k4SaYCWPCRXOwd/EM/eoKwgwOsT68HENCksgdA1Yf8sBB444Fjd7GdJOPEaP/TbZ1zn3x+ycDzz5ghpkcUBjK4cYwzNQQM2QygDPDcGXPnHccBQpnGGIrjIFPxHLks7YKclwAaCVF/EKFULMNxbYSBch5kNoEkQA15MkV3QCvmfLGsMgwJUCiH4r7Y0loQTUNLe146DkgCVK3BwD4TB2NQY40EfvFvEsmACQ56dGwLhYKPd1a1oU+vLKrTjggY6XcQR74ID5VJkspQkPzwQULgeS4686rrQson9DrI0RtBERI/tIR09G6oRVtHJ4YP7o0wtJGtclFfXSPOjCyvGGyNtIEvfv/3FFruH4Z49sO6fvo4/0BAEwR9N2gE3i8Cmpi8X6R2xtf1BfBHyzJqPcdyLRNWyjM9PzB2S6cco1+vrDI5klZBZSTEHT3T/Lak+5XRESMr5x1I5sBIZL6C57B9MCPlBnk/tX5JgqIfIJejoZI6Fh/SFaC6Dyu9iYbMN6it8tC3oUraJasyLhzLlhf1qq8SO2WSgCTmPAcOVuIshEDWy8FQ7IBg1kCtia2IyjhJzXuozGyQDIg6P6Y7hPjQHdFW5kqWY8ksBs5lYNsjUwJhxKFPtnRbZDjIKaFZkwHXMaU7wqWttEWSw3kTJjxaUPskHSZs00a5FOPU2X/GAXv3O+G2C/Z/oO9Bt+Z2xhuvJ89ZE4SeRFcfWyOgEdhZEDjYNIyHDpwymj0Ahgpwqv5PZT+DJ9X8bPljqYEBMghZ0/fVzl9NWJJAz106I6zSEDB4JyJOlNgrG3y1y+8WD3I2QnfboJIX8jhUHqoyBjMWLEt0p+a78tzls7yRoFiikVGFVPybK/VesaMSMr5XyvjPu07yFemGZAahkiWpq3bRv28WveoyyFZ5LCaI7wHP002lUJv1Kv4Nscx+INfxpPxCASR1GMTThGuzM8IQGH5387MYPKDqd8Oa0m82txSefmNZ/o3Zs2ebs2fPrlClLbz9dvJNgSYIW3j/9Njbd/Ibs8dw1QfWCPQMAkdahnH/5Wd9GlFcMjhLwXFUOwCnGzI9zx00gzUfUUTPApYVWBbw4ZdJBCLYNnftYg4gO3AGdgZ5yRBQCNg9JKGSIFCkQZUolGaAWQm1u+fP2dbInzGjYLAFUciJgVKBu3zlbKjEiwzCzDYYkoaQMdKWBb8UwLJ5fC5JzWmgBwPLF/wcm5mD92QuWO5gBoK0gL4HfLWX5ihnAx1d+WRDa5excl0H+K95UwnlQBGYinbyX8gKf84sQvcT6s9iNx6GkCyugQeI4jipqTL/qyMXX9Uzl3jnO6omCDvfNddnrBHYOgjsRCTXBo6IgPt+/JVjLbbisRZvWQykjMcqSEcR/QoYiNnKWJmeGDOwhaI5YEmBnQ4y3IjpeYd6BE5tVMG8OzvAgM7He7mCOCXGyotA/ApMNbOB76OXgvgqVuYikAAEnNUQV/wPErYdqvIASwjK74AZjoqQspKNUDt42jwrktHdhUCSIzMaaJzkcSJjZdQ0vRZsG0YSVoiRGtbEDAl1BF0FoFwG4hCwUw5yZeWw6LnUM7jIZkz0aeDwJyWKTHlqbfk8Sy7KblqGQhqmjI7+5k9vg5cyvrtybf6irXOD7/ifognCB7nGO9Efvg8Cz0f+Hn19PvJLsLMtIG1jv2KIx84++VCvLkub4VBa/xw3rngW0FRI7Xz5P/ocqBqAzb22BGQGcu7gSQpIKmS/TsMjtUEWEyFmBcSIqFK26HYmVBkGZUfI93AHH/jdJKNCDuiLELCmDzCR4VgUOzK4JlIOUXbMpgTdICBZUToBRW6Y1lc7fXZUcpSzEAqehZVIJoRr5ygnw2IngspWUISIWOkkeI6iSZDWyQTFooEoUcHfcxKYjg3DdmXEc2y6qEpZqK5SWgQhLmYiz3GmJAWKzCykXWXGRFz+60e3IAiDb29oLf9yZ7v/eup8ty+CoP/w99R9oI/7YSKg79MPE81t5VgpABcDmAdgCYCXuzfxs6fDvnyOswcc48nTZx7o0Ycg6PYlkM4A6vaUHkF8CdimqCyJxB6ZdXovpcyQ+BruwFkykOdFNMgsAG2NLZi2I8emwVCxGKrOgZBkhOl2FcTZPUCr5e68PN/LcdAxMxiOIgv8GQkMP9v36a/AEochwV91VSQIfK6L62UgT6TVksdR8xyVEROfU6UMZiDowsjXmHDs/8fed4BHdV/5/u6dmTtdGnWhhhASQqL3jikGTDO4gEvcncRJdp3Nvt0k25LnZN9uNrsbb7IpTmwnzoJjbGPApmNTTS8CISGEJFBDvY2mz9wp933n/Ede7759u5jguDDzfRgZ3bnl3Dtzzv+cXyFpZZH8w3QAmhJEo7BYAMUoIRgUbAuiMZI9dDiqh8msh9Wmh81mgslE2AMDAxbpGOQuSV4NTLekLoSkZ90Eq4kKLKJfSnjwmy/DblW+cfb1Rb8sWbFH0DYSr98rAp+tAuH3utTEmxMRSEQgEYGbjsBSo0G3Ozs9WfYHVDg9fk3IEDOqXzPoJHrJZG/M1L4PFYnC+lj8G3kwUGILhMIf4BEEI0CACinxm01k5ayDw25ia2QDJUKyR2Y/BiGNTJ4EZOaUmmRjdUOjkTJzjPUECCtAID6qMSgR03vIhIFqFZI0FuJJ8XNi9gHpKsgsaKSGSbJZeDTQSKF/MMAGT4QVoGTOmAbuTlBSJ78GGoOAz5m9GhhjIeQZmeQgSQgEVb5eMeYQ4wgaD5D+gpCJJlaGzPbVBiMVTDLMJipCdHF8gbCtJgwG9SgoVsJpkoSidBwrWdZjw/YTMBl1/+ILRH4EoB2AAoAUqRKvm4xAokC4ycAl3paIQCICt1UEnlD0uld++d0vIqiG8cOXt7EssizL2qIZY7HrSIVEOgd3zijD9a5+1DR2YsaYQowvycfv9pyCxaRgdEEmQuEwjlxsRpJFwYOLJ/JKfP/ZOk6mK+eVMtPgeGUTiBZpserR7wyisr4bTo8Kh03hBOzyiZxHhcEQtXCI5sh1hqg1BJ/hPxQq/26I9MHvPnQLxfuEKROdj6oKnQaiWVKbPxSOsLax3apwy5+SPLEvLCYTO0NSEeANhjnRk+si4SqItUFFTnlRGnIybTh2vg0ur4qyolQMuILo6PFyIUIMD9ZoCJL2g8S6ByQD7Q2EuQgxs3kV4RbCPHKxW808tiA9BvqbYkEnTedBBYQkSRozQER19lMA37itntZbdLGJAuEWBTKxm0QEEhH4XEfgqSSL8ut//aunMTDowb/+bhe++cRq/O2vtiI3MwVLZo5GZ68bQTWIg2fqsWbBWFRe6cDaheNw6GwdinMz4PH7eTV+vWeQE+HUshwMeoLsn5DhsLLHQWqKCScutsKoGPDwijL0OQM4U9OBwmEpMJv1qG8awMj8FDR3uNA74MWSWSPQ3OnC7qPXOHEunF6EYRlJeHVXJSfchVMLkJedhKMVLWjv9SItyYhF00cwM6GqoRdtXS7ct7SUK4fKK9241NCP+5eVwm5T8Na+K5g6Ngd1TU585cFJ+OnGs+hzBvHsIzOghiPYcbgemakWVkC8b2kZquu7YTYruNoywLbPjW39GJGbjOaOQXx53UT+u98ZgM1qwtv76zCpLBsdPW4U5DhwvdOLshFpuN7lQV1zHwpykjGpfBhOXmjF7CkFqGvqR++AD2NKcuB0q3C5w0hPdaC1oxczx5fj9MUreOKeRXh7/xmkJNtw7lIDzCYj2roHMOgNJHwbbvKjmSgQbjJwibclIpCIwG0VgT/PdFj/6R/+9BH4/AE8v2EnVs6biENna9hkqXxkGuqaezCmJBtNbQMYkZOGq9d7sWbheGx45xQyHHaMHpGOzt5BnL/SyW3xlXPL0NI1CF8wjLwsGzp7vCy77PQE0TPoxSOrxuPytR509Xl49V6Um4rL17qxYn4xGloGce5yO564eyJ2H23AstlFqKzrQnVDHx6/ezw2v3cZK+aNwrHzrVg6ewR+/vpZrF4wCpvfvYKvPTCZsQc/3nAac6bk8Qr9odXl+PEr53DfslLUNPQhN9uOAyebsGJBMTbvqcPqhSWoru/FwVOt+PbTcxBUIzh/uQ1zJhfit9vO4y+/PA97jzZg1qTh6BsIYPvBGlaA/NrDk/HK1guYPyUfCjs+EujQgFe2VKEwLwnDc5IwuWwYXn7rIh+joXkA0ycMxw9ePIrRRWlYPHMEMtOs+MWmM0zdXH3neCRZTfjVphOYP30Umq978ejqO/DC63vxJ4+uwrvHKzFn8mj8eMNO5GSkYN1dc/Bn/7hBCwlQRuL1ESOQKBA+YsASm99ABBIgvRsIUmKTz1gEnnJYjb/+wTcehhoO40f/thOzJ5Sw3LGiUNvfh4aWHty/bDxLF1fXdqOoIA0LppZix6ELaGrvx5P3TMeZ6usIBMKoberC1x+ei5qrPeh3+dHS2Y9Z40agx+lHksWAitpWPLRiLLYfroPdouBCXRf+6MFpaLw+iEG3Hy5fGPMmFTIF8Ex1O2ZNGob9J5sRjobx4Ipy/Oy1CkweM4zFh8YUZ+KHLx3HE/dM5mT+7KPTWaHxez87gjV3jsa1lgE8cvc4bNlXizvnjEBjmwtmox7N7S4eYZSXZGLf+w1Isplx8mI7/v4bS9De42Z8AikuXmnqw6NrJuNMdStGF6bjbFUbwtEo/35Yhh2+QBB5WXakOYzYefgaJlLnoNvNwEc6zvL5Rdh3rBkzJwzD5asDmFKWgx/8+gQ7QN41rwRJNj12HKrDnXNGodfp53HEb7ecw7eeuQu/efMEvv7oKryz/yzuXzYH2w+dxbSxI7HhnSMYV1KA+dPG4E9/+G/RaEwjwmni9REj8OksEBIJ5iPexsTmiQgkInCLI5BPvkgAun/9w6esu9+r2nb0XO3i5752P85WN3D7nkYLm987zYf9o0fmw+sL4c2959hnITczmRNkst2MGePyUNXQAY8vimAoiLWLxuGlt07h8bunYc+xWpQXZeLYhUYsn12O+tZezBpXiM0HKrF0Zgl2vF+L4cOSca3Nia8/PBN1zb1o7/XgeqcTj66awliD83UdmFyegXcOX8VT943j8cQPXz6GAWcQf/nMbMYP/O0vjuH+5WNx8nwLvvzANHT2evCvG09hfGk2ls0dhYFBP2oaunmVn5WWjEsNXVg6uxS/23kej62dhpfePIUJpTkwKQZMGJWFtl43+z9Q12LVHaOhl2WcudSK0uFp2H2sDg+tnASfT8WB01e5uPnTR6bCH1Sxac9lFAxLwvplZTh8pgXeoMApFBek8N/pDjsiEQ3bD9ZheG4qFs4YgbZuN/qcHtwxvRDvn7uO0UW5OFnZhHuXTcXPNhzGsIw0FA/PwbhRhThxvhYj87Pg8vpRVdeEe5fMwree/11U0zQCLArqSOJ1wxH4dBYIN3z6iQ0TEUhE4JZHIFGg3wVgp9Ggl8grgSUImKMgaHZDryH1PxYTjssaD8kR02YfFh6i94SjMRj1Oh4jBNQoqwDSPrJSrLCa9WjpciPFbsLq+WPR1efGscprSEu2YPaEIuw6VotHV03C0fNX8dCKSdi0uxJP3TOZWQBvvluFR9dMwO+2V+GuO0pg0Bmw7b3LqG/ux588NhPXOwdw/AIl1jQUF6RjZEEqjp5rQZ/Ti+udbjxy9wS8ur0K86cUYtPuKjxw10ScrmrFmsUT8estJ7BwRgnePVaHuZOLMOAKYXJZNnYfrcWSWaNw4Ew97ls8jo2nth+9jMXTRuHc5RYsmlHM9MQ39l1AZ58H331mLq73uFFR08mMizWLRuH13TUYPTIDe45cxSN3j8fW92rxyOpJuHy1F3nZDpypbsP8KcXYcbgaOZlpmDkxD3uP1mP+9BLsOlKNhTPH4L2jNezV8MS9y7DvWAXystLR1NaJO6aNw46Dp7Fk7kT8ZOMe35KlS2fp9frm7du3k19Doki4wS+NRIFwg4FKbJaIQCICn+II3NqiZpVBJ2//3h+t4+/HaCSixTRN8ro97A9AFEKdrMJkNsBkVCDJRkSjRFskimAIfp/KOgdqiKqGECP+hXogaSLI7DcAjWh6UfYYkKQYegY8MCgaOnt9aGjthtsXZiMnmrsL+iBtG4PNrHBXwukOwGoxcgfB5w8iM80GlycgUP6yjMwUE9MLg2EwM4L+n5wefaEYbBYDWzWPyLGjvcfLdMhkmwEZKRZUNfQjM8WMqeW5yMlIRle/F1V17VgwtQh2ixm/2X4Gil6P0SMyMGdiPrYdvIzVC0rh8gZxuqoN9y8Zg1d3VuL+JROgSRrer7iG85e78ejdZcxYKC/OwBu7L2PdsjHYtPsSvrhuCs5dasPx8+14eNUYZKUlMfZhbHEu9hy/jJXzy3G+tp2BjyaTgrysDEwsLcCrO49xcfTkvYvw1r6TWL1oJt7Y9T6eeWgV3th5EGXFw9nBsmT4MLy174R/yozZ9+p0utaBgYHmkydPBhNFwo19lhMFwo3FKbFVIgKJCNw+EfgJgK8/+9BSTCgdDlUlrwQVwVAIUZYR1GCz61g0yOkOIS8nk5M/zesjEdLn0eDzCXqe4P6TUyNR+bgXgViUyIKkAEgBFeJGZrOMSESGxUJdigjz+snrgJQIw5EQunrd6HF6mBI46KZjkLMjeToI50TWY5KY1scrdzoeCRcNqTEiJhwkWYCJbJvZciG+PbszyvAHw8yuoGMQlZNojgRGpNY/6SPQv3+4QxIe0lpml0fScCAtAxmhCIkuiU4LURY/6LRIAMlQsycFCz+J8+C+/9CaXiO5ZTK1irHrJGk+EG2R6J2k1UAgRxKIItAmHYPOU7hiCn0IsqKm7QMhFWNKCmA1m3GxrimcnpG1KcVucbu9gcrysWMPWSyWts2bNyc0Ev6Hz3SiQLh9vvQSV3p7RIA+039Oan+jc+1Hr7R7aL3qvj0u/fe+SiOAbTpZXkoOxS8+9wwikTBCISoQQmzJHAwE2B75vTOXcba2Pa7mp8OaBeNRUpABnY4Khwg0dh8USZu6AARg3LDrPJKsBsydUoQ7poyEwWAGOTHKsgq9IfqBZwJ1FYxGIQpEKdnnV9HS6UKy1YyMNBMnWSpOZBJpjpITZDjeoRCCS0OGTlQgRNQIopo4B9ItIPVDVY1AMRp476FQPPmTL0NEJGpNY6MITsYEwiRAo7CDjiEcoUKHvBJIRpm6FZSYRdIn6iMdh4yphNqhuH5FEWJI7EMR921QI2QHTceg45H6o7h3/P9kGqXXQY1QR4YeZxkhlYovExcqNKKgAspoMseLI/qdEGki10u314em1k5camhBr9PNnRMqUqhAIhEoSZavLFu2bPauXbucv/cT8znfQaJA+Jzf4MTl3XYRmGk3K4eC4YhpUulw1Fy9HgyEIjtiwPrbLhIf7YKHS8C3U0qEAAAgAElEQVTG2RNLZo3IzdJtee+k9LO/fpr34PWSmA/g83g4yfQMuHG0sh7rlkxiWWKiPb51oBrrF0+FTkfJV8dIe/JLUBSFQYsvbz2BNQvHwZFkwrYDl3DnrDIU5qaz4qBOT4mWdIzFKl0kWUpkGtq7PTh4+hpKhqfB4wvhams/Yw+EWqPExYtwVhQrdvp3elHip+7Ehcsd2H7kGncLyovSsXD6cCRbFcZMsEMjpViNBI9odU7SyGL1f6GuE2drO2Ez6TGuJAMTSnNZnlmYQAkFJh1pE1HvgYoSSUNTmxMnLrZhZG4KJozK4+RN/gwk70yzGbNZeDyQd9QQbkP0UDRmd9C4Y97kXOTnJPPvqTNAgk0k10wFFxUJwTDJL+tgNBlhNOoQDOm4OCJzq3CEtiP3TGEmRcUIvZ/ULSk+1Ak6VlGDE5V1rfPmL1iiKErXnj17EsXzf/M5SRQIH+1LJLF1IgKf6gikO6zvffvJNYt/+84h6ZtPrUUkGtF+vuldVNa1NmmaNpHE6D7VF/DJnFy6TpK2Txw9fPqX7lssHzhdLe08UoEff/txPhvyPgiFQggFQ6wOSLPtN987iwVTR7FMcY/Th/5BLxZOLmELZ7NF4RU6JU6bTYegKuH1PecwsSwPKUlGVF3pxOjiTJTkZ8aTH1kqx90dNZIuJvIErcqB4+ebWWBo/dLRvCp/ZRvN90sZf0BFC63w9QY9J29h8ywCSEmcioRXd1Vj7YJRjJXod3mw48hVPLZqAshwkZIn2TDTsYTyMtk96+APRPDqrgpmW5Ci4YtvnsHDKybBajbCapGhko8DYzFoVS7AHzQSeHHzGUwbmwOXJ4QReanIz0rj86HuACsyKuAkLzoronNAY5ejFddw7boHqUlGpnlOGp2NqWNyodMLkyjyY6CuSoRdJfVsFEWCTBSPSFQHk6Lhhd8dQSSssWrjvGllyM7IBDTqsYgRh9FAWA8Je4+ex+GzNS1Lly5dEY1GW959913fJ/PIfTaOmigQPhv3KXGWiQjcSATknLSkSMGwdGnmhFGYWDaC30Orp1++/q5WdfX6vpAaWX4jO7qNtskCcHjG2KLSZ9YvlTbuOIKj5+u4Pf6Tbz/OrozRqDBZitBcPhJm/X+vz4drbb3odQ5ieFYqUu1Wbs2TSZHBqBMrZ72BgYz079GYhIqaVpyqbkVepgNrF5eznwAVEkF/iFf0eoMO0XCEuwLU1if3R3J1PF7ZhvOXO+GwG9He68ezD02G1WQQjo48T5BhUvQIEjMirEFR9AxMVENRHL/YgivN/XhgyViWON57ogFPrZ0cLyKE3wKdJ1s5U6onMyS9jJfeOoPH10xG74AfW/ZfxheWT4EjWeGiIBKmwgBQDDTeEAVAV58Xp6pasHbxGJy82AK3J4BFM0q5yKGRAZk/kakTu01SwRDHHJA3xMtbzmL5vBKkJTvg9gZw9lIb5kwYxS6RZPHs9pIXhfBoIEMn6srEtBhsNjJsoq6HhN+88T4evXcmAkEJP9/4Hp5evwSK3sy0TNqWtqORxtZ3T+B09dXaWbNmzViyZInvueee+3daym300N/opSYKhBuNVGK7RAQ+/RFIspqVwUBQlRZOK8N9S2bBYqaxOq3cwvjp73Zrl651fBfA//lDXcpzz0F+7jnOPbSK5IUj/fzo7KxMnT+kFlYOup/jBrR4PQfIz8VxawsWQH/4MGsRfFyvLINO99aSmWPmLpkzAb/beRRVDa2XIuHYGVknPfWPX1//wVCfWATkwkhteE6mBPgjr4FwmIuIWESwDGiGTjgEs4WsnsWMna6YRwB85WIlS3+Ef0I8Khwg2m+UwY4CDijm9BQ1SpzXu9zIz06C3WLiDgGNE2gVTdvzSl2vh8GgRyhEXQgaV1BYY6ht7GeqISXo4dmpyMmyCdMkiQCOej4SjUrUsFhtU8If9PhwsrIVVrOC4oJMZKRY+ZiU8IMhKkJEkqf30Q7CEeBCbTMa25xIdVix8g4Skfp3LwjGN9DIgTslorDgDkQM6BkI4ODpOoQjEfZ1mDmuCMl2C4JBcpEUnQfqHFAhQB0CxSiu3WIxcFGllzW8uOkQZk0u4tHC/mO1eOYLCwHYGHypl3VipAFg49sHcLW97x+WLFnytzt27Agk2Az//UcrUSB8XF89if0mIvAJRaC0tNReV1e3KdlqXPbHDy3XF+VnMSWstrEN//zbnU3RmEbfpB/nK0MB0hfPz5rV2BoZX5ifXeOwyW2ptmE9em9vq3OwvUQnyy5Jg8UVibi2nenjPrdOwg8gSSuNBr0syZIWob61rL0XUrW/ANChAQNDBcYtOHnFatZvHVdcsPKpexfj7QOnsf/kpSY1GlsAoFgCdsqyZKT0rNNJEq1ALUZaaYsj0wlTO55MghSdjGSbAMzRBrlZyWxY5Eg2wWLRszkyofs/cDqkbgHD98Xqn2f/GhUfAhhIK3+R3HVsrkyzdHoRDZLwCUM0frZapvFALIZQOAazUYHFQstzUcREY2GE1RgiWpTPl7oLNPYgHwYqFmh2T6+YRnbJMZjM4PMOBCkBE4CRroGKDtE1cPuIhUDW0OLUqStiJftmhQoZGT4/EAjEYDbTdRAYkuyqid4pTpkKD3JtpLOmwoJuOBUIVAiYzAKDEYkQ2wLw+0VxRfv2+SVYzDLHIhLR0w2B3RpDDAocyTSC0OFqSz+OnL6MYDCMFQvHoaQwE6EQxVxGKCiYDQTu/MmGHeh1+R+eM2fO7v379xP+4OY1EW4ttfYWPNK3fheJAuHWxzSxx0QEPhUR0AOzIEu7Hlk117Fg+lj+rP/Lxl3axbrW+wFsvdUneeg56J/4ieErrpD07awMe+6qBRMkWTagt78PJyqbtI4ed09GkqlhyfiUvYpZj/3nOqa09KvjDXr98JkTinUTSnMkWpAqvPJWOLk4XWHsOlKlNbR2txoN+GZAxeZbcN4GvU46Nmt8ybT1d82WSJ73ZGV9tTcYXgagkzKzApRnpxsL1SgiI9JM885cc//F4ytnSgwOlDmpa9FoVKJkFgyF4XT7PgAIOj3EdIiwOmFQVeELhhAIkq6ByEVDAkr0MxUHQ7iBD18XbTvERmAcIfEWKMnGuw+iFhGdBlodE+Kf9m42UtYnC+ehHgRvGS9p4h2JOK1wyPkx7vwsip44nYDqEFp9UxFEiZqSvNheJG7uNFAcBHNTsAQY9CjGD0RvZMBl/OjEoKCVPLX8qUAh22ub1cgjGWKOBtQI3J4gx9IfijBbQa8bwiqQO6SBRaaS7SbkDaMuSArsdjN3OMjEigoB2p4KnCFXSpdXB72kRzgqijEqjr7/whvagMt3NwlhxYNy8wXCLXgQP+27SBQIn/Y7lDi/RAR+vwhIVrPS8dzX1mVnpCQRghsvvnWQWquW32+34rufRgKHC6FU9urWxTTpL0ePyBw9b3KxNK40GwbFiFg0zLx1QI9Lda14//w1YgUMGBSdR9YpBSvmj8HYUXmSJEcYZR4MqLw8p46HxWphVcBAQMGRs1ew5b2zZ33B8DyamPwe555nNepfGD0id9Xjaxfg2PlabNl/tj8a02YDqP/wftetg857Afq07MzRm473XviHZ+8jPUWmOyoGhRMgjRhkHbEWDLySp4RPbX4STYrR6CFGLFNiBjAuX2gXRGj1G2UtgKGRAo0KSA+BEPsSVBgMRu4cEIjPatXB6wnDaKbOgwAU8jyfehNximAMYUb6Q6JevugyhEJC94DAftSRIIwfKR4KZkA8kfJsXnQyaDXv9vkQDNLsn8YAUfhD1H0Q+yNWhdsb5E4ENXfUsCq6EjrCGFBHQZwvHVPoMfx7UROJxRAMEahSUA6JEkkAy7gIJfQGGUaDgUWhaAMqMD6sRElaDNRUId0DkrR2eUO8DyqDyLyprDgbOZkOWM0Gpo6ajSYuMmVJgcNu48LEpOii33r+VXj8oZQEWPfGPkGJAuHG4pTYKhGBz3IEvl9WmP2dbz19D65d78Tfvfg2L/Jutr0axwkw2W3FJEfBuabABoPeMP8Ly6fBZhJzauKx6xUDA/yCQVIT1EGSFUSiKl5+u4IZAWokir/7xnLY7GaE1TArAoaCKs/VaY7vcNig1yuIRQyEgcfzr+zRLl5tXR2NYtdN3gwHgJPTx4wY/bWH7sLOw+ew+/0L/X41MgnA9f9qn4SDKAilZb16qr/1X/7sYZmSpjcQ4gKAJH6tJgUmyqbM5ItBp9OzR4FYPRM/P4KrrV3YuOsEppYXYu2iaaIzIEW5IKDf02qfDJ8knYxwmNrsIYTUKGMb0hwWXvkSsE8kXLFUF10MugVCY4BOIBKmGT2t6HVQVSpQotxfoIQdoeU9sR7iYwFRWNA9GbpqUnaMMa0yNVlhxoKYZtBVgEWLyFtBgw4Ws8bW1PH8zudBGAPWRpJk6CShEMlFCZ0rdKykRIyJQTcxDWiMIiiTBFIkDQPBiKBLo59Z3okxGly8EEyDZa6jrLHAsZUJBKrAbtfD7YvgbFULztc0YdAd5HELFR8Rqr5E+4QbNULjAVSxWeM+Gzf5GN0+b0sUCLfPvU5c6ccZgU/3PNJoNOjd3/3qfUpORiq+8r0XY6FI9B4A2282JMuLi43nuxr/yRPCQ6OLstPvX1zGCUGLCeAeIfQJdEbJz6AYxMoREk7VtOF4VRvSHVYMH5aEe+4cyyvGCFMJVd7eZDHBbDYiJcWBaEwPNUjoeQWN1zu1v3/pbTUSjWXehPhTmU6SNsydPGrqA8vn4HRVPV7fczIUCkfvACAcl/7/L1knS+ov/vopnc/vR21jB4MHQ+Ewaxxoksw0QrFyjsHrD8BqNmHelHIukDa8cxjDh6XjcEUt/uqLaxlwuGX/KWSn22EyijY9rbgz0+zQywTGEAwGu8WAvKykD86KmAlb99dwknT5Aqx/YDUZ+VyIwUAAQHotnlXMYEYCHb57vB4mReEVOY071GiMCzEeTjCDQcZ9Syfwubd1efDKtnPIzbRjZEEKcjKSUFHTzudGxRB1QEgtkRgWJkXHXZQ0B7X59chOT+auT3V9Hzp6BljMyGSgUYOMVIcNXj8pUUZgt5rh9qrw+WPckbCZzSjMy+KxxZVrbVxkJNnNyEqzwkgABEgwKqy2wBgGInYw+JE7LnroDSboWJkRsJkM0EnUwdHw/V9sR0t7/69NFsuv/H5/Ok1fuI0FLhC23exzf7u9L1Eg3G53PHG9t2UEZODlbz1999OjR+Ti+794E+1dzq+GYrFfftRg0Ira3mF3HGvz/8husz26Zv4EyWElbjqJ/UQ4mRDgjVZw1BWgxKPX62g1h6qrPahrd2H2uDxcaRnA2vklMBAlL0Q6ALR6jrBkscVmgc1mgd1ug9XmgCTpESSgGaB9/e9fibl9gQcBvPURzj1bknB40bTykQ+vnKc/dbEeG7YfCYciMaJ8HriR/Rh0cvTF//0lWajx0dgkGMfFC/YAsxtiMegVJS7yQwqEtJJXUV3fiot1LewLMHXMSN5WloQkMwkrDWEEKGFSEhYKzBJUjh8tgoVks4FaM9zuJ9ijGBHQKpsUDelni4nEmUiKUPyOirLKK12oudbNcSWXR/JhUIwyxoxMR2qKlTs90ajMgMLWLie2vnuRJZCJ4picZOH7SCtvGj8EQmEeMRDeorvPC7cvyJoJtN6fP20EcjKT0TvgwpXGftaKoIKArK2paIpqEmsREN2RwJekpEivlCQrZk8sRjiiQ+21FnT2OfmaqJtBXRq6DnoPxZ00J4ZAovRMUYFw1x3TkJxkxitvHUKf04X/8ycPwG6x4js/ewOdvYM/BEAA18TrJiOQKBBuMnCJtyUi8FmKQF6SYXpefu7px9bcgd4BD/7h5W277l+U+cDGd7tvWCiGOr13lNoWnmn0/TKmScVZDqu0dEYpUq1EQQsxqFAldyD+Uhd0PRojHLvUiT63ijHDk3Hh6gBK8pIxdXQWjMT1p94yz+Vplk+APVoZ6mBPtkPW25CekQaDwcJJLBaLad/+5w1SKIr7A4HAlhuMfy6AI8vnjC9cf9ds3bb9p3HwzKWwNxAuBdB0g/uAWdHFXvjulyWmNkaEVgFdIzMQKIkTO0CWoRiNnNxoG0q+VCRRAUEJmla9NH5gjIVMIwrRZqcWPa3ohe8AJUeBmyOMglADFBgCGl+I9rtQDGQKJSTGAVBSJ74/+RWInnwUiOkhGyS+J4T0J5EiKliIQaDTRaEzEP2VTl1m3AGNHLz+IIxGmQGBguVA4wI9F3qke0AjDLeH7m2UBZNkCBVHs4lYEtT+DzPlk0YxBOgMh6jkQZxdIeScaTwQDBm480Kxo0KKnhXWV5QEODMWJW0I0jkgTQfShdBDi0Z43ELURqvFzBTIJJuNC4kXXt/DFs/feGwl8rMz8N2fvYH2HucPAPzVjd7jxHb/bwQSBULiqUhE4PMfAWlmUdLDqj7p1cfXzOeV1zf+caO6dnrusDEn2wY/rEPw34Uix66f7Y1o22dPGJXqdHkkX0CFFg2jzx3AyGF2bj9H44NpMv1p6/ch2aLAatThapcX88szcPxKH1bNyEe6Q6xOKakKGH88QRBoTq+DxWKByWqBTp8Eg2KHYlQ4KX/v529ow4uKJ9XU1FRNmTJFX1FRQS3j//KVm24f5Q2om+dOHj127eIZ8v6TF7H3WGXYFwrdHYlg30fBYJgMutgvvvMlqbmjB22dvbyKphU+gecCaph1JvwBlZO0kCzW4A+qXCgoet0HOAWT0cCFgD+ksrfCkBSwEIggEGBAaCZwSIS4kGArxHi0QCJNNoslPr8nih8VZ0MeCiIMZGQUDKmg+8MlxNC+AB432Kx6LgTqmnrZGIkYBUKfQWNcgc1i/ICFIECEMgMBSYNgKJHLcpRHCoQhGFIrJDYCYwyphOGOigAbEhWUO0sQWIUh8yUGbkqAWVEQCEfg8QXiOgzcLeLxhMWoIDXJAkeSDWajkYsDEoUSGAkZZpOJY9XU1s3HLBuZz92G7/z0TQy6PH/nVyN/8/n/eH98V/jZLRA+3TPfj++O3Yo9J2J3K6L4mdnHY7MzZ13rCY3pDysvPbZiNn9B/2rbUc2u+f73xMzk5+lCNlb9j52EAqvRUDVzTGHy1NIc/HrnKfjVKCyKjFA4ysl//8UujMlPwtVuH3JSzDDqgYZOP1PPSnNtaOrxoyjTgknF6byKpLk2z9tlkQSHEqusIyMeE7Mg9IoDitEMq82Kxuvd+NmmveqyZXdN7e/vb1l++rSXRJXiJL7/TFcrTrObD08fX5K7/q7Z2HfsAna9fz7gCYTnAjh/EzcvotfReh/EYXRrQqggKkmSrOjgtZvkxtLC/FBmuqM4EAi4nU5nryJpA35/INzYF1g64I8OJ24lJTMyDKIXd0yGToSLAULkG1E6Igc56cmwWkww6EjIKMadCKomaAzj8ocYwEhMgoFBryit4gUGtRaICpiRakWy1cQUP2pw6HWkixBB/2CAZaGpmBn0hpBkU7By/jiWM45EaawRQ/8geU4QloS6GXRvougd9LCdNBdEQRVmkw4ujypW+3EaJgM1+Y/waxByyoJMSEURrfSpaKLf0TZDxQv9yKBWEn3i98aFqOL+Eh84PRK60KygfEQ2SgtzkJWWIlgPArao6XSylGS1SAE1oj2/YZfk9QefAPBvN3GvE2+JR+CzWyAkbmEiAokI3FAEHp8/bH5zd3CMZEn7xeJpozkRn6q6iqOVVztXTUj9C5s56UB/Wn3X5s2IM9n/4271wGKLxbjzS/ctMjlMegw6++D1+REOhzDg8qPT6UPngA8mRUbHQBB56WZkO0y8Es5LpdWuzLNv+rKhxEAFCvkHsNUxKe9AEu6CBFZUNUAmcR5iQZih05lhMplhT07GziPntBNVTX8zd+70tzXN4DeHOxWrvyMWjUmeTad7ej7UEVhkUnRb1y6alrxk1gQcOXsJ2w6cDXkCKlEZb6Y4oIBQYUHZaGBUmtlZkqMYU+0mr6TTsg1RnSuKSEoUckQnySmIadlNvf6ys63exyNRbcT4knyJ2vYTSvLQOyiUBs1GM8wmUSDQSMXtI9ZCFB5/ECcuXENb9yCIllpSkI27F06F3+fjDgLFlNrtxHKgwoq6BUIsKcrURGg0ThBaBZTMaZVPM3zWnGLNApGY6b8kfsSwBtoD75tGDwJvQBLP1AlQVRr/kF21wAOQKZOkEW1T4B+oTGIsIbcaJITJdTFK1yIMlOjcTCYZtU29OF3djn6XD8PSk1BWnMv7sRlN7EtJIw2iIjI9koCIjDsgFobGWgmsXAmyug7i8Nl6xjcMFUY6SVJlunDCXcRAPA5dTBRwxFb4fSixN/T5+jxvlCgQPs93N3FtiQgAeHhGXsnR+r7sGZPK359QnCPm4bKEXccr0dja1zN2ZM6z6ZamHZtPIvif2u42AH+d6bD/r4dXzFbysxwY6OuFe3AAYZWQ8DH+kg+GI+h1BZCfYRcCPTwLp3UdHYdAc2K1zE100grQ6aAzCGAf/Z7AdzRukCUC2Rm4QCCBJb2BRHUUnjcHIzE8v2F3z6iyscuzsrJkOeQzKFHndaOnL6iYYln+nK4rVOAY9fq7zCb9q3dMLU9bs2ga6ps7tOc37g6r4Si5Wb5zCx8I7sORVoKpLstksEeTAcVe0xVc1djtuScQweyZ4wukFXMnwmKR0dLRz8lx1sQCyDpKvMLBkeifXj9lWyHNTDN/UhM8eLoJbV1ODHpVdPd5WH54bFEuUpJsPHsPR6kjIPQGCCvAxtAajWwIFCrwCYT+p1U7lwAaJW5q+VMHg3QmhBESIf6prUH4EdHyH5JpFrgQSvDUSeBkT/eUgILUHeBjilYkdXwIG0AJnaiYhHEY6gTQ+VXVd+NcbQemjc3HolllvA9fMIrdRy7hrtll7O5IowfCXFAxQYzMQFCD1UrXEWNdCSoUaFTReH0AVXWduHfJJFyovY66xh7UNXdpDrP+4Ihs2+6SFOWUX1WDfb5Qy4ErnoGPMka6hc/G52ZXiQLhVt3KRNv+VkUysZ9bHIEvzChOqu/tunPqxMlbqHVNK1VKDPSFf7a2BYcrrsYsZtPFVJP7znXFcDcgN/v8pZ7MK33hPSX5Gal/8uhKOeD3yt0d1xHw+aGqARYB+nCbnIB57DEQ9yoYMhGiFSyPENgbQPgOEGOBChTi63OxIpFAvwxFsQgpYeK6Q4wfDIoCs8WKn7/xXsQTjD67aNHs3bZAz3B9VJ0gRSIu6DAoh/wDnf5oZUOvOnnQ4z+yfN5kaemciWjvHsB3fvamGtO0pQRUvMVh/WB368ozbPMWz3PsPV9/5tiFuuyRuenSE/dM55V8KKSHYtTQ73Lhjd3n8edPz2UzJDWksgyyWLFTxiVAIo1ZKLkCm/fVYtGMEiRZDOgbVPHSltNMD5wzoQjTykciRCJLMdJSkLiwIFEki4niqwmvhDigkKyPqVNAiZ8KCTI/YjRAVOAHwhHhqEhYh0iYtBMEIJBop+SOSAmfWA9UCAh2ATQqcBhQKetIhpoLBAIxEhyRfiYtB6I5xiIRVF7pxJGKJnxl3VSkJNvpzXy9BLjc+M5ZrFk4FgZFB4+HOhG6uOQ0oIboOSFDJgJQkjCVcI7ccbAGy+aVIyvdHu9SGHlk8+st76OpbUAryrb+eGK+ZZNOkyMmFXUvVnT4P677fjvsN1Eg3A53+VZcY6IAuhVR/ET28ejSLGvNFf+i1Kyc7fMmjCRJHZ5J0+qQ2sN9rhA6B/w4XtFAILmYGolIxflZ0vjSXBTnpAFaFD6vi4uDgM8XdxCkZCRWkUNCvtwtiKvSCFVB0sCPC9rSLJuSlNDw/ZDlLy9FIUkGGI0WWO1JDLAbktgj+98jlXUIR1EX8ASfXDmtoEuGWhIFsqWY5pC1SL9OUxsr+w0ru/s9f33vkpmYMmYkqupb8Mq2w2Gnx/8dAP8U5wp+XPFPyUq1vaWXpUVfWj8XmY4kRvOT4iKt6H1BDQdO1+LIuWZW+huZn8I6AoMeP3dcUpLMSLIZMHN8AVIcRJPU8ItNFfjqg1O57R+N6uD1xtDS5cTu96/AbjVh9vgitlTWUQdA0qCGiG4pVvpDLIihezGkbCjEkYYcIKnTEAdAUk9f0iEUjHDipzECFQaERxBGSTLCkTDvl0YVNBIR84YYF3CsCMmYA0r8orijLsHV1h6crm7DU/dMQkaaTRQhEaHiSCqIze0DqKrvxMr55WjpdOFSQxefE+3a6wOy040YOyqHY0OPVjAUxdZ3q/CF1dP4PhKkQ0+tDyjMwLjU0IOt750BYuGDUwts38tKMV4xh7qdL1aw9kHidRMRSBQINxG0xFsSEfisRWBCgX3VQEDa/rV1iyTCDsgyKRaK1St9uWoxHRwpFoRCYWga0fNIDVDIBA8OuOF1u5n/L1b8Yv4sPARo3k0dAU5HjCkQqHah4EfdAlot0oo5FovwvxNLgV6CXy9Db1B4RUvSylRk8LxcltDr9OPQ+Xo8uGohdh2tiNk111+WZllr+KgyfIjJ2ZJR6exVkx6sv975lXXL5rDWwKEzl7Bp9/GgGokRSO2Nj/leGRw20/6yomHzv7x+ESyWGNxuHwP5mtvJg6IRHp+KkoJMVDe0497F45GaTAJJZGQkknskGsbBU82obx7gRDyqMJU1DO6cVQiLyczURfYTABkbxbDnWC2uNPViwqgcjBuVzSMDUGEQpX2pnEwpGdM9IgAp7YsSeFe/h++JGA1pcPtIrpjwBf8xDYSjJPYUgtdH9tZiXMQJWS8zU4UYKjRSMJv0ccnlKDML6J6xPDIENoJu8/plZZhUNoyLURpx0LmoYQ0dPYNovN6PQ+dakJdh5WeCipN5U4tgMxlZR6GuuRt9Tj//TF4MuVkONqQaU5zF7AUyvKJn1WQiRUhiYxjR3evDxh0ntY7uAV9ZtmVeZbuv8mO+/5/r3ScKhM/17U1cXPgns94AACAASURBVCICIgKKgvJYVKr+22fWyKpKXQBapRPQTfDSaWXPFsQaaRmEOCkQYp6+9P0ESFTDiKi0ihSdAaLzsXGPTsfJ4mh1BzpdVFyQc6GE+xaUQE+ANp5vC/lhISscg9FsRiRCBQN9/dAoQQ+TxQyjUQdNo3a1ij5nANuO1GD9kukoyM/BT1/bp80daXrWbIBHiklaTNJkWZIHanuldS09g49+7eHlKBiWgV3vV2D74YpgSI2OSwb6XcBcGZgVA0j3ID8ONBTISKFAVAfgzwC038yzIgG7i/My7vrmF1dLyXYdAqEQAqEgXtt+CklWC6aPy4cWI60HGQ0t3ehxOrFoxiimKQq7Y2GdTCMCekViIfxk4wmMLc5EU/sgLGY97l0yDukOO28jXBJ1CKp+vPTWaXQ7gyCDK3qFCY8gSXBYDZyoB71h7hgU5SZzgq1r6ueLHjcqEzaLgmMXrrMWxZpF5Who6WdBJVJFnFyei+MXWvlerryjFMfPNyMQiiAt2YKUZDMLLg24/Vg8cyy2vFuBnPRUSNSBCKu4dr0H40floPLKddyzeDwmlmXy80I0ULKWJr2FXUeq4Qn4ce+d5Wjv9uLKtU6sXjRWeDQQSJUwK7IATA6BFQmU+MrWcxg1PBPXuwcZ9EpxIaYH6TRYzFQQ6RCLkB6FCc9v2IsBt6d5dXGsdPNlCL5n4vWRI5AoED5yyBJv+A8RSIwePisPRCqAs3/z1IoiOeaHrBMKfYwN4C6A6CZQh4CKAUaoD/EHqbWsUkKnOTlhD8TXhgARylwktHS5eHtKSD2uIGqb+nHP/BLWQaD9C7VEKgaoCBB2xmRaRDgExaRA0mSYLAZeaYYCYVyo6+SkNGfSKBgUCzbtO4XBQdfF7GRTVYZN16DXS1d15pTFde3OpxdMG8tt70FvAO9XXPH3D3oUh80sD0t3yGkpdpYjpuujTgm9SAZaWBoIrQICMnb2OXtC4ei/AHgRgDN+U6kvIlB+//VriUGv2/M3X75HV5BD4VXR2dePt987j+ljR6IwNw3hqB4h1iOgeEfw1nvnsH7pJMhkoETdE8JjsEOjwIU0X3fhncM1+Pojsxg0eL2rH+dqumA2KRg9IhtF+Sli1i/LCIUiOHjmKhpaerFm0Tg4B72sSZGWbEYgGIHLE0JpUQYneMJE/GLTMaxfMQnb3r2IuVOKcOTsNQzLSBYeDD0urF00FucutaKj143MVBuWzCnBr948zZLLT94/A8+/coh1K+ZOHolUhwXna9pBltOzJ47Bhh1HYLeYsG7JTLy09RB3F7760FxEwyEEVRpB6HGxrh2nqhqwdE4ZJpVnfTCyePGNE7h3yVikOayCcRGOK0rGu1J0vfQs/GZbBb58/wzWWrjc2I2Glj6MyM/AhPI8WE2kwSE0FkIhMtIy4PXdx3Gtredcnj26+JHx8D93GHH9xs/KR/aTP89EgfDJ34PEGSQi8AeJgATsmDexZNU9iybCOdDDanv05Sssg0U1QMp21B5nox8NUIz6D8R6CNxIxQMlJ6GDb2B8Av1MPs2MapdolatHS6cTwWAYBZnJvB9Zp4h2eiQSXxkS4j0qGA20L70Co0mBx+1hYZ6Xtp/HfQtGI9lm599HNT1+vvkIo/dtZubV8Wp5iOpHaP28DAfWLp4ey81wEKFeYB3I8IcFffTMnPB6POyUaDCbmbNILoPUEh9we/HjDTvh9gU8Zim2LDmCyhV3Fikv7m90/zdI+OoMh3Xs5PKRWHHHJEgxP97cewoTSwuQm5XOMsQ0n6e6hGbyRqOGi/WtPDufWJqLmCZz14TGLMK5MIZTF1tQPjIXVgu13IXLEKslRiJ4c995FixavXBMXH2SmAg6XG5sx/bDl/HE6klITjbjpbfOYNH0Eai51ouR+anw+FWsWTwOL20+ieXzylDb2IucTDv2Ha/DqMJM1kTod/nx9L3T0DvgxcX6TqavzpgwAjsOXoLDbsTk8gI0tvVh7uRC1Dc7WZNi/uRiHD3XjGljC3HwTB2LGa1cMAn/9Jud+PtvrOIRltvtRSxmxPbDF9Ez4MFT905lACMVlizjHNMw4Aqg9lo3po0tEGwLUpuMP49UwNL4quZqN85dbseT90wRYEq+rzpUXulGbUsnvrR+JhR9XKkROgSCClMuf7rpXZLF/iN/OPZCgtHw0b9mEgXCR49Z4h2JCHxWI5CuGHRdP/rTh2Sfr0+iNj+VBVpMYAu4g6DFEAqExCiB3P5oxc0rf+GwSNux9a9EGv5RWKxmGPSUwMR2hH6npBYIxGAyE1o/wih64tWHibvPoMUoQqEQK+0ZSMVPUgT3XiN7ZE6HeHlnNR5cMgapDjsXDEazgo07KtDn8uOZtXOgGE2cdOn/T1Y3cD4pL8pFZX0rvrBiNncohPMfnZegWgovgyExH/G30WiEGgqJUYlOh2st7dh9rDLW1TtYMS4v+Wvj841Ov6J1bz7c6/1PN/3PMlOT/vE7X10nbz9wGt19ThYoooS3bE4ZIqrEdES9TrA3DIYIjxRoBPHbtyvwpftnQ6dTWAKZNJAoEVKwX9t1Gl9YNT3OEqCCShQYVDzoDRKOnm3m1fPCqYXITnfA7Qnh0LkGLsio9f/IyonYtLsSX75/On7x5mk+p3VLxjMQctfRK7je7cLDq6fBYbfgu/+6EwXDUnHfssn4t20n8fVH5+I3W05j3tRCnKvuYOnieVNLsff9Gk7qaxZM4ST81v5zcFjNuGvmaOw9eQXNnYPITrMjL8uBqqvtmFyeh1ULyhAIBhEIAKcuUlfChXvuHMfMBGEXQWMtwhCIBs3G7RV4ZPVUBkoSBZSonmRYReMvktm+UNuCDIcNBbk27lpQp4FYIpqkQ2efH9XXruOhVRMhkQ8FO0EqCAYN6HX58Ks39kcjavgBFbhRee7P6uf7lp93okC45SFN7DARgU91BL5g0Mkb/v7ZeyUtFuAigQCJqkqmO8IdlxI/AwxJ6U8mq1+SBCa8gQC+BQOkPUOrdwMUxQib3Qqz2QpVJQ1+FUG/yvgFAjzSalDYAdP4IgyDSUHI70WEaZJE0TMIOh0r9lEnQ4j5bDpwGfcuLkdakhn2JAWRmB4bt59noN0TK2fATKpAMQ2XmrrQ2euEN6Cy5DGpBxbnZ6AkL4PbzdSapykBgdhIU4EKBQLm0fkYTEYWASL+PmkwhNVQfAyhYffxKq2uqb2zdJjt5yV5yr+NOdnf+SFJarJYrLz/zukjFkwrg9sfQmdXH17cegjTywsxb1IpF1SKgXQKaHRArW9K9DGQ1PL+k43c2qdOAZkWEd2Rugt1zV1obu/FnTPLuXgiuqJBH+FkSDGkkYjeADRfH8SxymsYNTwDzR1OZkVMGzMM2w/Xo3vAh6AawfqlY/G73VVItplw/51jkZ5mYyfIzl4XnnlwDmsLfOcne7BifjlmjB+On792FA8sn4jXd1fgweVTcPRCI3cT5k4uwt6jtcw++OJ9M7DnWB26+wYxc2wRj5uau5xo7R5EbkYSJpcWYMuhSvzVlxbAZjXw89DVF8Cv3jyJx1fPQmaGke+Jkayt4+MDtrGAhOOVzSz5XD4yD6FAgAtXtqem+6SXsP3IJaycW8YFJOEwyDKabawjRKPVwauGcOB0PR5ZMwlWdtbUw+eXsPf4ZbR3O9HeM3goKuiuiTHDR/h6un0LhMTs/CM8JolNP0cRIIBeZ+nwrPRvPLocbpcTAb8fEUruEQInatArlKwNYtWqNyAj0wZJFqv8kOpjECIJ4EQjxIU3Ijs7HR5vGLWN7RielcrviUbDcA4MsiQwGQTRGCLg8/DsP6IGeHUo64X6ngxCoZNYkpDeocRd19ILf0TFgim5zNcnJP9vt1eiZ8CPJ1dNgcVEc2bSV6BVtorNBy9hyuhcbo03djhx74LJbEjEaoUMwNQxZZAQ9LQvi8WACNEQCT8YIwXAKEKsF0CJXQ+jQY9ztU2xPScuRUdnmR+bUZb19m8PN5OQFL1m6WTp+I/+/FGJ1AqpGKpvbsd7Jy5ixriROFfTiHvvnIKsdOquROOqh9St0HEyC4Q0bNx+Gk/eMwfRGA04qIiQsPGd0zyfT09J4tGPxxNitkFUo3Y8CwUylZAKno27LqB7MIgvrpmEZCuZGgnA409ePwebWQ93IAyb2YDczCQ0tg0if1gyuvs9cNjNaO/x8kiD3BVDYQ0pdhMXFvQ+b4BGQEL3QNFJLKdtIJMpaumT+VIkBotRRoDAhADsRh3cwQiDHUnIKD8zCY+vmSJEnKLkJtkJRW9C8XAHjCbRKaFngGJOug+EsyCdA3Kk3HKwGvctmgyjSdBvqblA9zcclrDr6EUsm1UeN60SZldidMP9LMQ0HReSxPB4YMUEXLzcgT3Hr2LG2GLMmVSO517YEtWrkSwP0P85+ix/7Jdy+xYIH3toEwdIROAjROAPXLDqddL+3MzUxTPGjMTsSaMQCavwetycwFQ1CEUxM4DObDHCaDRx4iQQnd/vZ0BgMBgS3QGdkdvWl651oKqhBd96fBXr47ucg/D5PCyoxM6OxIoIBTg50MqTRg2sACgR2JHsoqluoX8gBUUTugY82Hm8Ct96chavOBua+nGiugs9Az48ctd45r8ziDLuA7Dj6BVOYkR9Y0vmSBRLZxZxW5rtken4EaL/6TihUGGgkHIht7qp8CF7YWJuiCROfHySQ75wpTG270R126xUbcyhP3rO33lHReqIZTuPrV82vXT6uHJmeHi8fuw4UsGdA5vFxLS84xevoDA3GbMnFogRAQEjNSEaRavoN/dewNiSXBTnp/FowecPYdOuCnzx/llCcyAqcCGkbyBUEGlEE8PJ6kbueJSPzOKV9c73G3DfwjKYjEKBsLnTjTcPXcHInGRkpydBbxAF0hDKhDIqxZvHL+SJQD4PoQhMJr1gQ7BvgsamUCxmxWBOMW7iv2WyhqZRlMIYDrrXhBGh0cnu41Sk5WP5nBHcQaB4b3jnPFbNHw+LRYKeaJ30kYg/66EQuV6KM6NjXbjSyc/cxLI8doQUsYqhqq4bgx4fZo0fLsyiJCHyRCBXegDUsBhXKGYjKq40oa3bjfIR6RhTkgOr0Q5ZZyOpbdS3dGwacAce/gifytt+00SBcNs/AokA3K4RsJmV+8PRyF+mJ9vH371gqj4jxQZj3ErXYjbxLJhW/vSipEXgQ6/fD38gAJfLh6OVDahr7gjrdLp+h8WodTh9w37wx/fy+1xOJ65e74JN0cGRZBHKfCy2w0s+bjHTrtnNkECPBsICkDaAAr3RhEGfijfeO4e/enoey+nvPX6NE8vlRie+et8kbksTr566HKT9T3S4K839MBkUNHcNIDXZjMuNPVg5rxQZDnOcUsmORohEBZNCMQrrYCp4KOnRajYUIgonSRAL10W71aT9auuRmM/vee3Iy3O+9uzz1fdX1vp+892v3iOZFRmdnS64vUFsPXgO65fMgMmkcAI2mVS8f64OXX1unr0nJ5FQUJSG7zx+aO924fDpBqxZOI6Tbq/Tg+qGLtwxpYSvBRqNO4SFdCgURVuXh1vo5SMzGOCoxYRZU8XlNgx6Qlg4tYgTLYX3jQM1GJaWhDULyyHrFfQOejkBs6ARImyERUVbSA0h3W6CGqROinBzJFAqxYFW8Ew7jGjo6fPwiIE6PlSs+ANRON0qqV5g3pTRMOr12HbwLNp7+zFmZCZLIJMOwsRRuWjp8GDBlOFIshPoMm7GRLoOYSqWqBCJQTbICIc0aLKEtw9UY8mMUbCYFb4PVLS8tvcCFk4dgezUZAbUMnlWInyMygUDXRtpNtQ09aCr380jKsJA0Pb0XEVUCzr63Xhx83vwBcMjATR+4p/5P/CC4GavN1Eg3GzkEu9LROAzHoG4bxJSbMoYt099QdbppqUlWxWzUZEMBpnR/SSaQ69oNKbRqpzMhEhkwKjXN48vTP2JAaGwxWiwXuoMfm/amCLb1DEjoAZC6Ovvx0s7zyI9yYQ1s0ri/gwC3EiFAs/oFRpVEIuAAHo0lqAve4VZBq5AGG8duoCvPzAHkqTijf01mD0uGzuONuKP102OOwUK2WC2Q44R7z+IzQfqSXWRaW+ZKdTiF4lp8XSamQsZ4yEnQVqtCh0I0cUgWWJ/gCSHabWrg0FvgNmioOZaO7Ydqqg8u3XpI2u/cvSfM9NS7/qzJ5egu8eNnp4g9p2oQmqSFVPHjIRB0cPhMMHhoNW/is4eF7Yfuswr/qlj87lAoJP3+MP45aZjhI5AksWIkbmpPAYYlp4Ko5Fm68QOoa5AFJV1nbjS2IslM0bDYpLjHQ9VUALVKA5VNGPu+AIoip6Bj/5gFBv3VeCbj93Jx+p10agnzHgPXnGrYSjEnogQI4SMsRSopKLIBQCNlYhVoue4EEaCxjoUQ8JpmC2CnklFFjlB2k0WQNPhhTcPoiQvFQun5WHQE4DLE8SBs41wekLs6kkJf0pZLoYPS+YuTVAlDAtpQGg8BhqS1xz0qNh3sh73LBrPRdSxymZ09nnx7EPTeSTC3hA8DqNnR+h41jS2oanDiflTRiItJQn+oB+73r+Mrz86h4uYSNTGwkp/98utGPD4v61GYv/4Gf/o/sFO/w9XIHxGKqY/WOQTB0pE4NMZAQuAhQAKkyxKSmqSRd/e62k3StGr3gjOAPDFT1tePSUn9Uqb+2F3IPLMnbMnlE8pL+Q2dEhVsedYJSe3tl4XJhSmIz/TLox89AZEVGIN0Oqd2tzCsY/m0YQpMCgm6BUTelx+HDpXj0eXT4IaCWHPyTpMKs3mQ48anhJHwNP/CdOioXED1TMXr3Yj2WbEoCeIa+1uHlQTPTAvMxkFpMZH3QGdWHmKFjw3uRGDnlH3tFqmcyFWBiWWzIxUfP+Fzdo7v1xUvPKZvWf+9LElacPzMuBxedHdG8Cru05j/Z1TYbVaYLeZ4EhRYGRnRRX+QAgebxCHTl9lLEJRXgZ2H61FflYKqyTabVaYDRqa2nvh9gUxpjibOwSyHIXLG8SRs1eR5jBj5thCdlYksSSdLsRjGk2jPxIarg/i6nUnFk8ZzUUAsU1e338ek0vztDlTCkmxUaIYBwNBZm4QLsQXUFHX3M/dC75e7j5QHCkeVJzomCKZO8zBGgZUW1BsGTsiawipRHWV4HOHEQxK+JfX9uNLq6fBahMjGyoAX3/3EsoLMzEqPw3dg24Wfuod9MFoUJDhsKOsOB1mdvMUTBMaGdB45sDZZvZzSEu28X0hK2rqXJGWxB1TS9j1savXi6utA2jr7kduVjKmledx8SnrqUCT8cq2CqycX4KR+dmQJAtknRVHz13G1v1nT0U1bdan86P36TurP1yB8Om79sQZJSKQiMCNRUCg1gBpQXm55dzly2Yv8IosSUssRoNh+bwJ0pJZ44UBUTSKHYfPaV29TmnN3DE4erEJV9v7cN+cUWK8wFoLYegV6k8Id0dOTiRyw6MGC8w2E7YdrsKkUbkYnpOOutYOVhQ8er4Z6xaW83xb0DOp4Ih3BagtT4k+pnFRsut4I4P20hwWpuZ5fGGUDs9A1dUuZDrMWDS5kBkFiiKzjbBiMLCcsRomDr0GSafnObzJZITDkYzzlxtwtOLKgV6nZ9Hrzz8pebwBXL/uhNOlYtvBCjyycg4MihEpKSakphphMEQZr0GiP4TXoETucgfw09eO444pZSjJy+RY0LWbFErOYdBYZ9uhKip5MH1sDt490YCHVkyA1URKlDEEQ2IMwNRAjVgnootAufPF7ZV4mumRtNKXcL6hAxevdeCbT9zBR6GCyB8IxiW0ydApiprGblYitFvIB0MPs1l4GpCcstFogEFngNmsF8ZLBDqkMQNrYEgsZtU3EIPZGGMdhR+9egxfv382g1cJb0DF12t7q3Hf4lKmctK4gkYXRFmkcuXspeuovtqN4TnJWDC1iAsxKuS2HbyEqeUFKMrN5C4D+ToYSN+KraPD2Lq/grsrJBO9YEoJ0pIcMCpEqRU4BF+IOhsyXB4/aq52Yfm80QAsMBqTuCB75nsvxsIkvSie58Trf4hAokD4JB6RRDflk4h64pg3F4EUAJsICKDodcZku3mWWTEkLZ83Cck2C0bkZ7E+PiHWD56q1g5X1EY7ep3a0ullhnkTi+HzerHn5GWmNS6cUCi0FmJEfRTUP1qNspIjyTzHdLDZzbh4tQv11/uxfsk4Zh28ursCy2eNwslLbVg7vyRuECWEnShZEeqerYrpb0bGx+DzheHy+nCs+jqGpdtQ2dCDvHQrGx0VZNnR1e+DyxdkEaCJpcNg5Zm3EWpEZuEioZ+gh8WezMj/nr4+vPTWezGTYpB/+p316Olxo7vHD59fxZHzdawRYLNbWPshK8vIK22v1wfnoJ9n//SRp23f3FeNlXMmCfAfoSKlKLoGXBiRlwKbxYiopuHdEzVw+UJYfUcpUpONcfqooPxFw2R/TNUUCStprDcRCmr4+ZYKrJpdhkyHDQajGc0dfdh7ug7feGgmrHYFWjTCQlGk6siS1/H0aDIbGLdgMNDqW4ZGYx6yb2YNjCgXbdQREO6cTG6Fz0MgVj0zEVRVxoAzgJe2H8dX1s7hSYFBIYVOjVkJj99dzkUMXSpbOkdJGIv2RMwIoKPHhSvNfQgEQxznzBQLpo4dAb+PCkY6hoZwNAKTwcBF5fkrDWjt6Mfq+aMRUoV5FIFYWdGTQZa0fx1jKF7efBZfe4g0MyyIRixIstnwt7/cojV39P0vAD++uY/D7fWuRIFwO9zvREFyO9zlj+saiQawB8D0rFS7buH0MZIjyUb5nFHw/S6PdqyiFv0uX1CNRN8H8H1ZxuoZ5SP+Yu2CSbyKrr3aioMXriEj2YqJRelIcxCHTYuzGIaKA/ISkNHQ7kR1Yy8eWUZMBeBEVSvz47v6vSgpSEVxbjoXFzxciIvt0KrfZCaqn8yiQ+QZEQqGOAkfr2pmG+GuAS8WTCnC20fr2ELZZJAwpSyHCwViRviCYTYhSkmyIjs9BRazBZKOqJEa+pwueLw+1Ld2IyPFinV3TUFbhwsuj5cLkqAaRVlRDmtCJCVJMJtJGTEGv19FIK4ZQR0A0oU4U9OOlbPGsVUz7XvfqUsIxyTuEtw1p5yZB1EtglfePonH7p7K9ssUZ8VEBlpRZjXY7THu1AgLZgkuVxS7j15DVoodmSl2LjJCagS7T9fhwSXlKB6exkDAiBpBIBhm+mSITZhIH0LgHAisyWJRMuEUxL+TjgGrUOqBCJs6AVFWOaTuD4Enic1AegNBnL7UiKfXzBMeHxJpF0Tx+r5qrF9aKvQtJComgKhGLBUCX9IIx8AxYPpkWMULb57GVx+YjSSLCbJsQlPbIA6evsSA0fwsBxZMLYfBpOKlN49h1fxSxpdQ4UEvu03IfHtJzkrWwW6XcayiBYtmFsNuS4LXq3CH5u2D57R9x6uqAUz4uD4wn6f9/v4FwieVfD6p434W7n4iNp+Fu/RZOkfKGkQYlObMKJ91qKJ+eiRGyke8+NxKugpxswHyMIgtmOhwXOvQBv788VVSwO/F1gOnUZKTjB5XAKcutcNs1GHN3ELm6VNSJ6Ce0x3G3tON7COwfHYxsymoBe30BFGUm4LWLhdmjivgwoLazjRLJ8CfwaiHxUr4BpH4qBgg2l4gQLoBggZH211u7cKFhk6o0RgeXT4eVrMFr+09DzIBEt0LjXn8RFNMS02FxWRilUhqZ3f1DrDHAnkU3LN4EqaWl2DQ5WbBKLfPj54BN0YVZjHN0mSOsZWz1WaCzxtk98VASOVOQkePG4NuPxZNGc0Js713kP/cObOUwYDvHL6AR1bOQCQm4eW3j8HvCzBFkjESkjAxiitIs/jS0IsYGL4AZUoBeDSbDUi1m3G2rpPb+6RjwIaNBNDkooK6LHGO6H/qtcdrL1GAiZYBH5Poox9+0f2hEQy9SJgpKy0J6xZOodoBUZLO1CJ45/0qrFlUxHgQ7iKQ1TP0kEjtSZOhGA0I+kMwkZw3NLy85Sye/cJi6MkmXGfAy5sP4wsrZsFiMmLH0Urcd+dMuDxunLtch6LcVBgNpJFAeAliXdBYAzCZjVy4WMzAifPtSHHYMLmsCJpmAiQTjpypxtsHzjWEY7Hy/8ved4DbVZbpvqvstevpJb1DSCGQQoCQkIQSSGiCEkBUEObi6OiV0XHuVWccuTNjGac4MjOOAqJiQQhIDaFzCAkhwCEkIT2kJyen5bTdV7vP+63/D0cGUUBnKHvz8JyTs9f617/+9r3f+7VK0qTffQS9c4Dwu59RuaIyApUR+ICNQGN10v3mn3/Uzuez2LjtVezadwizJw0V7fblnZ040l+QhD0UQExKNLypCuOHV2PcsFrJh7DrYA9ePXgEE0bW4dkN+3HxgkliHqCwihzpWA3RYtkisZlHMf1RyGQ+76EoBZKUn0LMQCIZ1TZgCOTKdfswtD4tBab+5EOz0d1Txv3PbMYJx47E1j2HRdBPnjAaa17eikVzTsTzr+zA7KnjRIBftngO5kw7Fkd6+iTzYk9/Vuzd044bjXiCKZUDASkUeNS6mQ2RfSbQoLnkp/euxYcXTJcogWyxhLufaMW1H5qLXInREJtx9UVzJHzz1nufxlUXzBR7vpTTNlRhJzNKZ51ORdkVSyWaLoCu7pJUazx21NDIT8AM8b1lT+OSs6aIMyDZEYYN1mSS8n06FZeaEPkcs16WpYpiFN1AJ8eoxgXzUfAasjIEJBxThqLGHQtOLMkyHOK4uHH7Hjy7YRc+snC6gAr2jwkLH3thK6YeU4fjj2lU/hYWvMCir0bImhpHenPG3oMscR0lk9q65wg+99GzQwKCx559xRjWVIcZk8cJQLrviedxztzp8PwCnlizEcMbk2JmodmGdUDINjG0NZFMoCptoqbKweadXXimdT/+9LIF4odA59etOw/gprue7PKDcCaA/e/6bfk/rOxV5elvDQAAIABJREFUAMK7foVUOlgZgffeCCRiVvk//vqTsf7+bmzathv3r9yEay84QZIr8cB3kkzWE2XSoxCiEKUQyxeBl7YeFMp/7olj8PRLu3D+3MmIO6waSYEf+UuSAiczIPS1CNAoC2J2gPkaIoHM7Hp0giTL4MSYrZB29YieZ0XHnz+8ESdPHo112w+iP+9i0SnTsHLdNhTKPs6eOxMrnn4edVUpSc3M++j8eNm5c3DytGPQ1zcA13VBZ8XOnl6ceNxoxBwmHIqSC1FwMkKDspJCk1p7ocjERhtx7KhmHDNqiACjl7bukToDZC8uXMisiGkUSwU8t2kHFp40QTz4LZtgwJK00PRnSKeDyHHPYGInQ5wUe3pcbN5zBJPGDpNxpcb/3dufxMihVdIfmgpoXujtL+oySFL4ihR/BLpe89rTMslilUlNKSifBeEdyOKoUp98DpMlkaX4+OLZkdNpGNWfeGn7fpg2HS6HiDmop7+Ezbu6pcQzy3pznlheeuLYpnDS+FG469F1xpK5J4RDmxrFfHP7Q88aZHSYJOnceTMkfbbtBLjlzqcQGqzpYMIyonXB3jPZFZ0jo0QbUVXItu48xgyrRhgw3wWdLYEd+zuIHhnJ8NJ7b2f99/a4AhD+e8e78rTKCHwgRiDp2O6//9Un7Y72Nuw/3I47H1uPT31opuRAoBMZD3EKCDopMuTu4ef2ScKfmcc1Y0RTndDMjz2/A4tm04YckygAsga0uUd288hJkSmKo8JRkWCSmhKsq+Cy8FMkLChEnISJVNoS4UmJSZs7n9fVm5eKiI4Tw8HDWTTW1USAw7IxcnizZJgkfc6WvviPP8NZpx6P8+bNQP9AFqUSNW9XojROO3GM0OqsqUChKviFIYUUwAGwZVcHVq/bKz4OG3ccxJ9eejoa61I014tvAgW4y1SIoY+HVm/F0KY05k4fExWaCgIBCRRufE/bCsFSFARXdAno6zOQL3nYua8Xk8ePEEfQRMzCt37yEBbOnorhQ2pFS6/KUPN3kJCUz9HzYhbBD9vyUciXxB+B80MBn0gwuiEujAhNARxT03QkosIL6INgiPNjrsD8Ey/i0x+aK/f3ZvMCpnYe6ERvvogRTUnMPn4YqlJ0AmXoaAxOvBoxRkxYPmIOUUhMwMuyR17CZefOBV+bVUUZ+sm6G8311eLf4Pk53PfkBly4YJJEsDA0UlJ0W5B59kIT9bVR+XICz+/e9hy++qeL4PlViFnMi2Hiuq/fRAvVPABrPhCb8R28ZAUgvIPBq9xaGYHKCLzxCNRkEv4/f+kTZn9fP7bt3o27Hl+HIfUZscdTI6cAIlVNZ7fqTBxD6pOYPXmEOMRt29OPF7fsxwXzmBiIwp/pfkkYRNouGQhqh5KVUDRGnfAoKhXMan/aS59ggE5w1DJZC4DZGyl06ShHAcukSQQSFLS5PIsJUduOCVVdXZWWMMdMwpb4/C/9022Ydszo8KqLFhgDuRyKxYief/DpdfjYBSyAREEfJThiO/vaerH3UC9e2dGG0cPrMXvqRAnRfGHjLmzf04nZx4/CxNH1QsdLVUePmSLbsLJ1F44b24y2zn5MPWaI1FNors9EiaQMJhaKkgyx37TrFwomHl69Hc0NdZg6foQkE6JW/+0fP4BPXDQf0yaNEnDB6oe2HWWQJMCic6Qj7ASBlSsOlaUiC2wx8JMmDSCVTkvoYz5fRKnIEt0qEyaYlMlAuRRISed/vXMlRjZmYJumhEsmYzZGDKnF1n2HcfXFJ0iiJqaKZonr0GD5boKEeORTwvjJMEBPvy8MCyMTTp12jDgmSjpslnw2yBD4eGztJkwaW4/jxjQgNKLcCUQ4AhIMW9Iu19QYqK1hUSjgWzetwVf+9BzJhWAbafGb+JOv/5AOG0zRWQEIv+MAqwCEyglfGYHKCPzBR2BYY63/zeuvMDva27Fz32H8fMVaXHfhyUhnbOSz1PI90f4DnxkVffieBRZbvPdp1lQALpk3BWUmVmJRHhZ1Ar34Iwc7yaUg1HgEEKQ0tfpJgU8tkc5rUo2SqqUBJBJR1j7+R6FDgMAvCsUoKRLlnh84yOcYXWEhw6RH1dVIpxwKx7C9uxe33PW4EbNtfP3PLgu7j/QaDBekYL3nyRfxiQvnw7IKUmXQCzzcvnyd1E/4X5eeKoCGAowhfgQvRA8M+7/hPx7EuOG1OGfeZLR1HsGTz70q4Okzl52M5sYqYR8OHO7DHSs2SHKgi8+cIkmTCBB4vwCn0MHAgIV//PEj+NgFC1CVTkm4XzKZwN/+8C584aozMfnYoQIm+Peuniz2HurAjKmjJLw0l4tMGKmoOCZy+QLWtL4qdROmHTsCrstMi2QL+K4hfAXuYnaUUZFmnVKxjO/f8wwuPX1KmE44or5LPQvHxNrNe7H49AkIgyhnQwRyLJR9B64fR1XGlCJLR7oH8IsHXsBZp5yATMLALfc8K2M/7Zhm5AvAQCGHXfuPiMnlrFPGSkpngsYI4JkoMYmUawswqKuJsnSyZsU/3/oc/vmrF6BYTML1HHQfyeGrN/6qHIY4DUDrH3zhv88arACE99mEVl6nMgLvghEwZk0e63/uysXGkSNHsH3XfvxsxfOYfuxwdHT3IZOMi+e5xEoq+zyjCzp6szhlykiMH14nNvkoDI9WAoYNRlqiZdmRA6LcGxU+EgSgvPyjv1PppI0a2NvRhdFDGxB3aI5Q4MCiYImKM1Fw8n9WVWSIX6FIc0MCVVVpZNJJbN11EHsPtq2KO07D42s2thddb/73vnyNMTCQM7LZrKSiXrFqPUY218LzXbQf6RWNfzxDMsc0RhkfoxJFou3TZ4BZBjds3Yf9h7sxafxQrNt6AOlkDCdNGYFMOo6b71qL6z5yMqqrkuJ3wJLRu/b1SgrjzbsOC0gYOaQaZ5w6Hrm8Ld8tf2YTLj9njtRe4OdwVy9+uWIV/u76S1Bf6wg42LqrDctbNmLOjPHYua8DH1l8svgMiEOixQyYAdZt3IOtu3thGWVhOBjWyYgC5iNg/oNn1u2UktuJWAIXnn5iFOXgB/jVEy8hYRuYf8JYlTtBEl1gX8cRHOg+gosWHifsA99H8l7YNnzEJcU2GYQVz2zCzCnDMayxRoT+j+5egznTxyKVjGEgW8K+Q7045YRRqErHsH7LQfRmCzhp8nAkE+nI1MLUz1WcQxOZDISd4js+uvpV3HD9YgR+BqViDK2v7MTNdz/VHgJ0Ujz0Ltgr7+ouVADCu3p6Kp2rjMB7cgQ+N3/mxBuvPG+ucaT7CA61d+OnDz2Hz354HrzAxd7DDBvsFQ3bsW1MHNOIoQ1VYnbwA0+iGxgqWFedEgBgWI4IFwpY5h2gEOC1uqYCCzwxqQ/RBKv/0bxAZ0Ha6x97fhtOmjwMQxrYVpQqmGAjSjkcVQJk2mDJ6m8mxeZeV1stNvxC2cXX//0OMgrzPc9jLgjmhOj7u88tzaSTCZPaNs0M67bsxtOtWzBmaD3OP32K1B1gmJ0UgmJNC9NUTosePJflmwMse+RlXLZ4lmjgG7btx/Y9HbhiyQzxmdh7qAd7DvVg3ozR8g40DxAc0XUjnaFTXoCHn9mJts4cGusa0N1TwIxJY9FQW4WaqoxEdrRu2olnWjfjW39xOewYx8THrv3teGzVJkyfPAJbd3XgExfPlpBKQhimNqZpYdmKF1BblZJiS3NOHIW62ir5ns/u6Svh+79ajYsXTsMDKzfj40vmIC5pq208/eJmbNvXgYvnThJQRD8OqXuBEL98tBXXXTpLwlsJdlj0izUrmNaaaSKWP/MKZkwahYnjh8h4+eUSbvz5Slz/iXlRUS4vxN2PvSyFreijQXPD4c5+rF6/DydNHo2mhnrJgFlbw5oPrDoKpFI2nn7hVRw/cSQmjhsBz43Ddx3c+8QLuP/plzYBmFbJpvi7z5YKQPjdY1S5ojIClRH4XSPwm+FYPzzr5CnXLT3nFKOrswsd3b346fLn8Lml81B26elPmjnyrI8pjVdC3Yq+ZEN89LltGFpfjUljh0qKYNrAXY9C3JeCSlKRMaCVPEQ8QYc62tYDWBZt1VFkAz/0Wdh9sAsrX9yNaz40Q9gIOgwyfF+nKKYGzAJNrGJY9plWuRZ11UlUJR18//aHsWHngW4Aq1jZGMAFAO6ee+IxH/7ERQvxwJPP46UtuzFuRCM6jvThwnknIiallAOk08yFYImdXlgOSTXsyfN/eu+LWHjKMRgzrE4Ef18ujztXvIxrL5kDy44iAB56eosUeBreVINC3kTMiYRfU1NcQh8JbNjm2nXdWL1uj0Qt7D/cI+zMJz50Bp56YbPUxLjm0gWwrXJUmbHsiSPg+q27xQly7Ij6KDESy2OXXWmTVRGZqCmZtFCbiTIq8n86Fvb3FcSh9NePvozTThyP2kw1TJN+GzTpePin2x7CNefNjnImCIAjuRMiV8rjYHe/MABMaCUpsi1LIhvufuQVnDZ9LGqrMxKGSVC171Anlj+9GddefIr4EXDCWzcdQk9fDnOnj5NEThzHfNHFypf2CAtx5smT0VAX5UMgO1VTY+GmO17C565aiLiTgOfaKJfi+MYPf41dBzu/CuBbv2tJV76PKnNXPpURqIxAZQT+kCOw/JxTp5534YIZ6O8fkJwBtz6wBn926Wlw4lEdAVPi+lkxUGUIdClQImF6b8smnD59vCQz0tUao6w9TK2rHBURIpnUqZZZgTD6nmBBReCJiWL/4T4se2wTrr/yVNGCmc1PwiAl9W+UvEeEdMFHU3MTqjNpdHT14K5Hng07e7NMG/gkgOMBfBbAfQD+JBWP3TKiuR5TjxmJKRNGwQgDbNu1H+1H+nDq8ePFe541HjIZAg/2h9o0mYAAG7YfEufDc+ceJ+MtJo4Q+P7tq3HNxSdLdkC+R+eRLB56ZhsuOWM6EgmG6Jniv9HY6Igdno6Z/f0GfvCr1Vg0ZwaqMyzPHWDDjn3Yvpd+H234609fhqo0JawrIZlkZwpFhnkacKyofDMjFcThM2Duggh0SDojOnU6ZGJoKohKYks9hiDKh5DP+8hmySzQ2ZAOES6eeG49tuw+iCvPniE+IDIjdEI0gKfX7cT0SUOk9gJ9Gmji2bCjQ4T8KdPGSkgon8P527KrXXxPJoxolDUhKaVLLm5/eAOWnn28hIdyzDhWpm1hx/5uMdecv2CSmGpSKRO3P7QRJx0/GidMHAUvSAJBQvwovviPt3meH6QBRIkyKp83HYEKQKgskMoIVEbgDz0CLRctmL5g8dwT0dvTi56+Adx832pcf/kcoccp7MXuLal26WBWRrEYFQKil/sdj76AS86YIc6GUWVFCqYojFHCBwGkUxHlLl7ucopF6XwjIiMUL30KG2Y//PlDG6UmAYED6eeYHeUpGMhG17CN9Tva0d2fRzKZwtoNu/O1dVVXdnX2/tIP8G8AhgC4Rg+SZRptV190+tCTjz9WbOEMd8zlcrj5nhZcesZM1FanpFZBOsloiahcNtmNfMHF7Q+tw1UXzZJ4fVLxTIpEs8kP7lyFyxfPFAZAnBp9YNOr7ejPlrHg5GMwfCgTDJmoSidRLLP+goHOI0Xc/+R6fPSCOSgUmMq4JOmUmSL6O7c+gP/32aVingiCMoqlAC6dKj1S/FHSJSYUypctSZxMdoUhqG4Qg2PRMRRIxZlgKjLZMKUy/06B3dldEIagVKIDqAWH4CWVwO69e3Hrfc/iykUsMEXfgmjE2Iey5+Lh57fhwtOPQ21NDNv2dmBfG4ESHRij6yLiJ8TKl/ZhwawxkkOC803fCM7Zqpf3YkhdLcaNqFU+KBbiCVsAVFfPgAAqplZuqkvhsTU78bmr5sNzE8JwWGYM375pORNh/RzAJ/7QC/792l4FILxfZ7byXu/9EfgfzqL2Dgbw6U99ZOH8mZPHoa+3D909vbj5vmdx7fmzJdQwOvgtoaIZZMCwNiktAB7kBm65bzWuvWie+BhEoID/UyCxUBFdDQwRGKTvY3R2tCINnfCAVDrNFRSy1DJ7+oq45Z51+OzSWUgmouQ8UfZl2t3FzVHCHtu6s7jl1+tw0tQh6xNObOdzGw4udv2QvMTLAM6l74EeD9vGooQde/jrn7nUTCQc9A8UUCgU0HWkD4+v3YTLzjlFBBhTARMgEMj4gYu7HtuAk48fjbEja0QYuq4lmRD57j978FlcctZ0VKVSigGh70KI5c9sxJzpozHv5FHij8CcAIzooN/E93/xFC48cyaa6lPyXU+PL8WYHl69AWXPwxXnzpH8BvzOZb4FSfgkth0x1zTUO+IDINGGvoeBrI8YaQPmUUgwK2Xk/Em/CQIIlpomi8B5IPvCKAYCDdagqKlmDYwAP763RQT+hfOmwOV1PvNRRIL/cHc/dhzswOihtdjT1i0ptaMcCCpLE9kfI8Svn9wuVSBl+YuvSERuFIoeWre0Yf6s0bJ+WGXSSXCKIuaJ/g6PP7sTO/b14LqlczByeAMzZcBGHN29Jfz1jXeE2ULpcwC+/w7W9gfq1gpA+EBNd+Vl33Mj8N4DCawSsPpb118xm/kDsgNMRZwNf3jPKuPqc0+SCol2jE5qEYUt2e8MhjlG3v4U4P92+zP4wicYpk6TAO3VUWEjSp5I8EcCgQCBpgX+Tm2cPg0UaGQF6HRHzfHlLYfw8Jod+PwVs6VkNGWeAA+mQqY/A50LxCRg4+9ufsa7YO64FU+27ltwpK+cmdCY/NKZYwr/flMryL8P/iRjttl6+ozjJjP1MosVMTyRtPrql7fiSF8Wi06dJmWmo1DLMl7Y9CpSCQczJo8QbT5yuGT+hchf4t6WViyYNQlDGmql1gRNLwRDVWkb9zzxPK75yCykhF2wxQ/jsdVbRGAumT9VCjplsy56e5i0qICb7lmFptoMxo9skjFg38jA0Hwi+aVYBdOiEyXzH9D7Hyi7TD4V+T/4YVFV3dRgzkDZC9DXX5SxZzKkqhQ182j8MilS/gxJZdlsAw+v2opLFk7DiIZauVZ8EcQR0scTL27Dge4BXLN4JuLJiNEhAJCqniGwt60Xew7346zZY+XfZJqk3qcRhaIue2wzrrroRAEIUUrrCGwyM6YfGHj02S3IF2muCDF+5DCccfI0mIaNx9dsxC8fWsPwRjqavn4+33PHwn9XhysA4b9rpCvPqYzAB2MERhnA+ptv+FQdKevOjk7kcnncfP+zuPr8OYhZTJIT+QyIdz3FoQkxMVBQU2B89+fP4C8/uQCmxfoAFAGRCklNmIJVMiiytDNLMpvMkJiQzIe+W5KfPNTo8Lhm/W5sevUAunsL+N+Xz5Psg8ypIOmeWVTIjxIO8W+ObYffuGUlFp82asOq1kMjF05tujFpBStzvr122ZoDhTeYOicRs3LfuP6jVtyxDL/sociiBYaJ5c+8JAmgFs2ZJsDmlR17cKjjMC45e4YItSingIGSS5AQwA9NrFj5ImZNGY8RQ5lOmCo9afWYODpu27UbL2x8FX953ZlSErt/IMCP7noan796gdyfy7EoFM00Fnbt78FtD67CjMljxBmQDAKBF50yD3UcERODVIJUDoRkFCSJVIyGhujDAkd11bruBQED8yD4GDN8uDhhMlRx36F2Bczoz+FJ9UYyBdlCUaIraMa45oLZSJOKCFnuOcRANo+7WzZg2vih2Lq3AxedfrzkYBCwYrOvwAOrtuGUqSMwrCmjGCK6ovJ7shUxPLByK048bigmjhsSZdQMopocfmhJ5Mtt9zyPz3zsDOnbCxv2YOO2Nlz9oTPx+W/+OMyXvOGMAP1gbMM/zFtWAMIfZhwrrVRGoDIC0QhMiFnm5hu/eo1TZhXD7i5kc3n86MG1+Pi5s8U5kRnwaCJwhMYOYEkqgyifgWkZ+N4vVuO06aNx2vRjVG59yhgfgeuJwJUMiMytH4sJqIgnHOQLHosASWQDwcOzL2/H5lcP4uzTTsCt96zEZ5eeLrQ6fQEcqTYdae6SQIgmC8vCt3+8EmfMHL5yRH3qlUJ/6RX4pU09hrvu/tVdLCKsqhG8Ns0m8KWm2vR3PnP5IqO+hvH4NIWwgJSB7Xvb8PQLm7DotOlo3bRDEgCxFgQd9JLUuH0TxaKHYskVLf/R1S/hhIljMGIIAUJUqpFaMVM3Z9IhfnH/Kpw1ZyJcz8XTz+/C+QtPRFUqGUUflIsIQ46Bj2/d8hCaG2oxdngDHNtCTVVK6lowqZNt2fACX0wANNMwZXMQ0HnRRW1VXCoxFgqe1Gioq8nIXBCQJeMJJOJJlMoW0gknMpl4UUrm3fsOIJvPy3uEZIKYqtmy8OKmAzhmVAOuXDxTzBpMlvjImi1Sknr0kDps3duOtu4+zDxuNKozScm0yAiXFWs240PzT0AqacCRjJEmrFgMTsyW8tOHOnN4ZecBXHjGNIm0oI2K/o09/Xk88ORGfOyiUzCkoQZMaOV5Nla9+Cp+/cQLrLi5FsD8inPiWzumKgDhrY1X5erKCFRG4LePgFFbW3uiW8i+9PfXf8wI3JKURe7u6ccvHnkeV583J1JcJd4wRMyJwh2p7TGrItmAeMLEd3/2DJ/QmS+WG+bPnmJOHjcCjbUpAQMSB2/a8rtpxWCbDorMkxxERZtY2OfJtRuxcfs+fPbys5Ev9eNHv16Dz18xT+LnGTapwx0lgoGZ/ULWaLDwb8tWYvaxzfeMaky2Wl5xO0I/5xRHPHZTayt5i/8CEITLMPDI8MaaRZ+9/BwjnYySFLEfzA1Az/rv/uwhYRKOGzscNdUZJOMxJOIxod1ZapraL00ij6xqxZRjRmHU0Eb5Nz8M1yNASMYDtHV14uY7VuGE44bioxecIk6JpWIBAwO08/tSnvoXDz2Hrbvb5J2GN9dJaWmaOChcOS40wzARE4EYS1Q31lbJuOcLZfQOFDGkoUo09e6enLxsY10SxZKPnr6CJG2ieYbFqaSWhcWoBuakMFDNsthBgM4jAzhuTL0Ak55sGfsP9+LkKSNwxeIZWLFqq8z7/JmTBBiVvAC7D3WidfNunHbisWiqqwazVe4/fASnnHgswpCsRAAnEYVRmnRoZfRFLMCvHlyLj11yMlJxrgMTB9v78eiqV3DdZWdIymqacgKf4wps39UZfuPmewPXDy4B8EBl8761EagAhLc2XpWrKyNQGYHfMgJLliyJb9y48VQnLD716SuWGEzBmxvoR1tnF5Y9/hKuueA0sVXr8sWReYF+BKYIVfoBNNTX4B9+9GDwpWtn/O2mV3u3btjefd7GbYc/Tg2d2nnSscKGmow1rKkeQxtrBVwwlfOhjm5kiy5KpRKScccPw8D6i6vOxr7D7bj5rufwF1fNFbs6NWdatVl62XOjKAIEBmJODDffswrHDqv67nHD06tMv7Sto/3wzlE1w62bWg/l32TSraqE8+DQxprFn/voudJ2JEBtPPXCJgxvbkAmncAzrVuw73CXCPIrzpuH+poolTJxB388v36bXDtmRHNkIvF8pBOMwjiM5S3rkC8WJSnR3FnjMW/mGBRLlqSsLhRofrGweddB3PvUi1g8dwZe2LQTf3b5Ofib/7wbi049HrOnjsU/3bYCzXVpXHfZXDHpfPE79+Gr152JdCKO1i17cc/jm/HNL14gvgrf+0mLpHr+5MWz8MLGg7j7sY24bukpaK6rxTduehjzZkzA7OPHYV9bJ+576hX8/efPRX+/j//3wxW44VPnoLkpg7bOAv7lp4+KqaImE8ewphpJDJXPM9zTklBLAox8sYzV67Zj14F2FEoeLjn7FNTWRMWxCOTK9K6U8WQCJPo4MEtkG2JWTBiZ5U9tFMbkorNORHUmBSO0kYyTPTBxpC+HL3/3drdY9q4H8J+VjfvWR6ACEN76mFXuqIxAZQTeYARuuOEG88Ybbzz19BPGrjptxmQjn8+jkC9gf1sHHl6zCVeeM1ulM6AQjUABWQNNI6dTSTQ1ZvB//+VXwcmnzk3PaGoynjtwAE1NTfaaNWuG9PX1XVMul03bNi3au01m6Qm8YpwVCh0Do0c2l+edMOonN9/93BUjmmv+/i+vXYIde/fjh8uexZc+MVdMABQ6UZEjwhP6KrCwUUzSKt94x+MYPaT+hklDrJtTKAzsinUVWlogXg+/42M0VMXvrs6kL7nqovkYUl+DDTv2Y9Or+/GxC8hqRzWTCY627T6I3QfbsWnHPkkONGHUELHrb9/TJk6EDbUZEZyHOroE9Jw0bTSOnzgUkycMQ29fHj+/73l88uK5kluB/hn0Z9h1oBM/f3AVrvnQAmQLJdz9xAsYN6JZ/C/SyThOOn4CVr64WcIRjxvXjFTKwaqX9iBuGzhzzkQ8tXanmA0aazNIp+I41NknWRVPmT4GO/Z040B7L+qqkph9whjc/9RmNNQksfCk8WjdcgAH2vtxzOgGTBzbjAdbNiOTiuGj582STIf723tw9cUnY8XKLdi2u11+nzCyCbl8RMaw/1EdDAMHO7rxo3ueRn11Gs31tVEGR5WmOgpfDZCIM9w1lFLQq17ajfknHYvZ0yYIsJKaG6GNmGVI3YpS2cV3b3vI3brn0D8B+BupiFX5vOURqACEtzxk74Ib3nue7e+CQat04b9hBIzm+vovXLpo5j+PG96MXLGMfDaL/W1dYpM/9fhxytud4IAmBRv0kIsnIo/46uo0kskk/uq7PwvyJdf61Kc+Fevp6eFq9/v7+2u6uroGWt+E7tfvZwL/Z8qEYf/w2SvOxCvbduCnD7Tiy9cSIETauutZIgCZQZEfCtHaulp865b7wtp0/EP7ugYefKtpeJdOgbO6PfNy2fUnf+aKJfjxPU/grz69VFJJ0y4vHynaxCJVktVJnAhZ0phhmavWbRGzwKTxo+CVy5JyOJU2ReDRiVAqUhoG/v3nT+HKCxZIREY+5wvY+PfbH8HSRbNx/AQmBQrwk/ufkWde+6EFaHlhMzbs3Cd1Ds6ddxx+fv9Z/8xRAAAgAElEQVSL6MsW8NHzZ+Cp518VADBuRB2WLj4Bm189jJ37unHe/EnoyxZxx/KXMXFsg/g+UPhvfrUL1WkH9bUZbNjZIU6B1148HbfcvU7e54zZo7Fhewfae4qoTsfwN589V1gHOwbcuWIdHl65GX9+9UKMHcHwwxD5PNeAhUIhwBNrXxEgdcbsKWHJ9Y1syUN7Vy927G0T5ofvNW5EE4Y212H0sCr8609W4JpLT0dzXUYKPwUeS1jT2dTA3kNd+NfblvvZYvkHABjW+NY/lTM2WrJvfeQqd1RG4AM4ApUD4/eadNM0tn7+o+cex0yD+bIXOZ6tfBHHDGtEY21aBAP/p0MhQx7jcQd2LI5kKillgh3Lwhf+4cd+sexFUvRtfEzgK4vnTfvmhWdMx9bde/GTXz+Lr336jCibYWhjoN8VR8JclumZTam/UF9Xi7/9wbKwXA7OL/k+6y681Y9xwyfHxu9sKX55y97DXz9+wgj8+VUXqUqOKkuhCq8UUwfDNaVQEj3xAzzY0ooTJ43FmOHNUc0IM/qfzpSMtCC4ScQtrN96QNJHnzf/JNz58Gqsat3ijx7WaF13yUIBXWyLxzqrTBbLHkzTl9TMrF5pwJOcEfTF4IcREDrxVMAaCVEW6yhXglTJYvipeDRGmQ5Vngnemyu4iMeYSjrKhcB+OlKXgdUhbaRSaXFuZGQF62MwaqX1lQP46b3PYNSwOnzp2oUIg0j8sBjTj+5+Dp+85HS45aiUt1TnZApon74YdOr0YdiG3JNKWVLsKpsv4vRZk+D7EZAqeyH+846Hg82vHvD8IGTmy59WQhrf6jL+zesrAOGdjV/l7soIvDdH4I8EeGKWWb500ckxes8nnAQaalL49q33YcHMSYgZ9I5PoS6TEoCQTDHjYAxVVVXifyChfZaJP/v7W8ol1gJ++58ffPPzl/9pTVUaW3btxi+Xr8Y/fOkCoakZi0+Zly8GyGYhSYCqMmnxDfjajb8KBoou6y28HYAg3gf/8sUrRu7t7J374BMv/lvZ9RovPfc0jB/ZjGSCBaV01keGHXrybw0Wbr3nSZxz2gkY0dwgApZVFhnLT7MIzTBR7Qob/bkcvn3LfThm9FC8vGVX96j6+BVOuubRT126yKCQZkplZqbc29aNXK4Aplmgb6fknUgw1wGjDKKBZbpjshgCFnwf/dkisvkydh3slkyUo4fV4rwFEyViQUw6rMtwNFclC2vRh4RsEENUVcihZSGdTkpBJttyUC6npAZEGJYknwWTLH35e3e7lmnaH150gnHsmEaMHtaAf/7xk7j+42ei7BIXRm15XlSoKuY4EhnB/tIBkhU0GUb6nVvvwueuvEBqN6x+eRuef2UX3TtXh8CZNCksnTMygb5qP5npqzJTOT+HmNeJzmJLC/ylS2EuWybxs4M/f6Rd8fYX8v/0nRWA8D89A5XnV0bgfTQCVEJrqxKozaTQm83j4xeegf+4/WER/PzQa/+ShTPx+NpXwBLPZ5wyDafNmIyb73gYnT39uHzJabjpridLnh8k3sGw7Jo/c+K4SeNGimD52QMtmHbsMCmBfNXFs3C4awB3PLQBJx0/BotOm4q4nUA8nsaXvnObmyu5ZwGQMIq383nkti+lUappbuvLjlr+6Molj65q/XIi7uCaS87AmGFNkiSK2rokDwwZwx+TPALf+MHduPbDZ2BIY61YN5xYXK6Ta2IxJdhNKVf8sweeobb+4InDk38xrAkD6w46B79w1fkGhTydNNnmgcOd6GOGx2IJRbcMg8WTEEh2RyZYqq2Ooa4+hXzWhe9byCSZtMkXsw9ZBaa5ZgEslk2mnwPLb6/ZeABr1h+InChdgjkNeHSyqqhKJkGDJGyUCIcUrlg0W4owkYVg6OTPHnx680fOHrXiB3ft/HS+hNTIIRlj2jHDMW/6eFh2THwTCnmaYmIoFotw4o6ASAIqMiMsqx2LOfjRvSux80AH/Q2CuoTdeurYzJeqU/GSYYd7bMtoMi2rBmEwwQiwJbTDYfDjiSA0ugKjJp9OZrd0dAVGs9WQ60kFtTVOr9nXaxSXte7q5wR8ciwSP9mD4u+1Bt7HsKICEH6vFfAev+h9vIDf4zPznun+DYB5A6v4vMFn0HdGfXU6+PpnPiIe5X994y9FEwwNC5+67Fz4rot7n3gOO/e3Y/G86Th2zHA8tXYjBvJFkJIf2liHH93zFFMCtwFgUpu3+yleuWRO/KUte9DVOyDhfgtnT0RjQxJPP79NvOUvOvN4vLBxn+RPYJKh+ppqbNvXXgqCkNrns2/3wU89dYNd3p+NlwuZZGiYQ3q6e52bfvXAX2zbffBK8uZTJ4xEbVUS0yeNw8ghDRI1QHbgO7fcgz/5yNlorKs+qi2Ldg4Dnb0DWNW6Ga/s3I/2riOHaxL2bWdOqb3Psm0j9P3GnQPpe6+++AwBFgQJEh2Qy8kr0KBTLpcR+uWw5AaGUPVmBFAICKRgghHlZGBOCsmRQOYiMJBMRlUvmQ6Z6ag5+6wDwZwUZGKYyIn+Bew/EymR8WB2S7pcMMKgf8BD30AZ9VUpMRfQjyAIwvCJFzYfnn1c7Z6qKid2qLtQs7st37z3cL66OhM3JowYIiGwNF9I5kgAhbIv2SBJD5AdefVAl/hI0IexOm4VRjWmNqcS9qGhtVV7s8VSmM27I/rypfhAKaDZZEjZN3oNBF7ILFqA4QMl5mUOw8ANwpD2n8AxjeRAqXwIQWix8jUxWoCgyCzVylSx/g3XxPv8bK0AhLd7ElTuq4zA+38EpkoMHRA2p2Nm3nXdchlWVXUsEbpu25DmlH/SsTW12XzQ3VQql868fHzj1V9dt/7YMc2pGZPGGTv2tYfrt+/D+JFDjCvPny9mBNLe3/7RvfiHL35MHNQeXvWypCH+5uevEPv1v/7sQby8bf/2pVMwbepmeDcA4Q2AwZ8c7k+ORTy3B27nQhhNLQiLs4bHq+2iHXgJx477puUG5t2b+g9ctHCWxfj/Xz++FtlCGSOa63D2nCk42N6Ftq4efGTxNDz30n7s2HsE//vKc7Fx+wHcck8LPd3PBvD0oKlloaZOKXEY+WyxH8xkRIYjpf5nAgSOE78Xb/mM49hjxg5JjR01tGagpz+w7Fgy19d/+qa9bV8o0quOjdgGhjfW4tQTj8XKF7fgw4tOCWkWMQ3DIPPR25/FHSueRUfPALX60AjD7UkbbsHFGD8MbSYRZDbimEW9PNLeJTZjcMYGSUBFmBBp9jQvEARIoigDsBlFItECkfdBBCqY+TAq0kQ6X/se6ORSemxeu+N1SSKiSM8oHbYufiHvG9VNkNTJqtIjQUNUYktVfjw68DocNsqaybZoxoja5bXRPWSppNiTDoVUPhHMayGpt8lamRGbwagZziKfybb4kb9FmaMitobOs/SjoDnFMLBtXwdB3P8B8I/v/+3+X9+wAhA+iLNeeeffOgILFy60W1paeOS8obb8ARu6InMYmYbB41jy1/tBaLG4n2mi3zQML+6Yvu+HRT8IS45tmMVSMAoGUjzAA3WK25Zl1GSS4pBIqdPV249hjXUikvoGchILTw9+CgomyymU3DBmGi/5KtuhFsxS1wAw6WsYJTsKmUMnFgbwTMuI8YSXxMwBjjfZaXY0YORCJDHphKeFnSRnsk2Q/k8l4pImubs3ywvX11Ql2iaNHtq+dtMeAoBTAdAvYaNiSmh+YLlgDQ74e1RB6TWAwHZEaFPuUXbxF8s0TNcPTQqhIQ3VIWs45Iplg4mN3jALEyChifxQo26oTmPy+OEY3lQrmR8jUEAtOSpSRcDleiUUcgUxSfCPdIIkfIhYAVL8oRqHAMUShXAU+ilOgQFLU0d5IjjWUQkFeRUxO4jvAutceFH+ChIQ9FXgaztxsZlIDQxxQw1MKccd+DFJp1zIh1I1k74DdJgkmmFdB9uJGA+p7mlFjol8F4Idghc+j5PMpFFchXaMfYvqN7C//bmCSsLpCGtBwS7jUCbwYeItQ2p+CDZgGGTMQF9vBI6YV4PQRsbIiOpxMEQychKN7v+bH9xDhqsCED5gB1/ldf+AI3DuuecOe+SRR0gLH/1Q0C5cuDC44YYbomww787PUYLw4osvrr333nt7Fy5cyGIuaGlpYXpd+ahwu2DZsmU+Y/35twceeMBqbW2l0DSXLFkSW7FiRen1r8hr9fsvXLgw0dLSctSmuXTpUmvZsmUahLyt8XmjcWe7nZ2dxpuBHF4zderUsKWlxWxpEa356DiofpbHNaeb9ncXDn352ouMIfVVhmTiMxHGqLPCgBvk0dVTNvqzOQShi4FsWTL4URuj0ikpkVlq2GeeA1LTkT1d5A296OWNo6JLkmufsEOSFESCKO7Qcz7S8AI/KkdMb/4yS//GeA3TBNMTn3Iw8rpzHLbPv/N6CimdiChypGP1RjvmST9N6QOfYUjSJAoEmCwTbaBU9tCfLVDLDNZt28uxOf1Ts/D8vVutm4x4+upZk0YbNKEwZ0EqHhMv+1QyKWF/zBoZGJbUNhBWPmBp6oSUUqbwCn2OT+QbR0dE9jfmRGGXolfLv02h9vkf7fwU2mUvEnLMK8y+sg12jH3nfRSurGdQLBRRKpJ+92T8WGeCApiCke0SKDCSgYWZmIFRV0uMAACzFXIsoixFkk6Z9TAC1s8wkSbpThwUeMjnI6DBdnW1RfoYSGIjJdQJDDi+UeRExGMQUEiiLGEzCG6Y30DXyIiAEvtEgMI5ohMnMygyb0WUBTNaM1wDnqtYE4KJmCOpnznHZbUTOf1MrhSPa4aC4wZkB1SKbYnUiMACQQVBCqtzkrFgZAYBwtd/eC/9OL7iBfj2u/MI++P2qsIg/HHH933T+tKlS51sNjvKNM0huVxus+M4bjweT7quO87kyQ1YQRDEPM/b6DjO6O3bt28fOXKk39LS4i9ZssRZsWIFBREF4uuF4W+z4r2Zde+dWv6MhQsXWslkckyhUOhuamoys9lsKhaLud3d3fmampqxhmEcWL58OR2W/ClTpjhjxowxVqxYQUAQLly4sMayrGbf9zsAFKurq+s7Ozt71qxZQwAQzpkzJ9nY2Eia2Ont7bUTicQk0zSTAwMDL5911lndN9xwA84777zmfD7fRRDV0tKSamlpodHY4Hdr164dl8lk9heLRfuBBx4os82lS5eCgIJj6fu+bRjGMMuyMmEYkuq2CoXCesdxRpbL5T3xeDw1Z86c3k2bNhkENSpTz2BGxJw1a1aiUCh4mzdvLs+aNSvW2toqyvfcuXMz7e3t5Z07d55ZlU4s/8q1Fxp11WkRFslUpOlJ+l4hAxzAcEW4MbS/7FFjjTzPmQynP+/CsZjEKEBtHdDbx7TGzHDnSkrcTJIaL4UXC/bQmB1K0R/WPCozBFA06Ej4i2YaGkilKVCiAj/MlkeP994+CkGgpjrEwAAFCMs9R0JRygRLSeMQiQSd9ALkCgylM8HMyP0DjtjaGWVQKlkSMqc/rueH13/rViMGnHPO3KGbH3n20Op5s6aOOeOkySpEke24yBU9STpUKLPwEjVfCnUyFhFgoWZrhgQAEbiSCAVlCjAdTT1YiMUjcEPnwHIRsBwgETORL1pwKcck7C/S8Ak+ilLpMkAixt8tJJI+igUPnldC6BUFIDDywCCXEQRSu8BkqGBIPZ7gwkW+RK05AlL0HyBVxJwCIUMTLWAgb7KCBaoSRGukRaIxLbuRsOe8EzQEjEcUkolCmOGkFlxYSNouEk4c2XyIVJLpj11hNNwyAQ8jNIBEIgrljFgnxppEpaOdmEAkuC7DMy0k48yAGSCVdqIiVwSCHI3Ql7oLBCCSGTMMJUIllQrhxJk4KQKPxVJkquA6LOQj8Mm5sGI2bLIwpoFkPI5kIibgi8/82n/cFQaB/41s0fvabznM3+lZ9K6WERWA8K6enndH55YsWdJkGMYIz/MOpdNpP5/PDyXNaprmaaZp7vM871Xbtsu+78dM06QAa7QsiybrnQcPHuyaMGGCbdt2slwuB7lcrjAwMOBXVVXJyZ/JZBp83++i0CuzGgtgJ5NJt6OjI+A1/JlMJsNRo0ale3t7s6VSKVZfXz/W9/1CZ2fnQWrxWhtfunRp7MCBA9aaNWuk+h5T/w7W7Plvx3GaC4WCHY/HB1zXJVswsrOzs+bw4cNXuK6b6uvrC8IwjFH4ep7X6ft+fyKRCDOZTF8ikeD7lxOJxJ6hQ4fmwzAcZRjGzlKp1JZKpYb4vp/1fX8gHo/bhULhSDKZnBgEwVzf918ksDIMo48gKgzDg7FYrMzxNE1mBQxs0zQ9wzCqisVi2rbtWsuyhgVBsP7gwYOHR4wY4RUKhWQmk0mXy2XXNE3S3tSTtoVhWE+TtU2HtTAklc32dgdBUBOLxarL5XIP54QgLgiCsmEYbb7vHwugw7KsvhUrVvRzfi3LOsF13b22bTfncrldq1at+nhtJvGdr336I4YUIPJ9xBOALfQv0976IoALJcbPUwv3RejzgC+VfeQKIZpqmKO/KALPoLZoAtlcgKpULIp393x4vol0Kio3TJt83PFxpJ9aMpCOx+h2B8OII1fwYFllEWLJRIg0ve5dshOszmhK6WaDQkZs2jb68/QzC5FOUaj6qK8xUSozaiCyM1MjLxQo4BxJ/cv/EVoi+CglqWlSw/7r7/0CVdW1n5s/wdl65+p9yxfPmx4/7YQJkdMcHehKETOSsEPkypRNr1H+sntphxeWxEdGyiCQ2o/s4uwfC1YZgSkUPWl7oc5BTZh9pRnEwEAx8ldIxKKqiPkyNWoxtsi7xKhR03Rgh+jpK6Nc9OAxJNCKhDz/l5LIrFoZY/sR1d8zEMCWHAWRb4IAKpgoeRT+AbIlshyRgGUpZ/oTFDxTwBAxDkGQw7Y54rGo4iIrVPYNMP8CtXGOoSHOqTSRUMtPJHyUS774APhg/gIfcZushnhJoOwbkjFRV6LM5jzkC8yXERX2oi9kOmEhNE0pe51J8qcnhaRMI4bsANcJ3zOUUuIxy0UqESKVMmFYJool+sGwemgEFiSihNVBOQYmQUVK5oYfrgGG6PZmi19bvHjxHdxzyWTyoALdoNLU2dmZqqqq4plgTp06Nf86xtS8+OKLq/fv359TbKO0e/7559ctX768913MrB4VPO8OgPC+xmDvDiH/Tnpx/vnnT/Z9P6AWbFnW9tbW1rmHDx++PwiCN4pVj8hjwwh0vfggoLGYSD8U8nJQX97q+tPsA9vWz/HCMCwZhsF8+TkKYQAHgyCYoAQmn1mlnMrihmFQQMtJaLAR7e30+w3Qm5oC+M48VyjsTdPM1tbW9qRSKSMWi70YBMEB0zRjiUTimHK5vNc0TXmHQqGwJZPJZOrq6kZYltUfi8USjuPs8H2/zbKs+jAMySD0kK2Ix+M1nuflTdMcReXa87wBwzCKpmnWBkFQ4LtYlkWgxrZ83/c3GIbRaBhGv2EYDblcjiCjnSDFdd02AgfbttmPpOd5J/D5/A5Afs2aNQus0PvCVz71EZPUOBMeUctLxGxUZQz0DpQQJ0AoU2ONKFvHoVYeR1+Ogjyi1+uqqHaWxbZMQVUoBqhJx2AadkT3Fnyh5vtz1MJjQgcTDFBTbKxl5cAQeZZH9mibDtFQTfYiRHcfqyBaSMZiokmykqETY3hdpNmSVicNn06Zkoa5yDLHXqSxst/ZPG3lJuIxWwof5cshatNxlEoRvc/1yuu/8i+3YUhjw5Uzpx5Xfc/jK7//4TNOMmdOHit+Ez0DRZQ9LyqpHPgYKDBMkI55BAwGfGrqBkFPpJknHQIrMjAcHAplVqI0YRkUnlHEAKluAjAKLn5POz8BAQFCTSoy3XRnQ8SFsYmARjphIpO00Zej2SBA4LHCY3Q/hWoibotwp78CzAT68kKEiXkiESPrExXQ4rP4YcQCaf0QHlgHi0AgGSOFEUfOdZGJ0ySizBUGxMwS0pdBhT8OFDxkHBsu10TMlLVjGQRBhG6S0EG0/sPt3TJ+1WkTiUQMVZmkFLPyPVOiJeR+K0pm1dMfoByE8q4ci7LHKpSG/JuAMhk3URV30NXHAlgEnNFJw7dIJ5Xpi4CGBcGcOEKaLXyW1LZUATE5nxCPx+BYptT14Hv94633ov1I/9/PX3jmLxzHSZXL5fKjjz66ia3TtFgul2t93y9lMhmykQd8388tXLiw/OyzzzZSKXJd16EysGfPnrbNmzf7ZAIPHDjgKLZRLE3q6GF7ZFpLrzM/GnPmzIk3NDRMDoIga1nWgVKpZFCZamlpoZKgfUXf8GxSZk7NHr6ZpBUD1uuPwbd6QP9+x2jlqvfVCCxZsuRMwzDolNXf3t6+xjTNz69fv/6brutSmCjXMDpjGeYgT+fBi/G3LUy9qHmvJHpRoIJtyj38u+yiqOHX+N/XRli3/WZr+b+YNRTA0M8xEomEN3bs2N66urrDpmkOKKHMDZ7u7++vKpfLPBzIDGSozbuuK05p6n31T92r32tfqT6IQ6QCDHqDSvXAMAwJNELbtvPxeLycSqVKdXV1HTU1NV18ULFYfDmdTpPhqBoYGBhvmmaqVColisVi7cDAwNhSqVTI5XJdnueNcV23JgxDyzAMMhWkyNl2LIhS7wmAG+SLYIViPwiTVamEeMBFDn5HmXGh2I9OXuSfFjl3KaqW11NLrEo5cBxLBABT9Dp2THL3N9XXoLE+I0JNnNEQaXBFlyF0QG2GgoUnFqnmyB7M8MR4jOF5AXwEGNmYQFefi0IxoqZprqB2SRNDIk4bOkFC5IRHgUe/Bgov9o2PrEo4yBYC5ItRmxQn6QTzFFDo2RJK962b7sSUyZO+Nnrk6PDhxx77m6RjOaSmKVzIgOj1Lr4PrzlVHnXq0MPG8X1tbKIS0/xoz/xo/CL7etQ/CkLS5pHHP/vG/kslSAlFNFBbnZZrmuqSGNLcILQ7CzqlUyyPnIQhmSNN+KGP6qSFIk03voFc2UdcSj9T+ivmJmZKUqVkzBZ/EcuIzAS5kgsvCFGXjgd0qOQcE3CQWQgCz4g7jgA4ArKUjF2IgUJZnChZNInv0t3bJ0mYDh7ulCiSnv4ccoWSpJmWPS/lthlKaYlwptBOJRMYPWIoTpw0CtWpNBLxOMp0OAkN1FU5KAceevp8NNYkkC1EpaKba5IYIHvi0ezCDJkxOCYBVVHabaoz0N4DJIiq6N0a43tEz5eS3yrSgQCXIKToBvjp3Y+gJ+/fc9Lskx8vlUrPxGKxkYZhHAmCoJ1gPgiCkwjiTdNcFwTBkjAMC4Zh0FzI/bgmCAI3DEPfsqyabDb7KBlQml6z2SzzVtixWMxZvnx5Dyf4nHPOGRmPxwtdXV256urqWoILAvhYLHYCQXsQBL0dHR2vNDc3k43kGVH90EMPbVdMqYRrcqWcddZZQ5544ol2DTxmzZpljx8/Pshms/UrVqzg2bEEwOUAZgGoUdc9B2BpBSC8r0T3617mj8TEXHDBBedRYFOLpVbr+/4Y0zQXcoEC6FY11inLSbszLGyIEjx09CuFYUjtPm0YRrtlWaT/KVx7wjBM8h5ea5rm0DAMuai58HkSJYMgoObbrK7fy+eRhvc8bz/RtGmazZ7nkYrvoHZcKBSoNSfCMBwRBMErjuMkbdtOp1KpjG3bm+PxODfEEcuyhliWNTYIAt8wjP0AaDJh3L0dhmGWTIAgB8Pgu9UrYU1zBDV2fucYhjGgriEj0R6GIa/ls9nvTKlUGlcsFqtKpVK8WCzSN4Non4DK8DyPz0j6vs/faXoxCLZKpZLteR5V/6NA6C0yHL9zdWvmZfCFGphpYaeZnzdrzLYt3zQMygMKKwJDAYhe5BgwWHC+KVhSJu2jKX55WBMwkK6myUJs+SYFRpRNrzqTjJwhaZ5KmJIVkZowG6AgI8ggXazRDjVjXi0MiGFIMSPmBYhC5YB8oSR9JZCgYNF/j7AQaWqJWjyq5b3RmCQS8WJNTS3XVY9lGg6N2wyyp0kn4Zg2mZJkzLPKXlAd+GW3UAyq88WyU3YD23M9eipIxMXr5uT3Aplv1J+jNx7NY6QghgoFjAZHDUAEDH9DEVUZoeX9pVsRShFvUp0eWhxOEbLk1qAQyajWReSOqP+uAiHeeDEdfWsJibQsPwgCmsh+4911F8UwIsI8ijoguGLiLYIU/o3mFl7L5cGFyQgQfs+kSlI1lDkamJdDgbFEzJKqmWyXLIWUiQ5DAUiZlCPga+O23WQTdlRX1+wrFos8/8jwNZbL5S6a9qJISVNMq5Zlpfg3mfhymWddulgs8meD67rVruse1uel67r0b7Idx+G5ErJdy7LsbDZL5jAei8XYlplMJocRgPi+77muyzOnTDOp7/tJAv5CodDjOE7cNM16JsmiUhGGIYV+M02XKtqGTK+cPRo0DJp0PTMENRfSP3vwVL3tRfg7T6LKBe+bETjvvPPmUzDTtm0YBsvTMd3bWAB1BABKiPN9fR6MhmGMBEBwQGF6MAxDClZef1ghX566OSVoeT0PVAraI4x8AzBBEsFH7Q2Ypkng0cDFbhgGEXmVYRiMTc8SKCh2g8CEIMUNgoDOgtzAw7mhaHagM59lWaODIJik2q0yTZObgs9j37gXuLnIHkicugI+3Fz0y6bLlEgLdTAQsbPPBAYEOtyAZZpRlBmDP5OqTUWQhBaZgiAI6BcQp0xV19MeyQ8PHGoB/MnNzWu8crmczOfzPpmBvr6+TDabpeYvXSG4IKCg3wb7GY/Hw0QiUUqlUn2GYfSapknmwGloaOgkC0FgQwBjGMZBtq/6yIOaZhiOLQEc/Ro4HoeVEySdIjmXfKc9ZJVNAykvEAdJvj/nWzNIHAeO0Q7DCGNu2RsVtwPT84P4kd6BYUzMM5AdMLN92WTv0fcwKE3FTy7yxZOPklsSi8D1IWYhCo/BQnzw74M2HAdHXNTVfTL+mpFSpiDpJudD3adDW5Vre3S/erzgbjgAACAASURBVJej0SZsx7Is+qTk0ul0trq62mtsbGy3bbuo2Bmaerj+GsH1zDkAhsAIMw3VYExeTdkNEwjRFcKI0xez7IcdRhgGXmDUG6ZRTMdDoz8bDC17QVvCRqLgCvjKG0YQi5meaVumlS8G5f7+gamlsl8IQtfK5Uo1ki65v9/0fS9DVxW1pvVPQ5n6yA4Ja0TN1jCMwTUvdK6HCDKo7/lz0FiI75D67iiJpMZJ2lLMF59DcxszIoZVVVXdNTU1OY6V4zh5+ixJigLT5DnA9Uy/H4JrrtES13pnZ+fQrq4uOkWTyre5cdS6ZNvySLUm+Hf9bL6TZvdkHWg28nXmzcGQjO1wfI7KwyjiRiVbeHec5INBKtfDb5gW+G91tkZUIGk0FjI3DJ4L+izl+ebbtt1XX1+/1vf9W2fMmNFRXV29+/777x9/0UUXHVi2bFmRjIP2magAhDeb/D+SRv7uWG+/fy+WLFky0nEcarnzlNAl6iV70KiYgQZuciUkKcz5vRamFCwU/BS6pLdKpsnYeZ4dTOkmB0pCOdFx/4v2RUqNm15ppqTyeAMFJjcCzR0UZjz8qJnzUGD7PJwFcCh/BHr5M9KAtnxulDEAjlUgg4cI76HfAmea8ezaT4LtUdi7qj/yc9CIySGrnsk2CBT4tQRYKWFKOv83whiV1NOHHK/VhzWvZfv8N9+PfeWBxw3Nhvk9WRgBDEqo81H8nn2XA0AJwMEHeCeBFfupWBy+l07yw3fi3IjgV+MtmkYYhgQObJvzRh8GcdxUBxD7zTkm6OO7cy4EFNDqEYYhnVd1jQG2J/PE9zuakCfkwSW57GKBxDzKh+0SpBAgcO1wLChEuFaKvu+n6VNCskkd+hwPAhS+N99ZXOj5fkEQcO1wzOgwKz9N06TQ5tjRT0PGVv09pM+IYoe43ng92yIbFHHq0TNk3hRgIo2s/Vc4Vjo6J6soZhkXNVf9AAEtisJsG0a976PXtELL9QRU9UnWPllPYVUYGmxbQm0RBAOhYQgA5rsbhsH3LRnMMxGEHsFGGIa71B7UazxrMFmg5KIQkx3nh+PIuaCGzjUgvjKcX0bDqHEmyCVg5vzze44X35/PIEOWopZsGAbngfNfoIOtGqNcEAT8jooDx1WchJnHiOtHrS+ygRx3vhu13yNcU+oMqCWo4vcK4GvBxr4QVPN5ZPK4nnnfeO5rtUedUqnE9yDtznOonQqLUjg4llVk6tS+4jyz/71qnjjH7Kto2q7r8jmy3+hXIAjK93tc193vOA79esgcHLRtm7+zz3xnCbrQVlDTNPl+Ys/n/AdBcIiOzlzDPJ9U7Q0ybb281/O8gm3bnBszl8vtTaVSI0ulUkcymRxJVoFt2LY9lI7cfJ7jOHQYFwbTNM0q+l9x7MIwbEskEgTq/BRikcfpgOM4HNce27bJKnDO94VhWKvGlG128ez1PG/rnDlz2ulkedZZZ9U/8cQTBP6/4TD2+0uMypUfqBE466yzGiic6V1vGMbJACaapslNR62ehwQXJg9RHpZc1NopUQ4LtZF4eJJW4+Grk8qwDZoX2AYPB3WrCA0ufG4EOaiVZk0BwEOIzyoFQcBDi7/zQKYGwOfxUKNw48FKoa9BME0YPGAFCCiQwN81wIgOZeXuoA4fCkgKLbIk3PA8bMW5UR2kFJoSOaD6x7YoZCLXaOVApA4R0c5eU42lD3wvXsf+i4+FAh7cyEKHKCHDfvFaPl+3fdSpKBpuOagoNCmsCQgIANg33id5ZdUzhA1QYEOAAd9RmYc4fhwT9oXzRWHJw1y0MvUcrZEIeFHOp5wnrXFxDWgmSYMX/mRbXAsJBboEBGgtULXF9vgcggpez/uEUVHfs12Ov2ZZ2H8NQAafZxw3vr88dxCAkP7osVVjxfeQdtTcSjuDBArnXdammlthqfTvSiDyO1mTCkjpeeA7iiOvGjs+K6J+ovUkIE2tSQ1Ao3SDUVt8Ln/XYFhrjnodsF0yXmTLuL7ZD7YnoJUOrINAlKxN+hEpYct/C7hR61UDVzJq/Bv3CvtHFuxVBb7HKMAh+xWA2LnVNWxXkkap/cd+UYmggCdrxT7r+aDQ4r7ih0KU4F+zZrqAEvvOZ3Os2SeCfe5tMpO8l+9HQa/nivuOZwMFPseJjCLbIOjhGcJ+UZByjZNR5P1cS1QEBBSEYUjWrTsMQ4ImAiaOAd+TbKUGVmRNR6q5472cIwGYVIwUuCPQkH4pQUzHYv6NgInzvEedT3wPgh6CO/aLoIHvwLHk2cp34P4l4JXMndwXan65xvgIgl+2vZMKEEGSGi/ep4E2x5H38xk8Hzgmec/znmcOj2Kx+JzjOGZHR0fvhRdeyFwvR50VKwzCB0rUv/2XpeNLIpHgQiY9PikIgtlKoJOepw2fi46bhRuVh6LY0LQmqLQTHpBE/jzAKHi4WEXgaWdEtYEo7GVDczOow4TCk/dxs1RzMwMQNK00V/5bAxSCA1KXWrDR/4HPohbCxc/feSBoYc9+sV1uJApXfVi3DQIkBDfU4HlochPyQyHGw0cLMnkROiZph02lgYo2oYQfDy8KKd5LIcCDWWvCmg6W5EWDBL88Sz1TAJZiLKghsc+aieEBRGHPe3mY6oJHWlDLfAwCTZKbYpAgEhYiOtdMaoWcT7bPA4gHphzoao7YDx6Qwvqovw0GS7xWH/ZcE5r65DWD6XwBL4oW1gBRKN9BwlQ7qGoQJUH3fD81lhoc6HkTG8XrHF6FTlfzwD7oNo+aIwb5GugDUvqhxohrRdO62s+C1+mDmOMgGp8SahTA/JtmwTQFrpNl0TGN7Ayv5xjrs1gLee4narsUeNwDXP8yf2q8uWb5AK5z3kOBp8GN0PcUltRolT8QQS7/RiF+dJ4VQNAgmc/gOqWwY984x2xfgDKFnwLt3D98DwIXrgsKXgE1imGQsVX7l2ud65JrlmBBnxUED7yP1/FdNTPEPcyka+zDWNM0d9EvQQne7crHicwl350MA88TmsRonuB79RAcKEDA+SEoZftcDzy/2EcNXthPsiMcE15LrfxAEAQUzHwGgQzfi8wEryVrxt9rFOPJNcV+y3uoMZe1pd5dJ0/jfHC8eH5w3repceL48txh83w+r+d5yvs51pJXRc1XHZUhdf6QiRAGUpl5ORyHCGwU0Orh96ZpalAhgNYwDD5f1p8at62cGz7LNE0yrflkMrlx2bJlR5PEVQDC25eZH5g7mV2vqqqKhwfRMx0AL+aiVho7UfxoZXqgzZtCgweIpjaJqukXwM3Fw0RoY3X4yEan7Y8SSdFv3BAU0kTSRMl0TBRb/SDhx/u1hs5FT/qShxU3hNjCaT9Xh5IIcyXoeC2BC9uVvAHqkOHBwoNYtD3VtmgWql0tYHlQ8QDgoc9Dp26Q7VOHTeoDXgCB2twcu6OlZQc5QQ7ef7+xF7XGzJw4g3g+EayDtGitLQpLoIQlbxVKWR08POR4GLN99lnSAquDRqhRRctzLLR5h80Ja6K0Fg2khJrWLBAPW3WAaZqd46IFLu8XwaU0nqOMh2ojqusbHcw6mZMGRTIWgzR9+eegDccx0MBk8Hf/5TxT4EMDOA0g+G++uxzmaqz5nZgS1N+FrdAMx6CIE/0M3aY+2PmemlrWZiHN3uh7xBSk1qcKxJM+8D5ZN6ovHFcKHaGr1TxyfgmGeb3kC1GgVrMSnFfONe8Vk4RezzShKNOCts2LCU19rwUc29bhwxwbzh9B/B7FBBDMEgARmFFAEjTy32yL4JnPFCZPhzTT218pAtxzel1Q+PAcEaGozF8EumSsuI74HO4dXk9anAKemj2fxetJfdOEoBmxHaZpNinHPM2S8Fyhds4+UiDyLGLHZF4UOxM5MbxmIuB4EjhoYK3BroBgMhhKqPMagjEqKXrPaxOdmOx0Qjh1dnBdaOdmMp5kL3aoNgSwcgw1y6r2Cs8xMTuoPormr3xIxNdJjRfNHMLoKcVEg0eCDmFPlaIgoH7Q+PKeftM0XwiCgGPLc7k1m832qYRtR/daBSB8YMT8239Rpk1uamoKmSDkvPPOY156Oi1SY+cBIps5DMPjDMPYoA5eJvIhdcYDgwcCF3R9EAR0UqS2JBSpMi9o7ZJafppAQiFlbnBuwKZB8bkCKNShzU1KkMKDjNfxIJGFrQ4xHgy00XFj9KncAQQIpOQY78/n8ZDkoVKnbKDcrNycpATFcU4BCC1IxfSh3psHiKbWKa20mUDT23w/OZBokxcp9JoWrYUiBbX21dBa7WDtWdPArzdNsD0NCqhFUTCI/4SidyX8VAkirblqalyEi9J8tTYvtKU67LXwlP5rQKRXjzaBDDKraAEtbNCg7zV40ezC0UNH0wS6DT1vxIhqjLTg1mBNP17MNIP+563aKU18EQaBJ2EwBpla9PhqLZvrVsZGrRnNOGhgotfSUSAymJUYtJt4HQGnHkO2y75wXnhQa/8MvS4IZLkfON500hMgogQL29BtcX3ruRDfg0HgToNsXkPwrVkhPo/3cE/xGmG41L/FjKLGWLNAslcGMX/CfqhxkbC5QaYRUu8EBgT01E7FeVetI+41Cn15tmIWdOZUCnmOAQWRNiVS2GsTkvaf0ftWAwm+A9/vgAIffB8xK6j5Ilhgu7Sj089GAITyxyBYYV/2KHA1Qd1HLZvmUNnjim1glJQGh+wfWUOaGBg1xbk8jo7I6twiY0lzCaMm+AzeR0BDASt7Ws0tz0UqHJxnjqOAK7Vm+PeD6nqeT8JCDWJr+I68n+cT2RtOKd9Ts308c9iG+GeoOdYmWG0GlDNqkJmT/eIZwf5qswN9rwhUtpJhsixrZ1tbW8fghE76oH37kqNy5wdiBJhs484777SZlvfCCy+k09HoMAwpuBltoDc9FyupPToREW1z0wolJzHzkRbAA4VaBQ8TUojc5NqerO2t/DdpUW5qbhYdUcADibSbdv7jJpLDWQlgTZ2Jhj9oYngAcaPzXrIRIjgGmRpES1SCpqjCJ4VypaaivhNaXwlfHsJaA6KGxw2sKV0tfAhadF4HTUtrAa4ZBg0YtEY5WBOO3O8j6lFOiEEatNZsNWMgzIRiK8SRUZsjeCAoM4EWNLyU1/DwFcdB7b+hhIH2fo5y5kYHPgVQkgyPOgD1fRoMULhpxzoKlKNMhgIpWgDzEOSByNc5anrQ4E8dlOJE+TohL7k1BkceaJCogYU24yiTh4C2QUJfDyEPWd2/weaFwXtYwIbylteAhuuabXD+5ZHKY7ysxlZr/pxzEQLqXShoZf7U/HDMeQ2BrJiQ1BhzfXNv8GKawCjEGZ1DASGanhJqvJ62cFL93HNielDCl39n/6iFy/tz3yjWgJQ434F7idow519YAMWasXtcx/xOTBZK+PB5IrgU00aAQEHYwSgirVHTnGaapkT0KBqdvhB8T6Gp1TuR4eM4sJ+k78UervYp9xo1YT0PnAMBzYPMTFwvZCF4ZvB3Cjc9nmQ4CPBrVMjyRM1mKH8kjqt+PwHVCmxx/LSPBdcy97r2T+B7khll38arcZNzSr2HmAYV48K+ElCQsdQAhSwDAQvHnIyHZmPIaLBNPkfvPa5JbUbS64NjSYaC/ZOzJwgCvjMHieYUDaY4/1RqeL8GElRs5ExR56L4r2hzpWmadPQl48P53c5sreqMJXvT8dBDD708eENUGIQPhIh/5y9JFiGZTNbFYjEK0cme59H2N9QwjBMNw9ju+36VbdsMK+Qm4QHCDUy7Fg8E2s9oNyPrQCG9PwzD/TxYgiAYqzzphzP1rwIXEnaoDkZxKKQvgELV2tbIBc3Dlt8Jjacc4Hj4CNWnDhGpnqsELA9WcaJSWo52wtOHpj6ExISgvbLVwSehmIMyMWpaXWeT1EJcC4yjkQ9K4ImUURtTswacGC2ANFiK0ty9JkA0/S6alZJ2pJ+FCleHJtuhA6lQleqw0JoZNVUdGaEZC743x4yHldi31WGuhYSmn7Vph9ez/+Lhr8aVtwhNrhyutBmDh6cAFkXviqaoNCtxWlPvx3eU/3UeBu2IOoj61wepmGrUnBJA6LHVpgjtLCkakppvLQjYvl4jWosb7GOgfTvE52EQGNP904CSzz3aNsdaAQSOAQ9hsckPcmLl2tT2fnH8VLZ68d1Q/eTvZLU020LtmDHt2ubNdaIZH74H/y2e85qdUqBA2BsFSLjH6D9AsEDnRYJ2rglxotR+CgrYczy4jxkVIDlLtKOrAnHaGZI5S5i9k88X4aL6wD3C/lMAcx/QJ0Q7IXON8nt+x7VwSAkirgGOLU2I7Cv7wN9FcKqTiuuQSgaBPv+unT+1YysFLfvL/jEySrM47AMjlej4TCWD/aSw5txSiHL+xLShnsN9z7HSPlHaqZrrhf3uVMynBvFHzRBqrRCscVy5xxg2zP4MZwj24LWqgBznViKmFGATIK32ibAISthrxonrgOPO67U5U5t4JBcL504xJmQL+Ew2zz7QpMRn0QTKseS8cJ1z7vRe4ni8yjXpui5DHvP5fL5fp6nXEqMCEN657PzAtbBo0aJjbdvWsfukHKmNxOPxeE+5XB7BugBM5MHFp2LuuSi54LlYGdazrVQqUXBTyPJwojMVgQbRNul/phSdrswHJ4dhOFFRsty43ADiDa8EJDeXeAgroce+0BGIWj43Ls0LKe3foA4z8UhW1KGYHRRtp0v36sOeh4QGIWyXm1ILT32oU8Idtd+rPmjzglD+g+zcYnOkTXiQlzN/5wZnwhmWGuKvAgSUwKT2JYJavQs1NInUUO/InzxA+P7UZCgYeC8PL3HyVMKBY8Hf6cQl9s1BTpyaumdb4vmu/TC0PVuNj0R6KJuphAkq4CDvqAW70pgpKPhMtie2eTU2fLb2nNfMiw4P5Xf6bxIqq7RR9lsE46DMj9pHhN+JXVlpvlpDE7uzdj5TgIvt83odLstnsY8ieLQT4/9v79x/ozrTOz5zrnPxGGM8XAKBQKDNvc2SbpZdqZ1uEG5iTKVK/hfyd+TvyH9QzS9UuEAgtCNtCUkbyG4SyGYTHC6OWWzHY3tmPHMu7znV59nntSZuGqLVSmG1RrIAz5lz3vNenuf7fJ+b9UPrs4dTT1mnzVgKBQySUqkKS4LfFJDZfYLAB1yIAte1YE5YaGGqlKreTCtk7ajUp2uwn6A9VTiwd5ZRkjnUfSxBrmrdY2GiWLH0OV8oDvYC84FCJM0NpoI9xHzsVqBtUzw/J85IKXrOFfQ64AALGxchljVnAeWJYmfvw6ZAv/N/FLetsCr7Sel5cQVq3IJ1L9hATHuW2btcz7sxZsbHHuA+1iVk4zVgKvk97NXOvJBTJgmlRxAkZ5a1koJkhUIBKh0GEQOAsbNOFkBilMA68OyvHcc5rEXcGBPGDPuY59g0YwF1KqtQxBIArfEJjBVGRax6PX/MO2OV+ABdPusy5BqUvsQwKLhkL9vgTfYmsow9BvuGfOI7sDnEVgnLpyANFsq6PGBVyAwhy+QFlD9rA9ihbgm1TJR1+Q3nifdO07T97rvvAti+9WcbIIg02xIC9Ren8v+4F7athYlPoH3whx9+uK/f7w9KpRL5vYAEomM5ZAvk43Y6Hcf3/X1jY2PzN2/eNLdu3UqPHz/uPvHEE/7q6mp1bGyMyHlYicPGGBQ8/vtXlQKFnnxBqVCb/iSZEqoQEYpEP4OScW9wGPATLhJzkOc5goNrbcoaAhVBgvDGV4lwIdjpXrFYfEmtQxtEhUDhcDImPudv6aI4RN9aug/hIVkGqsQlYnyo+JJMtvp+beSzdUkgdG3MAEKWMSFEyRwBGADKEFYoISwWhDbvibUgNQuGfO68F0pVrFIdr/iClf60fmgACOwMVhfKCi1M6Vgi6HlH8ZfbNE5VUDblDGGJAByOc5AAN/1BsVGh0sZSWEXO+tn0MtaQf/PZMC0q1r4NnFQLyLItkrqm84ziQMhaHysKCmXHe7LGknmjVirfQ1ByX4SsFbrWhcE6WWaFzxC6lsHBH8xYrcwUH7wGyDIHq1C7riseCrEq8dPTwEtjZISy1z1k0+14FvtVXBjUalBlYRUj4+GZfM5eYA+KhajjtIwFFjZ7ibW0lfTYp9QwQKGwf9krnCHuyT4ndZH9we/5Pr53FJINbhXQr1H+ZBMAFvDhP3Qc50UoeR2XjXdhfvgdbAogxmZ0SIChAlMYQ+QB78FccOmoMok2QJh1k7gkdQty/zl1fTyr+557MFfseRgJDAc7domLUokmabt5ntv3xg2xgH+eeho6L5xV5AW/Zx9bmcJ3rSuUsUislRZyElaJd1HZIunTliHSBmy4V4mpEjkztI9ZJ+sisjICwMo5A3zZQFrWmTl5L89zirtJxou9LsuyFeKqYIro86JpnazjF9qHhUJwAH/egWIi9H95nvT0LMsACJxJajwsJEmS1ev1lWazaV0wmwphGyD8cbpx+1tbZgCwMDc3J5v7+vXrptFoBK1Wy6Z0bTYi0eYh+alTpyqXLl1CYA//ke9PTU29rAcfxQRliBAgaOhZVY4IYA7gYVt3QRUfQh/FsU9dDhx6LDAOJN9BsCCUPi0UChwuCfZS60LyijX4EqVGjAWMBkrXUpIIVBHuCkK4l0Qcq7WAMEN5SmS7InqJgVCrSwrsqAuGf0t1OASgCn5YF4n8VsuSAC1+JyyB0q42mFBiOfT5WHZCb2pxGpSbpXp5PmNkbLwjoAdQgeVkFbcU2dF3YA1Q2LiJUKZSSEbBiaWppfiVMgIoG4Qb32OdAC5YVIznep7nKBPegZLWCGur1HYUpDKv1Kvgu0fzPEfQAVastc0YJLVUrVeEP4KPWvjMOSwDiotgPwnwI8hVrU3mi/dmvm1UNwBRGCj9wdpmzNJnUZUpa8o9pASuKrweRYIwtmDBKApEbr+uKeNj/HzHZnXYGAsbtyJUuU0ZVbDCNazHpgthKKWUPSbWq2YE2Tlj/sTlpnPEfLBXuDffIYuI+iACgBRQSFEjBUrMNW7A+8ydngWAAHPyrlrfnDeAOuvLnKIEuecRfNZ0L9UMo4MKdLmPBQbMLyXQhTFU1oPzAECT6qbKbBHDBOMF0IUpkNgQLbKFkrPlzoV10r3GWnKuocXZy5zPOQWCMB7iWhxigiQ7R9kA1pn5waKWVD988RYAW9Ct+8SmQHIdAdOsHWtN6WKCC22tB8ky+UOFyyJMAjKG+aeoG3IC2QbYwIUjbjGNk2DNEAOsG1VmuQeploydfcgckWEAwGKMpCK+hFwwxtx3XfcnauScM8Yc9H3/mTiO/40mUpVK5XVjzC3HcVj7X+g9brquuzdN0900Y9MstKuAsjiOKeC0UavVorNnz24ywsMCeRsgbKv6x3EGiidPnhz1ff/nHDrf99nIz2v9AQQ63Q4peXtI83k5NFiOd7MsA0H/Is/zd/I8P8rhpNwwuc2a1kOrYxiF5wADajlAzX+hykkOMoJMEbilqhEAKA0OPucGi0+KNdEKWwUV1pjQuihvY8w7ruviIsFCsSl84jtVpSYBeXme/48KF+jfXzqOs0CMB7Xdsyyj6hnfJXqagExADYob5QlAgDKUfHAtlCI+cco5K/2LciaYFKEBwwIVjCVInIfEYqhVyVzyXih3FChKj3Qym4uNsoMq5RoEuGUz6CSJIEV5IfzmYI3UmmQesFbol4FU5HnMFfXpseLGlY7lnbB2LfXLs1gjgAIKTUCKPh93E+AGiw5gg9WFG0kKHjmOw/9RDBLEWiwWv1LlzXOlymaWZSgZYmPYS1jdf6frxj7hvWCUWEvmCcApqWVDigQggG8fAIdFzv7BsmY9JDhPgwTZI6wDgO22jg/3QV2rgtoANqh5GwgJAEFBYPkBHlAk4EjWHsWLYgZYMFcoKfzMNjUQgEx8D2OWgDlVOMwN8QiH9P1oSPbXNjiX0tFJkpCbzzNho+i1Akhkz9F6nPVkDZZc1/2PNE3f4HNjTKifsf9gCzlbnzGX+MDpUaCgnjP0Ec/LsuxjjbF4WYEhtQ0425JNMTR23p39IzE1LKWuLfuPdSPAjgBC9qllPSRTR9un26wSzi3sGO8Fo8V5Y174XFKvFSABbCdI3eZ5yqZx3V1V3hQh4l6sg2XkeBZVYKVWhGYfMD72rRROYpy8L9UU2WvILD0L7Gv2GufmU3opKNiVdvDIkCAIlpMkKQdBsBhFEfcYoUx1mqaHHcf5vFKpzPf7/XqSJEeWl5ff37Nnz/NRFN0fHx/vdLvd52E7PM9bWF1dTWu12kljzAcjIyNRkiR/NTs7+36j0dgVRVFva9zBNkB4HFXi9pi+NQP0Wm+32yDflZGREQQw9CI0LhH1WAQ2PRG/IY2XoEhB8i8Ui0UajnCwn1NhKtx1kiRYng983/9HFV4cRNomV1zXtVQ8/RoGrusi7FFAKMM1DjVKTAUHQt+mSAISUKp7+Yzn4/tTgUnbaQQOghMXBxYMQUwSd6DVC1FiAAOsGlJBASAIvwRhwnMQ0spsIIRQNvTEuJ1l2ZQx5l8dxyHjo0arZ/U5ovRQsigBW+AJIbmcZRnvhbUIsKHstHUD8AypsodSVsuLsVqfM2Pfjz9Vu9mJgCW+Q6nZ/1Tf+TMKvAAwjP+qsiGALmhYrEWE4mbpZnX14FNF0CNguQblhHuITnYors+0JDfvxJgZLxXpJNpbx8K73VDFKMGHxhjAV5WGOQh3z/NGtfwyVDaWN+ASNkkqZioo4X6wEYAQqfoH8NG0M7r5AS64lsA7mA+AALEzPJP1Yx2YK5SEVMfTqH6+gz+fNbfpsuwv7mddT6K0tFEZgEwqT+r6w6BJIS9bnEhBh/jiUTTMq+u6G8YYXAiAYMmTV0BLq2/eGzZgznXdp40xPBurlT1HLBB7gr0O8PgkSZLUdd2jWZYBRNlTgBIUOucQCxjFJlkGCj4JDoTREsCqefbWncU+pxQ31j4AyzI03AMACIhC+fJjm7pxb+aPmArWRYLHlQAADNBJREFU6QFgX4GBDbJk7bgd8wJIAvhDy3PObPoxZxbAwR4E+NmeKQApQLNN1eQ8wzqe10BHsrAWaFKH7FGWgecD6vhDnBX7RJg+tfqZR9jBeRqMabzRb1UGAILIFEBeMI8AbFyLyBipxQKgKBQKHwA8jDECWhV8FSiJbIyJx8fHl5vNZt5oNIR17XQ6xfHx8acuX7785RtvvHGQa7Q/CIZOm6Z21Wr1Dqnqk5OTO6IoWm+1WtYV8/9qn20GYVsxP7YzcPz4cf/69evp6dOnUVR0cSQACEEAssd6oGb6wPO8yBgDBcfBfM5xnOtxHKPYpAwqlri2TuWw2EBHrDxYhU/SNN3lui6U2xo93KGTeZZLi7dC4Z/IxaabmgZQ0hWSbm0oOHzMvu/7KLx9CLhisQjAwAoATGC9omhQjljLlKzGL4lwgrLEGpEURKxap+hkhWKBIKlWlmWwHwikiwgTlHmhUPjUBoRmWUYNdepC3MKycF2XzwlIQxlybwI9jyjdKcVQjDEIboDUniRJvg6CAIvoizzPXxlyk1CFDdaFZ/+N+jdxs1wuFov/4jjOl4w/TVOAFnERULAHsiyD/iTq+rU8z2fV4jumaXUoYgQhbhEE5395nocQQ/BRZAvK+VfaIRS2CCsTxYVCBBzgh2Uted8XhwQ8ygIws9N13bs0bVDFhIKROAj8+vT9IFjWcZxfJUlSCsPwiTRN2QuAOdYDyp2xwbSgRJhvCtMwbsmgAYwYY3qu6xJb8zmK0XEclIQFAvjpb2hw4T8DUB3H+TjP87/V7x0wxryv7Bb7Gaoeyxjg9bJakDBLAAqYBSjuL9U/T/MSfM5HC4XCKwrAwFLMKWtKgB1sz78riDkKGIQlQvmoW6RPfAQsnPYZIC0P4IySPsw40jTteZ6HS8iCYhiAW3QcZb1rtdqxTqfzWblcPm6M+UyDYiPAF0qWHhdZlj3J91GqnusdzAtCu9N98Ne+7/82iqJXHMfh/WF47jmOA0AD8HJm+AGI4W9HweNCwJqHzfhK2SvWf5FYJfa/MWYBJg8Wr1AofML+B8wDljVd9RnmUZsUsY8BEOJ24dzxfc/zqNuCTJHiUxReykz2keu53TRNMRZ2J0ky7/s+IAE2EHfZq+pyEsaRugn6Xpx15raj88z4WWPAI0D+ThzHv6lUKlmSSDVwAiSXjDEA2Nh1XZjMvefPn79Lgbp6vV5sNpt9rUXjNJvNpNFouMPKHbftuXPnXGSlzYBqNBoS0xFFURGG4PTp0/tnZ2dhELNTp07tvnTpEgDukX+2AcIjp2j7gsdhBjgE165dGwuCgK51oP5RsiXSNEVBzNHMhMyIWq0GBee9+uqrXRqPTE9PlzudTlar1cRfPRgMEMafRVG0QYvlcrns0AwFRch1O3bsODgYDO52Oh1Tq9VchILv+8/nef7B4uIiVF1GbMXk5OT46Ojo2tra2hOO40DJjrXb7Su1Wo2GLkt8n3kLgsALw5CW0/sYt9K3CDgCpp5VCx5aHiG9jGshDEM3juMHjuOgIO9CAadp+tMkSd7zfR+lgN8TyrR+8eLFz+kHv7i4mOmzwmq1iiBbJu0U+tH3/ZUkSYhqhoNfM8Y82e/336tUKtDHz3U6nRv1er3Tbrf3+76/iuAKguCnruve39jYgOp04jjOCD7FYk/TdCIIgvV+vw9TMej1evHY2BjK5EU7XiwftdhfwdJO03QNwIUgZVxxHNNFrrCysuIHAe59CeaqDwYDuiQSpMocAXwQpHO07ta0LT7DYkOJYHVJe0xLgyNktWMmlj9CEFbha9d1sWxhiaDJUSwAOJgIfNnMMxYbA/mZ3hdQABhFYUshI5SOMQZaeXV5efl3e/bsgeod05TfijJRCHmCXG+osvl5sVj8aG1t7fcjIyNP0n5cgQH7A1YJgIUfntgLlA9MAP/GVUb0vVQETNMUpca6/xJwgbIRRfaHADWx1lFMaulL9UBthoRPHLcHQAHQR6EgYSZU4d7Sec3b7fbHExMTWP3jvV7vBsCgWq2yv3F3AZr9e/fuLRw6dKhEh1FlV6qAatgIVZScTfYmrAuxIXeSJLnjui5gkz0ggZb41mlU5Lou1jpKnKwNrH3blAkXCiwX7Y+lgZgqd+KTiAQFwONqIAbmv9Xy5tm45QA4ke45wDLsHGnWkkIIGPR9HxBGat/OMAwljgajgLkJgoBYh1DdfAAeQOEXvu8DdACa7AviAlgH7geoxZi4rcAWwJpFUYTBAuPi+b5vSqXS3M6dO9N2u1188OAB88Y7egRv12q1uF6v+3RTtGTSFrlrszc2C0Y8Si4TF9ZsNpmTzVosQ//+QffZBgiPmuXtzx+rGZienq4sLCwktVotrNfr/aWlpfLi4mKM0Lpw4YLkaL/55pve22+/LWia60HRcRxHrVbLZhQUTp48uYMWyefOneufOnWqDqKGsdi9ezfKcGR8fHx1MBiEfL4lx4UzIzT490zMZioc1xw9ejQ8duwY9Lm0x/Y8r5emKdYqQr/d7/c7WApLS0tutVr1e70eFsI3U1NTKIrRdru9eO3atfill14q+b4fEwSqz5f8m5mZmbJaGSOVSmVXmqbLvu9DRUOnd8IwTMIwjLrdLqDEPX/+/MMzZ86MJElCcOEhfJxnz55dwzIhOC8IggTq2fO8fhRF7UajEV+9enXv5cuXCfos0N3zwoUL+N+LWCqtVit5/fXXq7T1XV9f79dqNZ4NUIJ+lU6dQRCUkiTp+r7P3EjKXZ7nxweDwQelUglK/niapjfeeeedNgGsWHSXLl1aUmvJzMzMOOvr67uDIFi7fft2+tRTT+H+QZAXUCDdbvdetVqlTTCtr4mnqGIRu677zcbGBv5lr9VqRbSy5Tt79uzB/5o8ePCg8/TTT492Oh3AA+zCoSiKuL7LfbAYEfasGwAvDMNlfrrd7r44jvulUgmFNdfr9cjUccMwfHJ5efkubbfL5TKMB7E094l4HwwG3UqlgoV7YDAYfN5ut5N6vd5wXRfrHfB2UONeyCbBEkXhDPhMAY6Npod6RkEzz7h5UKykC+PaagdBwN87qQOAYoUapymPFjXyAV/cTzuqWoUEFS77kQBT9gjzNDk5ScvlZZr4aLG0dGZmpriysjLBugFWV1dXnV27dgFWoPzx1aNB2SsSBLuxsfFVq9XamJqa+pnjOL/rdDpptVqlOyyBdbRyPmqMmbt//3730KFDEoRHsSiU/MrKyp2xsbHMGAPQ3h3HsRtFkVjznudJVpLruofxtwMMaCOdJMm9IAj+wVryAFrP83bCmgH6fN/vLCwszNdqtRxL/MyZM7V+vw8j8U23200Gg8FgYmJigr06Nze3dOvWrQxrfnR0tLi+vi5pj7Va7Wiv18MN9pB9UigU5gHp+/fvH+/3+wCY6MqVK22ytNSyFyyxRW5Y/fuDlPWPIYi3AcKPMevbz/wxZuDPPplVXS4IqEf+UevBRtMPv/vWebBgZuvvv2u+vvU7aM8gCMLvyEax43NQJmS3DIGa7xt7ESBAyuxwRzmegyCfmprCrZSWy+XfN5tN8Z8igHft2oW/XGomAAQJ7BoZGTnmOM5Nz/Pc7wB5Iqxfe+213VeuXFnkmfhmYdwnJycJ+Lrb7/dFNh44cGAMC7larc7Pz88H0LXM7cbGxmiv1+sDOk6cOFHSQC9nSCHkgFByy2F4+v2+KZfLuC5gPwBD17TNNAzGOgXIjDF/jxLHus+y7JMwDDtJksB8mB07djwcDAaeMQZGxvM872Gv11v1PC/wPE8YtTt37lDDoFAul729e/dCMRPD8zAMQz+KIsnmwa3jeR7uMdd1XVw0uImWHz58+E29Xt9/8eJFgko317nRaEwAVi1IBnCfO3eOIEmr8Ar4vAFh+n6wIgTofgWYnZ2dhY7PmYM4jseuXLkiwIP71uv19traWgkwOj4+Po+1Oz09TQYAQEvSfNvtdrA1P396evpwqVRa6Xa7A5TykSNHMhT87OzsAuCSF+v3+3EQBD8Jw/DXW9ff7if7nrCTrVbLZl19C9wPbdatyvzPXp48UojoBP2Q67av2Z6B7RnYnoE/9Qx8H3D5P88aEuxWOYnldeLEiTIsCQzRW2+9Vbx58yZsTHGYMdp6s6H+IvhkbcotjIgEN/Jdy14MKUxL1Q5bfEVYiS017L8XbGmqL1YpAGucdLN6vS7Aj8CzLUrJUsT21zLGVquVAb6azSa/B9xsPpNy6FjfWLvlcjm/cOFCPDMz4y8tLWW4ONI0lcJUrVYr1nRk+f93MGVbqemt0yjPRPmHYVheXV3tqm98GHTa+w4rXt6h2mq1usxBtVqtVSqVdQVpw8/4TiWMNY8LD8uc9R4Ck5vXM8fsg6F7/kUo9D/1Af1f0k0V8A3c5KQAAAAASUVORK5CYII=;fontStyle=1;fontFamily=Courier New;" vertex="1" parent="1">
          <mxGeometry x="480" y="2050" width="322.5" height="115.98" as="geometry" />
        </mxCell>
      </root>
    </mxGraphModel>
  </diagram>
</mxfile>
